<svg width="17" height="34" viewBox="0 0 17 34" version="1.1" xmlns="http://www.w3.org/2000/svg" xmlns:xlink="http://www.w3.org/1999/xlink">
<title>&#208;&#148;&#208;&#176;&#209;&#130;&#208;&#176;, &#208;&#191;&#209;&#128;&#208;&#190;&#209;&#129;&#208;&#188;&#208;&#190;&#209;&#130;&#209;&#128;&#209;&#139;, &#208;&#186;&#208;&#190;&#208;&#188;&#208;&#188;&#208;&#181;&#208;&#189;&#209;&#130;&#209;&#139;</title>
<desc>Created using Figma</desc>
<g id="Canvas" transform="translate(2213 -3223)">
<g id="&#208;&#148;&#208;&#176;&#209;&#130;&#208;&#176;, &#208;&#191;&#209;&#128;&#208;&#190;&#209;&#129;&#208;&#188;&#208;&#190;&#209;&#130;&#209;&#128;&#209;&#139;, &#208;&#186;&#208;&#190;&#208;&#188;&#208;&#188;&#208;&#181;&#208;&#189;&#209;&#130;&#209;&#139;">
<g id="&#208;&#191;&#209;&#128;&#208;&#190;&#209;&#129;&#208;&#188;&#208;&#190;&#209;&#130;&#209;&#128;&#209;&#139;">
<g id="Shape">
<use xlink:href="#path0_fill" transform="translate(-2213 3223)" fill="#878787"/>
</g>
<g id="Shape">
<use xlink:href="#path1_fill" transform="translate(-2207 3225)" fill="#878787"/>
</g>
</g>
<g id="&#208;&#186;&#208;&#190;&#208;&#188;&#208;&#188;&#208;&#181;&#208;&#189;&#209;&#130;&#209;&#139;">
<g id="Shape">
<use xlink:href="#path2_fill" transform="translate(-2210 3235)" fill="#878787"/>
</g>
</g>
<g id="&#208;&#180;&#208;&#176;&#209;&#130;&#208;&#176;">
<g id="Shape">
<use xlink:href="#path3_fill" transform="translate(-2209 3247)" fill="#878787"/>
</g>
<g id="Shape">
<use xlink:href="#path4_fill" transform="translate(-2206.8 3251.5)" fill="#878787"/>
</g>
</g>
</g>
</g>
<defs>
<path id="path0_fill" fill-rule="evenodd" d="M 8.49994 0C 13.0715 0 16.7214 4.44067 16.873 4.62939C 17.0422 4.84058 17.0422 5.15942 16.873 5.37061C 16.7211 5.55933 13.0715 10 8.49994 10C 3.92865 10 0.278748 5.55933 0.126892 5.37061C -0.0422974 5.15942 -0.0422974 4.84058 0.126892 4.62939C 0.278748 4.44067 3.92841 0 8.49994 0ZM 5.01361 5C 5.01361 7.14404 6.57782 8.88892 8.49994 8.88892C 10.4221 8.88892 11.9863 7.14404 11.9863 5C 11.9863 2.85596 10.4221 1.11108 8.49994 1.11108C 6.57782 1.11108 5.01361 2.85596 5.01361 5Z"/>
<path id="path1_fill" d="M 3.02578 1.8C 3.02578 1.1964 3.27763 0.6654 3.66076 0.3388C 3.31696 0.1294 2.93349 0 2.52148 0C 1.1312 0 0 1.34588 0 3C 0 4.65412 1.1312 6 2.52148 6C 3.76622 6 4.79647 4.91864 5 3.50568C 3.98448 3.89468 3.02578 2.98088 3.02578 1.8Z"/>
<path id="path2_fill" d="M 5.33333 0C 8.2788 0 10.6667 2.11655 10.6667 4.72727C 10.6667 5.68945 10.3415 6.58382 9.78464 7.33055C 9.85784 8.19327 10.0682 9.40836 10.6667 10C 10.6667 10 8.83807 9.74636 7.59963 9.00691C 7.59834 9.00745 7.59687 9.008 7.59559 9.00855C 7.08726 8.68109 6.57821 8.34382 6.47283 8.25836C 6.41766 8.18182 6.31117 8.15873 6.22823 8.208C 6.17379 8.24036 6.1394 8.29945 6.1383 8.36218C 6.13646 8.47527 6.13922 8.50473 7.16543 9.166C 6.59384 9.35145 5.97738 9.45455 5.33333 9.45455C 2.38786 9.45455 0 7.338 0 4.72727C 0 2.11655 2.38786 0 5.33333 0Z"/>
<path id="path3_fill" fill-rule="evenodd" d="M 7.49414 0.999268L 7.99377 0.999268C 8.54578 0.999268 8.99292 1.44629 8.99304 1.99854L 8.99304 8.99292C 8.99304 9.54517 8.54578 9.99219 7.99377 9.99219L 0.999268 9.99219C 0.447144 9.99219 0 9.54492 0 8.99292L 0.00500488 1.99854C 0.00500488 1.44629 0.447144 0.999268 0.999268 0.999268L 1.49878 0.999268L 1.49878 0L 2.49805 0L 2.49805 0.999268L 6.495 0.999268L 6.495 0L 7.49414 0L 7.49414 0.999268ZM 0.999268 8.99292L 7.99377 8.99292L 7.99377 3.49731L 0.999268 3.49731L 0.999268 8.99292Z"/>
<path id="path4_fill" d="M 4.55644 0.529578L 4.02686 0L 1.58876 2.4381L 0.529602 1.37892L 0 1.9085L 1.58876 3.49726L 4.55644 0.529578Z"/>
</defs>
</svg>
