<svg width="32" height="25" viewBox="0 0 32 25" version="1.1" xmlns="http://www.w3.org/2000/svg" xmlns:xlink="http://www.w3.org/1999/xlink">
<title>best</title>
<desc>Created using Figma</desc>
<g id="Canvas" transform="translate(-920 -1529)">
<g id="best">
<g id="Group">
<g id="Group">
<g id="Vector">
<use xlink:href="#path0_fill" transform="translate(920 1529)" fill="#20929C"/>
</g>
</g>
</g>
<g id="Group">
<g id="Group">
<g id="Vector">
<use xlink:href="#path1_fill" transform="translate(940.54 1536.52)" fill="#20929C"/>
</g>
</g>
</g>
<g id="Group">
<g id="Group">
<g id="Vector">
<use xlink:href="#path2_fill" transform="translate(944.047 1548.55)" fill="#20929C"/>
</g>
</g>
</g>
<g id="Group">
<g id="Group">
<g id="Vector">
<use xlink:href="#path3_fill" transform="translate(925.511 1548.55)" fill="#20929C"/>
</g>
</g>
</g>
<g id="Group">
<g id="Group">
<g id="Vector">
<use xlink:href="#path4_fill" transform="translate(940.54 1544.04)" fill="#20929C"/>
</g>
</g>
</g>
<g id="Group">
<g id="Group">
<g id="Vector">
<use xlink:href="#path5_fill" transform="translate(942.796 1538.52)" fill="#20929C"/>
</g>
</g>
</g>
<g id="Group">
<g id="Group">
<g id="Vector">
<use xlink:href="#path6_fill" transform="translate(944.048 1539.53)" fill="#20929C"/>
</g>
</g>
</g>
<g id="Group">
<g id="Group">
<g id="Vector">
<use xlink:href="#path7_fill" transform="translate(925.024 1531.79)" fill="#20929C"/>
</g>
</g>
</g>
<g id="Group">
<g id="Group">
<g id="Vector">
<use xlink:href="#path8_fill" transform="translate(924.008 1542.03)" fill="#20929C"/>
</g>
</g>
</g>
<g id="Group">
<g id="Group">
<g id="Vector">
<use xlink:href="#path9_fill" transform="translate(931.021 1542.03)" fill="#20929C"/>
</g>
</g>
</g>
<g id="Group">
<g id="Group">
<g id="Vector">
<use xlink:href="#path10_fill" transform="translate(924.008 1544.04)" fill="#20929C"/>
</g>
</g>
</g>
<g id="Group">
<g id="Group">
<g id="Vector">
<use xlink:href="#path11_fill" transform="translate(928.517 1544.04)" fill="#20929C"/>
</g>
</g>
</g>
</g>
</g>
<defs>
<path id="path0_fill" d="M 31.9502 13.2924L 28.4433 6.27486C 28.3638 6.11571 28.2011 6.01509 28.0233 6.01509L 19.9764 6.01509L 19.9764 0.469944C 19.9764 0.210365 19.7661 7.25188e-08 19.5067 7.25188e-08L 6.23084 7.25188e-08C 5.9714 7.25188e-08 5.76115 0.210365 5.76115 0.469944C 5.76115 0.729523 5.9714 0.939887 6.23084 0.939887L 19.0371 0.939887L 19.0371 18.0451L 0.939307 18.0451L 0.939307 0.939887L 3.97648 0.939887C 4.23591 0.939887 4.44616 0.729523 4.44616 0.469944C 4.44616 0.210365 4.23591 7.25188e-08 3.97648 7.25188e-08L 0.469685 7.25188e-08C 0.210249 6.26066e-05 0 0.210365 0 0.469944L 0 21.5225C 0 21.7821 0.210249 21.9925 0.469685 21.9925L 4.04048 21.9925C 4.2706 23.6883 5.72634 25 7.48339 25C 9.24045 25 10.6962 23.6883 10.9263 21.9925L 22.5766 21.9925C 22.8067 23.6883 24.2625 25 26.0195 25C 27.7766 25 29.2323 23.6883 29.4625 21.9925L 31.5303 21.9925C 31.7898 21.9925 32 21.7821 32 21.5225L 32 13.5025C 31.9998 13.4296 31.9828 13.3577 31.9502 13.2924ZM 0.939307 21.0526L 0.939307 18.9849L 5.11053 18.9849C 4.54066 19.5187 4.15041 20.2415 4.04041 21.0526L 0.939307 21.0526ZM 7.48333 24.0601C 6.08484 24.0601 4.94716 22.9217 4.94716 21.5225C 4.94716 20.1233 6.0849 18.985 7.48333 18.985C 8.88182 18.985 10.0195 20.1233 10.0195 21.5225C 10.0195 22.9217 8.88182 24.0601 7.48333 24.0601ZM 10.9262 21.0526C 10.8161 20.2415 10.4259 19.5187 9.85607 18.9849L 23.6467 18.9849C 23.0768 19.5187 22.6866 20.2415 22.5766 21.0526L 10.9262 21.0526ZM 26.0194 24.0601C 24.6209 24.0601 23.4832 22.9217 23.4832 21.5225C 23.4832 20.1233 24.621 18.985 26.0194 18.985C 27.4179 18.985 28.5556 20.1233 28.5556 21.5225C 28.5556 22.9217 27.4179 24.0601 26.0194 24.0601ZM 31.0605 21.0526L 29.4623 21.0526C 29.3523 20.2415 28.962 19.5187 28.3922 18.9849L 31.0605 18.9849L 31.0605 21.0526ZM 31.0605 18.0451L 19.9764 18.0451L 19.9764 6.95492L 27.733 6.95492L 31.0604 13.6135L 31.0604 18.0451L 31.0605 18.0451Z"/>
<path id="path1_fill" d="M 9.90932 6.27892L 6.97652 0.263894C 6.89783 0.102431 6.73396 7.63355e-08 6.55446 7.63355e-08L 0.469686 7.63355e-08C 0.21025 7.63355e-08 -1.06811e-07 0.210365 -1.06811e-07 0.469944L -1.06811e-07 6.48497C -1.06811e-07 6.74455 0.21025 6.95491 0.469686 6.95491L 9.48726 6.95491C 9.64919 6.95491 9.79976 6.87137 9.8855 6.73398C 9.97132 6.59647 9.98038 6.4245 9.90932 6.27892ZM 0.939306 6.01497L 0.939306 0.939762L 6.2609 0.939762L 8.73545 6.01497L 0.939306 6.01497Z"/>
<path id="path2_fill" d="M 1.97261 7.63355e-08C 0.884932 7.63355e-08 4.42502e-07 0.885421 4.42502e-07 1.9737C 4.42502e-07 3.06198 0.884932 3.9474 1.97261 3.9474C 3.06029 3.9474 3.94523 3.06198 3.94523 1.9737C 3.94523 0.885421 3.06029 7.63355e-08 1.97261 7.63355e-08ZM 1.97261 3.00751C 1.40287 3.00751 0.93937 2.5437 0.93937 1.9737C 0.93937 1.4037 1.40293 0.939887 1.97261 0.939887C 2.5423 0.939887 3.00586 1.4037 3.00586 1.9737C 3.00586 2.5437 2.54236 3.00751 1.97261 3.00751Z"/>
<path id="path3_fill" d="M 1.97261 7.63355e-08C 0.884932 7.63355e-08 -1.83104e-07 0.885421 -1.83104e-07 1.9737C -1.83104e-07 3.06198 0.884932 3.9474 1.97261 3.9474C 3.06029 3.9474 3.94523 3.06198 3.94523 1.9737C 3.94523 0.885421 3.06029 7.63355e-08 1.97261 7.63355e-08ZM 1.97261 3.00751C 1.40287 3.00751 0.93937 2.5437 0.93937 1.9737C 0.93937 1.4037 1.40293 0.939887 1.97261 0.939887C 2.54236 0.939887 3.00586 1.4037 3.00586 1.9737C 3.00586 2.5437 2.54236 3.00751 1.97261 3.00751Z"/>
<path id="path4_fill" d="M 1.47162 6.25951e-07L 0.469686 6.25951e-07C 0.21025 6.25951e-07 -1.06811e-07 0.210364 -1.06811e-07 0.469943C -1.06811e-07 0.729522 0.21025 0.939888 0.469686 0.939888L 1.47162 0.939888C 1.73105 0.939888 1.9413 0.729522 1.9413 0.469943C 1.9413 0.210364 1.73105 6.25951e-07 1.47162 6.25951e-07Z"/>
<path id="path5_fill" d="M 2.05266 0.137606C 1.86916 -0.0458691 1.57185 -0.0458691 1.38842 0.137606L 0.135986 1.39073C -0.0349503 1.56182 -0.0463869 1.84441 0.11105 2.02839C 0.286611 2.23362 0.609233 2.24638 0.800295 2.0554L 2.05273 0.80228C 2.23597 0.61868 2.23597 0.321206 2.05266 0.137606Z"/>
<path id="path6_fill" d="M 1.80223 0.137614C 1.61873 -0.045861 1.32142 -0.0458605 1.13792 0.137552L 0.135986 1.14004C -0.0349506 1.31113 -0.0463872 1.59372 0.111049 1.7777C 0.286673 1.98293 0.609233 1.99569 0.800294 1.80471L 1.80223 0.802227C 1.98566 0.618627 1.98566 0.321089 1.80223 0.137614Z"/>
<path id="path7_fill" d="M 9.90609 3.59227C 9.84321 3.3986 9.66284 3.26753 9.4594 3.26753L 6.3668 3.26753L 5.41111 0.324739C 5.34824 0.131071 5.16786 -9.54194e-08 4.96443 -9.54194e-08C 4.76099 -9.54194e-08 4.58062 0.131071 4.51774 0.324739L 3.56206 3.26753L 0.469705 3.26753C 0.266268 3.26753 0.0858946 3.3986 0.02302 3.59227C -0.0398547 3.78581 0.0290197 3.99799 0.193581 4.11756L 2.6955 5.9363L 1.73982 8.87915C 1.6797 9.06431 1.74288 9.27286 1.89576 9.39337C 2.05907 9.52213 2.29432 9.52682 2.46257 9.4045L 4.96449 7.58582L 7.46641 9.4045C 7.64285 9.53282 7.89104 9.5205 8.05416 9.37573C 8.19247 9.25298 8.24622 9.05512 8.1891 8.87915L 7.23342 5.9363L 9.73534 4.11756C 9.90003 3.99805 9.96896 3.78588 9.90609 3.59227ZM 6.40548 5.37674C 6.24086 5.49637 6.17198 5.70849 6.23486 5.90209L 6.84929 7.79412L 5.24068 6.6248C 5.07793 6.50642 4.85137 6.50642 4.68862 6.6248L 3.08 7.79412L 3.69444 5.90209C 3.75731 5.70849 3.68844 5.49631 3.52381 5.37674L 1.91526 4.20736L 3.90356 4.20736C 4.107 4.20736 4.28737 4.07628 4.35024 3.88262L 4.96468 1.99065L 5.57911 3.88262C 5.64199 4.07628 5.82236 4.20736 6.0258 4.20736L 8.0141 4.20736L 6.40548 5.37674Z"/>
<path id="path8_fill" d="M 5.51072 -1.0687e-07L 0.469685 -1.0687e-07C 0.210249 -1.0687e-07 0 0.210365 0 0.469944C 0 0.729523 0.210249 0.939887 0.469685 0.939887L 5.51078 0.939887C 5.77022 0.939887 5.98047 0.729523 5.98047 0.469944C 5.98047 0.210365 5.77022 -1.0687e-07 5.51072 -1.0687e-07Z"/>
<path id="path9_fill" d="M 4.47747 -1.0687e-07L 0.469684 -1.0687e-07C 0.210248 -1.0687e-07 -3.66209e-07 0.210365 -3.66209e-07 0.469944C -3.66209e-07 0.729523 0.210248 0.939887 0.469684 0.939887L 4.47747 0.939887C 4.73691 0.939887 4.94716 0.729523 4.94716 0.469944C 4.94716 0.210365 4.73691 -1.0687e-07 4.47747 -1.0687e-07Z"/>
<path id="path10_fill" d="M 3.00586 6.25951e-07L 0.469685 6.25951e-07C 0.210249 6.25951e-07 0 0.210364 0 0.469943C 0 0.729522 0.210249 0.939888 0.469685 0.939888L 3.00586 0.939888C 3.26529 0.939888 3.47554 0.729522 3.47554 0.469943C 3.47554 0.210364 3.26529 6.25951e-07 3.00586 6.25951e-07Z"/>
<path id="path11_fill" d="M 6.98233 6.25951e-07L 0.469685 6.25951e-07C 0.210249 6.25951e-07 4.04356e-07 0.210364 4.04356e-07 0.469943C 4.04356e-07 0.729522 0.210249 0.939888 0.469685 0.939888L 6.98233 0.939888C 7.24177 0.939888 7.45202 0.729522 7.45202 0.469943C 7.45202 0.210364 7.24177 6.25951e-07 6.98233 6.25951e-07Z"/>
</defs>
</svg>
