<svg width="9" height="12" viewBox="0 0 9 12" version="1.1" xmlns="http://www.w3.org/2000/svg" xmlns:xlink="http://www.w3.org/1999/xlink">
<title>&#209;&#129;&#209;&#130;&#209;&#128;&#208;&#181;&#208;&#187;&#208;&#186;&#208;&#176;</title>
<desc>Created using Figma</desc>
<g id="Canvas" transform="translate(-2465 -55)">
<g id="&#209;&#129;&#209;&#130;&#209;&#128;&#208;&#181;&#208;&#187;&#208;&#186;&#208;&#176;">
<use xlink:href="#path0_stroke" transform="matrix(-6.12323e-17 1 1 6.12323e-17 2466 56)" fill="#B3B3B3"/>
</g>
</g>
<defs>
<path id="path0_stroke" d="M 0 0L 0 -0.5L -0.971595 -0.5L -0.406867 0.290619L 0 0ZM 10 0L 10.4069 0.290619L 10.9716 -0.5L 10 -0.5L 10 0ZM 5 7L 4.59313 7.29062L 5 7.86023L 5.40687 7.29062L 5 7ZM 0 0.5L 10 0.5L 10 -0.5L 0 -0.5L 0 0.5ZM 9.59313 -0.290619L 4.59313 6.70938L 5.40687 7.29062L 10.4069 0.290619L 9.59313 -0.290619ZM 5.40687 6.70938L 0.406867 -0.290619L -0.406867 0.290619L 4.59313 7.29062L 5.40687 6.70938Z"/>
</defs>
</svg>
