<svg width="16" height="16" viewBox="0 0 16 16" version="1.1" xmlns="http://www.w3.org/2000/svg" xmlns:xlink="http://www.w3.org/1999/xlink">
<title>Call</title>
<desc>Created using Figma</desc>
<g id="Canvas" transform="translate(-660 86)">
<g id="Call">
<g id="Shape">
<use xlink:href="#path0_fill" transform="translate(660 -86)" fill="#B3B3B3"/>
</g>
</g>
</g>
<defs>
<path id="path0_fill" fill-rule="evenodd" d="M 13.0002 0C 13.8265 0 14.5333 0.293411 15.1199 0.880127C 15.7065 1.46684 15.9999 2.17363 16 2.99998L 16 12.9999C 16 13.8262 15.7066 14.5329 15.1198 15.1198C 14.5331 15.7066 13.8265 16 13.0001 16L 3 16C 2.17371 16 1.46698 15.7066 0.880127 15.1198C 0.293396 14.5329 0 13.8262 0 12.9999L 0 2.99998C 0 2.17363 0.293396 1.46695 0.880127 0.880127C 1.46698 0.293411 2.17371 0 3 0L 13.0002 0ZM 12.1197 12.9784C 12.63 12.7422 12.9581 12.4643 13.104 12.1449C 13.257 11.7778 13.3335 11.427 13.3337 11.094C 13.3337 11.0176 13.327 10.9619 13.3132 10.9272C 13.2923 10.8717 13.1586 10.7694 12.912 10.62C 12.6653 10.4707 12.3581 10.2989 11.99 10.1044L 11.4381 9.80259C 11.4034 9.78146 11.3375 9.73652 11.2401 9.66683C 11.1429 9.59743 11.0563 9.54523 10.9799 9.51053C 10.9032 9.47583 10.8304 9.45857 10.761 9.45857C 10.6357 9.45857 10.4727 9.57142 10.2714 9.79694C 10.07 10.0227 9.87201 10.25 9.67761 10.4794C 9.48291 10.7085 9.33008 10.823 9.21936 10.823C 9.17053 10.823 9.11322 10.8108 9.04718 10.7866C 8.98108 10.7624 8.92743 10.7398 8.88568 10.719C 8.84412 10.6982 8.78491 10.6652 8.70862 10.6202C 8.63196 10.575 8.58325 10.5456 8.56256 10.5316C 7.87494 10.1496 7.28302 9.7105 6.78638 9.21384C 6.28992 8.71724 5.85065 8.1252 5.46875 7.43771C 5.45496 7.41684 5.42535 7.36828 5.38019 7.29181C 5.33514 7.21533 5.30212 7.15627 5.28125 7.11463C 5.26044 7.07304 5.23785 7.01923 5.21356 6.95312C 5.18921 6.88715 5.17706 6.8299 5.17706 6.78127C 5.17706 6.69097 5.24829 6.57466 5.39056 6.4324C 5.53296 6.29004 5.68915 6.15632 5.85931 6.03129C 6.02948 5.90625 6.18573 5.76904 6.32812 5.6197C 6.47046 5.47051 6.54175 5.34384 6.54175 5.23952C 6.54175 5.1701 6.52435 5.09716 6.48969 5.02077C 6.45502 4.94429 6.40277 4.8576 6.33337 4.76044C 6.26398 4.66314 6.21881 4.59728 6.198 4.56237C 6.17719 4.52084 6.12512 4.42175 6.04181 4.26563C 5.95844 4.10926 5.87158 3.95135 5.78131 3.79166C 5.69104 3.632 5.59906 3.46705 5.50531 3.29685C 5.41156 3.12669 5.32477 2.98611 5.24487 2.87498C 5.16498 2.76384 5.10767 2.70149 5.07288 2.68744C 5.03827 2.67358 4.9826 2.66657 4.90631 2.66657C 4.573 2.66657 4.22229 2.74297 3.85419 2.89581C 3.53473 3.04167 3.25696 3.36978 3.02081 3.88013C 2.78467 4.39056 2.66656 4.84367 2.66656 5.23952C 2.66656 5.35055 2.67523 5.46877 2.69257 5.5938C 2.70996 5.71883 2.72723 5.82468 2.74463 5.91136C 2.76202 5.99827 2.79321 6.11275 2.83832 6.25516C 2.88348 6.39742 2.91827 6.49986 2.94244 6.56236C 2.96674 6.62479 3.01025 6.73946 3.07269 6.90601C 3.13531 7.0726 3.17352 7.1768 3.18732 7.21851C 3.604 8.3572 4.35577 9.46996 5.4425 10.557C 6.5293 11.6437 7.64233 12.3953 8.78119 12.8122C 8.82263 12.8258 8.92688 12.864 9.09363 12.9267C 9.26013 12.9892 9.37463 13.0326 9.43732 13.0568C 9.49963 13.0811 9.60211 13.1159 9.74463 13.161C 9.88684 13.2062 10.0016 13.2374 10.0883 13.2547C 10.1752 13.2721 10.2809 13.2893 10.4059 13.3068C 10.5308 13.3242 10.6489 13.3328 10.7601 13.3328C 11.156 13.3328 11.6093 13.2147 12.1197 12.9784Z"/>
</defs>
</svg>
