<svg width="200" height="200" viewBox="0 0 200 200" version="1.1" xmlns="http://www.w3.org/2000/svg" xmlns:xlink="http://www.w3.org/1999/xlink">
<title>call</title>
<desc>Created using Figma</desc>
<g id="Canvas" transform="translate(-27518 -2472)">
<g id="call">
<g id="Oval">
<use xlink:href="#path0_fill" transform="translate(27518 2472)" fill="#FFD15C"/>
</g>
<g id="Group">
<g id="Shape">
<use xlink:href="#path1_fill" transform="translate(27533.8 2472)" fill="#EF4152"/>
</g>
<g id="Shape">
<use xlink:href="#path2_fill" transform="translate(27658.1 2614.13)" fill="#EF4152"/>
</g>
</g>
<g id="Shape">
<use xlink:href="#path3_fill" transform="translate(27518 2478.8)" fill="#FF525D"/>
</g>
<g id="Shape">
<use xlink:href="#path4_fill" transform="translate(27518 2478.8)" fill="#EF4152"/>
</g>
<g id="Shape">
<use xlink:href="#path5_fill" transform="translate(27615.1 2478.8)" fill="#F9EED7"/>
</g>
<g id="Group">
<g id="Oval">
<use xlink:href="#path6_fill" transform="translate(27639.7 2517.89)" fill="#5C5E70"/>
</g>
<g id="Oval">
<use xlink:href="#path6_fill" transform="translate(27673.5 2517.89)" fill="#5C5E70"/>
</g>
<g id="Oval">
<use xlink:href="#path6_fill" transform="translate(27656.6 2517.89)" fill="#5C5E70"/>
</g>
</g>
</g>
</g>
<defs>
<path id="path0_fill" d="M 100 200C 155.228 200 200 155.228 200 100C 200 44.7715 155.228 0 100 0C 44.7715 0 0 44.7715 0 100C 0 155.228 44.7715 200 100 200Z"/>
<path id="path1_fill" d="M 0 6.75102L 12.6007 0.699396C 15.7954 -0.834934 19.6292 0.226301 21.587 3.18657L 22.7056 4.8782L 22.7013 4.88251L 51.307 48.1689C 52.9336 50.6303 52.8774 53.8429 51.1654 56.2456L 41.2802 70.1203L 40.9208 69.8616L 10.0764 44.9066L 0 6.75102Z"/>
<path id="path2_fill" d="M 42.1256 14.6422C 38.2568 20.3053 33.821 25.5469 28.9006 30.2817C 26.2752 32.8166 23.5152 35.2005 20.6288 37.4329L 0.26102 11.6041L 0 11.2319L 13.8368 1.32473C 16.2301 -0.388424 19.4341 -0.445555 21.8886 1.18582L 42.1256 14.6422Z"/>
<path id="path3_fill" d="M 168.932 165.37C 166.309 167.901 163.551 170.28 160.667 172.509C 152.546 178.782 143.43 183.836 133.601 187.379C 85.9976 156.672 38.4225 107.777 10.297 60.1518C 9.9996 59.6499 9.70645 59.1557 9.41721 58.6538L 7.44979 55.2783L 1.25868 44.6453C -0.199635 42.1433 -0.403121 39.0983 0.712932 36.4206L 15.8855 0L 30.0153 21.7719L 56.7682 63.0011L 57.1268 63.2624L 52.0759 70.3481C 49.8886 73.4177 49.7623 77.4994 51.75 80.6952C 59.8232 93.6505 71.0854 107.369 83.5616 119.871C 96.0378 132.378 109.728 143.663 122.656 151.745C 125.846 153.741 129.919 153.615 132.978 151.423L 140.057 146.353L 140.318 146.725L 168.932 165.37Z"/>
<path id="path4_fill" d="M 19.8425 60.1518C 19.5445 59.6499 19.2507 59.1557 18.9609 58.6538L 16.9893 55.2783L 10.7853 44.6453C 9.32396 42.1433 9.12005 39.0983 10.2384 36.4206L 21.7195 8.91851L 15.9186 0L 0.714419 36.4209C -0.403962 39.0987 -0.200052 42.1433 1.2613 44.6457L 7.46533 55.2787L 9.43686 58.6541C 9.72671 59.1561 10.0205 59.6503 10.3185 60.1522C 38.5027 107.777 86.177 156.672 133.88 187.379C 135.886 186.657 137.861 185.869 139.806 185.025C 93.3155 154.21 47.3181 106.58 19.8425 60.1518Z"/>
<path id="path5_fill" d="M 84.6859 0L 8.51803 0C 3.81377 0 0 3.83457 0 8.56447L 0 60.0353C 0 64.7652 3.81377 68.5998 8.51803 68.5998L 20.1032 68.5998L 13.4022 91.2621L 44.4698 68.5998L 84.6859 68.5998C 89.3901 68.5998 93.2039 64.7652 93.2039 60.0353L 93.2039 8.56369C 93.2035 3.83418 89.3901 0 84.6859 0Z"/>
<path id="path6_fill" d="M 5.6256 11.1076C 8.73254 11.1076 11.2512 8.62106 11.2512 5.55379C 11.2512 2.48651 8.73254 0 5.6256 0C 2.51867 0 0 2.48651 0 5.55379C 0 8.62106 2.51867 11.1076 5.6256 11.1076Z"/>
</defs>
</svg>
