<svg width="20" height="20" viewBox="0 0 20 20" version="1.1" xmlns="http://www.w3.org/2000/svg" xmlns:xlink="http://www.w3.org/1999/xlink">
<title>Capa_1</title>
<desc>Created using Figma</desc>
<g id="Canvas" transform="translate(3929 -1231)">
<g id="Capa_1">
<g id="Shape">
<use xlink:href="#path0_fill" transform="translate(-3929 1231)" fill="#86888B"/>
</g>
</g>
</g>
<defs>
<path id="path0_fill" fill-rule="evenodd" d="M 2.92432 2.92432C 6.82349 -0.974976 13.1677 -0.974609 17.0667 2.92432C 20.9653 6.82312 20.9653 13.1674 17.0667 17.0665C 13.1672 20.9658 6.82324 20.9658 2.92432 17.0665C -0.974609 13.1674 -0.974854 6.82349 2.92432 2.92432ZM 12.8513 13.9388C 13.1516 14.2393 13.6384 14.2393 13.939 13.9388C 14.2393 13.6384 14.2393 13.1516 13.939 12.8512L 11.083 9.99536L 13.8027 7.27576C 14.103 6.97546 14.103 6.48853 13.8027 6.18811C 13.5024 5.8877 13.0154 5.8877 12.7151 6.18811L 9.99536 8.90771L 7.13965 6.052C 6.83936 5.75159 6.35229 5.75159 6.052 6.052C 5.75171 6.35193 5.75171 6.83923 6.052 7.13965L 8.90771 9.99536L 5.91626 12.9869C 5.61572 13.2874 5.61572 13.7743 5.91626 14.0746C 6.21655 14.375 6.70361 14.375 7.00391 14.0746L 9.99536 11.0831L 12.8513 13.9388Z"/>
</defs>
</svg>
