<?xml version="1.0" encoding="UTF-8"?>
<svg width="14px" height="14px" viewBox="0 0 14 14" version="1.1" xmlns="http://www.w3.org/2000/svg" xmlns:xlink="http://www.w3.org/1999/xlink">
    <!-- Generator: sketchtool 46.2 (44496) - http://www.bohemiancoding.com/sketch -->
    <title>8EDF806F-75B7-492B-8317-473E42822E38</title>
    <desc>Created with sketchtool.</desc>
    <defs></defs>
    <g id="Page-1" stroke="none" stroke-width="1" fill="none" fill-rule="evenodd">
        <g id="Категория" transform="translate(-1069.000000, -422.000000)" fill-rule="nonzero" fill="#86888B">
            <g id="Результаты-фильтра-цены" transform="translate(1069.000000, 420.000000)">
                <g id="сброс" transform="translate(0.000000, 2.000000)">
                    <g id="Capa_1">
                        <path d="M11.9465769,2.04696154 C9.21738462,-0.682230769 4.77642308,-0.6825 2.04696154,2.04696154 C-0.6825,4.77642308 -0.682230769,9.21711538 2.04696154,11.9465769 C4.77615385,14.6760385 9.21711538,14.6760385 11.9465769,11.9465769 C14.6757692,9.21711538 14.6757692,4.77615385 11.9465769,2.04696154 Z M9.75719231,9.75719231 C9.54692308,9.96746154 9.20607692,9.96746154 8.99580769,9.75719231 L6.99676923,7.75815385 L4.90269231,9.85223077 C4.69242308,10.0625 4.35157692,10.0625 4.14130769,9.85223077 C3.93103846,9.64196154 3.93103846,9.30111538 4.14130769,9.09084615 L6.23538462,6.99676923 L4.23634615,4.99773077 C4.02607692,4.78746154 4.02607692,4.44634615 4.23634615,4.23634615 C4.44661538,4.02607692 4.78746154,4.02607692 4.99773077,4.23634615 L6.99676923,6.23538462 L8.9005,4.33165385 C9.11076923,4.12138462 9.45161538,4.12138462 9.66188462,4.33165385 C9.87215385,4.54192308 9.87215385,4.88276923 9.66188462,5.09303846 L7.75815385,6.99676923 L9.75719231,8.99580769 C9.96746154,9.20607692 9.96746154,9.54692308 9.75719231,9.75719231 Z" id="Shape"></path>
                    </g>
                </g>
            </g>
        </g>
    </g>
</svg>