<?xml version="1.0" encoding="UTF-8"?>
<svg width="46px" height="391px" viewBox="0 0 46 391" version="1.1" xmlns="http://www.w3.org/2000/svg" xmlns:xlink="http://www.w3.org/1999/xlink">
    <!-- Generator: Sketch 47.1 (45422) - http://www.bohemiancoding.com/sketch -->
    <title>Group 2</title>
    <desc>Created with Sketch.</desc>
    <defs></defs>
    <g id="Page-1" stroke="none" stroke-width="1" fill="none" fill-rule="evenodd">
        <g id="Элементы" transform="translate(-1647.000000, -5509.000000)" fill-rule="nonzero" fill="#F7C333">
            <g id="Group-2" transform="translate(1647.000000, 5509.000000)">
                <g id="Contract" transform="translate(0.000000, 345.000000)">
                    <path d="M45.7189688,28.9732749 L41.8856055,25.147384 C41.5118555,24.7743626 40.9042422,24.7743626 40.5304922,25.147384 L25.1972188,40.4508577 C25.0189688,40.6306433 24.9173555,40.8736452 24.9173555,41.1280351 L24.9173555,44.9539259 C24.9173555,45.4818947 25.3467187,45.9104211 25.8757187,45.9104211 L29.709082,45.9104211 C29.9639687,45.9104211 30.2074453,45.8090058 30.3856953,45.6292203 L45.7190586,30.3257466 C46.0927188,29.9526355 46.0927188,29.3462963 45.7189688,28.9732749 Z M29.312332,43.9974308 L26.834082,43.9974308 L26.834082,41.5240117 L41.209082,27.1770331 L43.687332,29.6504522 L29.312332,43.9974308 Z" id="Shape"></path>
                    <path d="M41.8856055,32.8010487 L38.0522422,28.9751579 C37.6784922,28.6021365 37.0708789,28.6021365 36.6971289,28.9751579 C36.3233789,29.3481793 36.3233789,29.9546082 36.6971289,30.3276296 L40.5304922,34.1535205 C40.7183555,34.3390448 40.9636289,34.4328382 41.2089922,34.4328382 C41.4543555,34.4328382 41.6996289,34.3391345 41.8856055,34.1535205 C42.2593555,33.7804094 42.2593555,33.1740702 41.8856055,32.8010487 Z" id="Shape"></path>
                    <path d="M33.5423555,0 L12.459082,0 C12.2041953,0 11.9607187,0.101415205 11.780582,0.279317739 L0.280582031,11.7569006 C0.102332031,11.9366862 0.00071875,12.1796881 0.00071875,12.434078 L0.00071875,41.1280351 C0.00071875,41.6560039 0.430082031,42.0845302 0.959082031,42.0845302 L21.084082,42.0845302 C21.613082,42.0845302 22.0424453,41.6560039 22.0424453,41.1280351 C22.0424453,40.6000663 21.613082,40.17154 21.084082,40.17154 L1.91735547,40.17154 L1.91735547,12.8300546 L12.855832,1.91290058 L32.584082,1.91290058 L32.584082,27.737462 C32.584082,28.2654308 33.0134453,28.6939571 33.5424453,28.6939571 C34.0714453,28.6939571 34.5008086,28.2654308 34.5008086,27.737462 L34.5008086,0.956495127 C34.5007187,0.428526316 34.0713555,0 33.5423555,0 Z" id="Shape"></path>
                    <path d="M12.459082,0 C11.930082,0 11.5007187,0.428526316 11.5007187,0.956495127 L11.5007187,11.4775828 L0.959082031,11.4775828 C0.430082031,11.4775828 0.00071875,11.9061092 0.00071875,12.434078 C0.00071875,12.9620468 0.430082031,13.3905731 0.959082031,13.3905731 L12.459082,13.3905731 C12.988082,13.3905731 13.4174453,12.9620468 13.4174453,12.434078 L13.4174453,0.956495127 C13.4173555,0.428526316 12.988082,0 12.459082,0 Z" id="Shape"></path>
                    <path d="M24.1238555,12.4493216 C24.1181055,12.4493216 23.9244922,12.4167719 23.9187422,12.4167719 C21.5746289,12.0571111 21.0839922,11.4469162 21.0839922,10.9992904 C21.0839922,10.3354737 22.3413555,9.56459259 23.9608789,9.56459259 C25.5747422,9.56459259 26.7726289,10.2895634 26.8377656,10.9437856 C26.8914023,11.4678986 27.3610156,11.8486316 27.8881289,11.7988655 C28.4152422,11.7453333 28.7985156,11.2766355 28.7448789,10.7505497 C28.5666289,8.98300195 26.5100156,7.65160234 23.9608789,7.65160234 C21.2737422,7.65160234 19.1672656,9.12073294 19.1672656,10.9992008 C19.1672656,13.6237115 22.5252656,14.1383197 23.7998789,14.3334386 C23.8056289,14.3334386 23.9992422,14.3659883 24.0049922,14.3659883 C26.3433555,14.7236764 26.8339922,15.333961 26.8339922,15.7815867 C26.8339922,16.4454035 25.5766289,17.2162846 23.9571055,17.2162846 C22.3432422,17.2162846 21.1453555,16.4893411 21.0802188,15.8370916 C21.0284687,15.3129786 20.5761055,14.9379844 20.0298555,14.9820117 C19.5047187,15.0355439 19.1194687,15.5042417 19.1731055,16.0303275 C19.3513555,17.7959922 21.4079687,19.1292749 23.9571055,19.1292749 C26.6442422,19.1292749 28.7507188,17.6582612 28.7507188,15.7816764 C28.7507187,13.155193 25.396582,12.6425575 24.1238555,12.4493216 Z" id="Shape"></path>
                    <path d="M14.3757188,19.1292749 L4.79235547,19.1292749 C4.26335547,19.1292749 3.83399219,19.5578012 3.83399219,20.08577 C3.83399219,20.6137388 4.26335547,21.0422651 4.79235547,21.0422651 L14.3757188,21.0422651 C14.9047188,21.0422651 15.334082,20.6137388 15.334082,20.08577 C15.334082,19.5578012 14.9047187,19.1292749 14.3757188,19.1292749 Z" id="Shape"></path>
                    <path d="M25.8757187,26.7810565 L4.79235547,26.7810565 C4.26335547,26.7810565 3.83399219,27.2095828 3.83399219,27.7375517 C3.83399219,28.2655205 4.26335547,28.6939571 4.79235547,28.6939571 L25.8757187,28.6939571 C26.4047187,28.6939571 26.834082,28.2654308 26.834082,27.737462 C26.834082,27.2094932 26.4047187,26.7810565 25.8757187,26.7810565 Z" id="Shape"></path>
                    <path d="M12.459082,34.4327485 L4.79235547,34.4327485 C4.26335547,34.4327485 3.83399219,34.8612749 3.83399219,35.3892437 C3.83399219,35.9172125 4.26335547,36.3457388 4.79235547,36.3457388 L12.4589922,36.3457388 C12.9879922,36.3457388 13.4173555,35.9172125 13.4173555,35.3892437 C13.4173555,34.8612749 12.988082,34.4327485 12.459082,34.4327485 Z" id="Shape"></path>
                    <path d="M23.959082,5.73879142 C23.430082,5.73879142 23.0007188,6.16731774 23.0007188,6.69528655 L23.0007188,20.08577 C23.0007188,20.6137388 23.430082,21.0422651 23.959082,21.0422651 C24.488082,21.0422651 24.9174453,20.6137388 24.9174453,20.08577 L24.9174453,6.69528655 C24.9173555,6.16731774 24.488082,5.73879142 23.959082,5.73879142 Z" id="Shape"></path>
                </g>
                <g id="Bus" transform="translate(0.000000, 294.000000)">
                    <path d="M33.7333633,13.8 C33.7333633,12.4966367 32.7367266,11.5 31.4333633,11.5 L14.5666367,11.5 C13.2632734,11.5 12.2666367,12.4966367 12.2666367,13.8 L12.2666367,23 C12.2666367,24.3033633 13.2632734,25.3 14.5666367,25.3 L31.4332734,25.3 C32.7366367,25.3 33.7332734,24.3033633 33.7332734,23 L33.7332734,13.8 L33.7333633,13.8 Z M32.2,23 C32.2,23.46 31.8933633,23.7666367 31.4333633,23.7666367 L26.3733633,23.7666367 L28.9033633,21.2366367 C29.21,20.93 29.21,20.47 28.9033633,20.1632734 C28.5967266,19.8566367 28.1367266,19.8566367 27.83,20.1632734 L24.2266367,23.7666367 L19.4732734,23.7666367 L22.0032734,21.2366367 C22.3099102,20.93 22.3099102,20.47 22.0032734,20.1632734 C21.6966367,19.8565469 21.2366367,19.8566367 20.9299102,20.1632734 L17.3265469,23.7666367 L14.5665469,23.7666367 C14.1065469,23.7666367 13.7999102,23.46 13.7999102,23 L13.7999102,13.8 C13.7999102,13.34 14.1065469,13.0333633 14.5665469,13.0333633 L31.4331836,13.0333633 C31.8931836,13.0333633 32.1998203,13.34 32.1998203,13.8 L32.1998203,23 L32.2,23 Z" id="Shape"></path>
                    <path d="M44.62,13.11 L42.8566367,13.11 C42.09,13.11 41.4766367,13.7233633 41.4766367,14.49 L41.4766367,16.1 L40.6332734,16.1 L40.6332734,2.3 C40.6332734,0.996636719 39.6366367,0 38.3332734,0 L7.66663672,0 C6.36327344,0 5.36663672,0.996636719 5.36663672,2.3 L5.36663672,16.1 L4.52327344,16.1 L4.52327344,14.49 C4.52327344,13.7233633 3.90991016,13.11 3.14327344,13.11 L1.38,13.11 C0.613363281,13.11 0,13.7233633 0,14.49 L0,19.32 C0,20.0866367 0.613363281,20.7 1.38,20.7 L3.22,20.7 C3.98663672,20.7 4.6,20.0866367 4.52336328,19.32 L4.52336328,17.6333633 L5.36672656,17.6333633 L5.36672656,26.0667266 L4.6,26.0667266 C4.14,26.0667266 3.83336328,26.3733633 3.83336328,26.8333633 L3.83336328,36.0333633 C3.83336328,36.0463906 3.83453125,36.0588789 3.83498047,36.0717266 C3.83453125,36.0845742 3.83336328,36.0969727 3.83336328,36.1100898 L3.83336328,39.1000898 C3.83336328,40.4034531 4.83,41.4000898 6.13336328,41.4000898 L6.9,41.4000898 L6.9,42.9334531 C6.9,44.62 8.28,46 9.96663672,46 L13.0332734,46 C14.7199102,46 16.0999102,44.62 16.0999102,42.9333633 L16.0999102,41.4 L29.8999102,41.4 L29.8999102,42.9333633 C29.8999102,44.62 31.2799102,46 32.9665469,46 L36.0331836,46 C37.7198203,46 39.0998203,44.62 39.0998203,42.9333633 L39.0998203,41.4 L39.866457,41.4 C41.1698203,41.4 42.166457,40.4033633 42.166457,39.1 L42.166457,36.11 C42.166457,36.0969727 42.1652891,36.0844844 42.1648398,36.0716367 C42.1652891,36.0587891 42.166457,36.0463906 42.166457,36.0332734 L42.166457,26.8332734 C42.166457,26.3732734 41.8598203,26.0666367 41.3998203,26.0666367 L40.6331836,26.0666367 L40.6331836,17.6332734 L41.4765469,17.6332734 L41.4765469,19.3199102 C41.4765469,20.0865469 42.0899102,20.6999102 42.8565469,20.6999102 L44.6199102,20.6999102 C45.3865469,20.6999102 45.9999102,20.0865469 45.9999102,19.3199102 L45.9999102,14.4899102 C46,13.7233633 45.3866367,13.11 44.62,13.11 Z M3.06663672,19.1666367 L1.53336328,19.1666367 L1.53336328,14.5666367 L3.06672656,14.5666367 L3.06672656,19.1666367 L3.06663672,19.1666367 Z M14.5666367,42.9333633 C14.5666367,43.7767266 13.8766367,44.4667266 13.0332734,44.4667266 L9.96663672,44.4667266 C9.12327344,44.4667266 8.43327344,43.7767266 8.43327344,42.9333633 L8.43327344,41.4 L14.5666367,41.4 L14.5666367,42.9333633 L14.5666367,42.9333633 Z M37.5666367,42.9333633 C37.5666367,43.7767266 36.8766367,44.4667266 36.0332734,44.4667266 L32.9666367,44.4667266 C32.1232734,44.4667266 31.4332734,43.7767266 31.4332734,42.9333633 L31.4332734,41.4 L37.5666367,41.4 L37.5666367,42.9333633 Z M40.6333633,39.1 C40.6333633,39.56 40.3267266,39.8666367 39.8667266,39.8666367 L39.1,39.8666367 L29.9,39.8666367 L16.1,39.8666367 L6.9,39.8666367 L6.13336328,39.8666367 C5.67336328,39.8666367 5.36672656,39.56 5.36672656,39.1 L5.36672656,36.8766367 L40.6333633,36.8766367 L40.6333633,39.1 Z M40.6333633,35.2666367 L5.36663672,35.2666367 L5.36663672,27.6 L9.2,27.6 L9.96663672,27.6 L9.96663672,26.8333633 L9.96663672,10.58 C9.96663672,9.81336328 10.58,9.2 11.3466367,9.2 L34.6532734,9.2 C35.4199102,9.2 36.0332734,9.81336328 36.0332734,10.58 L36.0332734,26.8333633 L36.0332734,27.6 L36.7999102,27.6 L40.6332734,27.6 L40.6332734,35.2666367 L40.6333633,35.2666367 Z M37.5666367,26.0666367 L37.5666367,10.58 C37.5666367,8.97 36.2632734,7.66663672 34.6532734,7.66663672 L30.6666367,7.66663672 L30.6666367,5.36663672 C30.6666367,4.90663672 30.36,4.6 29.9,4.6 C29.44,4.6 29.1333633,4.90663672 29.1333633,5.36663672 L29.1333633,7.66663672 L26.8333633,7.66663672 L26.8333633,5.36663672 C26.8333633,4.90663672 26.5267266,4.6 26.0667266,4.6 C25.6067266,4.6 25.3000898,4.90663672 25.3000898,5.36663672 L25.3000898,7.66663672 L23,7.66663672 L23,5.36663672 C23,4.90663672 22.6933633,4.6 22.2333633,4.6 C21.7733633,4.6 21.4667266,4.90663672 21.4667266,5.36663672 L21.4667266,7.66663672 L19.1667266,7.66663672 L19.1667266,5.36663672 C19.1667266,4.90663672 18.8600898,4.6 18.4000898,4.6 C17.9400898,4.6 17.6334531,4.90663672 17.6334531,5.36663672 L17.6334531,7.66663672 L15.3334531,7.66663672 L15.3334531,5.36663672 C15.3334531,4.90663672 15.0268164,4.6 14.5668164,4.6 C14.1068164,4.6 13.8001797,4.90663672 13.8001797,5.36663672 L13.8001797,7.66663672 L11.3468164,7.66663672 C9.73681641,7.66663672 8.43345313,8.97 8.43345313,10.58 L8.43345313,26.0666367 L6.9,26.0666367 L6.9,2.3 C6.9,1.84 7.20663672,1.53336328 7.66663672,1.53336328 L38.3332734,1.53336328 C38.7932734,1.53336328 39.0999102,1.84 39.0999102,2.3 L39.0999102,26.0666367 L37.5666367,26.0666367 L37.5666367,26.0666367 Z M44.4666367,19.1666367 L42.9332734,19.1666367 L42.9332734,14.5666367 L44.4666367,14.5666367 L44.4666367,19.1666367 Z" id="Shape"></path>
                    <path d="M26.0666367,29.9 C26.5266367,29.9 26.8332734,29.5933633 26.8332734,29.1333633 C26.8332734,28.6733633 26.5266367,28.3667266 26.0666367,28.3667266 L19.9332734,28.3667266 C19.4732734,28.3667266 19.1666367,28.6733633 19.1666367,29.1333633 C19.1666367,29.5933633 19.4732734,29.9 19.9332734,29.9 L26.0666367,29.9 Z" id="Shape"></path>
                    <path d="M28.3666367,31.4333633 L17.6333633,31.4333633 C17.1733633,31.4333633 16.8667266,31.74 16.8667266,32.2 C16.8667266,32.66 17.1733633,32.9666367 17.6333633,32.9666367 L28.3667266,32.9666367 C28.8267266,32.9666367 29.1333633,32.66 29.1333633,32.2 C29.1333633,31.74 28.8266367,31.4333633 28.3666367,31.4333633 Z" id="Shape"></path>
                    <path d="M9.96663672,29.1333633 C8.66327344,29.1333633 7.66663672,30.13 7.66663672,31.4333633 C7.66663672,32.7367266 8.66327344,33.7333633 9.96663672,33.7333633 C11.27,33.7333633 12.2666367,32.7367266 12.2666367,31.4333633 C12.2666367,30.13 11.27,29.1333633 9.96663672,29.1333633 Z M9.96663672,32.2 C9.50663672,32.2 9.2,31.8933633 9.2,31.4333633 C9.2,30.9733633 9.50663672,30.6667266 9.96663672,30.6667266 C10.4266367,30.6667266 10.7332734,30.9733633 10.7332734,31.4333633 C10.7332734,31.8933633 10.4266367,32.2 9.96663672,32.2 Z" id="Shape"></path>
                    <path d="M33.7333633,31.4333633 C33.7333633,32.7367266 34.73,33.7333633 36.0333633,33.7333633 C37.3367266,33.7333633 38.3333633,32.7367266 38.3333633,31.4333633 C38.3333633,30.13 37.3367266,29.1333633 36.0333633,29.1333633 C34.73,29.1333633 33.7333633,30.13 33.7333633,31.4333633 Z M36.8,31.4333633 C36.8,31.8933633 36.4933633,32.2 36.0333633,32.2 C35.5733633,32.2 35.2667266,31.8933633 35.2667266,31.4333633 C35.2667266,30.9733633 35.5733633,30.6667266 36.0333633,30.6667266 C36.4933633,30.6666367 36.8,30.9733633 36.8,31.4333633 Z" id="Shape"></path>
                </g>
                <g id="Evacuatro" transform="translate(0.000000, 255.000000)">
                    <path d="M10.2976335,21.4232162 L9.92237037,21.4232162 C9.55087329,21.4232162 9.24985575,21.7316973 9.24985575,22.1124054 C9.24985575,22.4931135 9.55087329,22.8015946 9.92237037,22.8015946 L10.2976335,22.8015946 C10.6691306,22.8015946 10.9701481,22.4931135 10.9701481,22.1124054 C10.9701481,21.7316973 10.6690409,21.4232162 10.2976335,21.4232162 Z" id="Shape"></path>
                    <path d="M44.8619259,26.3271189 L44.8583392,26.3271189 L44.8583392,23.3406324 C44.8583392,22.9599243 44.5573216,22.6514432 44.1858246,22.6514432 L40.2098285,22.6514432 C39.898499,21.0790811 38.5393021,19.8919297 36.9144172,19.8919297 L25.5473957,19.8919297 L25.5473957,6.15684865 L29.8695127,6.15684865 C30.2410097,6.15684865 30.5420273,5.84836757 30.5420273,5.46765946 C30.5420273,5.08695135 30.2410097,4.77847027 29.8695127,4.77847027 L25.5473957,4.77847027 L25.5473957,3.49198378 C25.5473957,3.4612 25.5458713,3.43069189 25.545154,3.40009189 L34.3015634,3.40009189 L34.3015634,4.77847027 L32.6842105,4.77847027 C32.3127135,4.77847027 32.0116959,5.08695135 32.0116959,5.46765946 C32.0116959,5.84836757 32.3127135,6.15684865 32.6842105,6.15684865 L34.3015634,6.15684865 L34.3015634,6.77757838 C34.3015634,7.15828649 34.6025809,7.46676757 34.974078,7.46676757 L38.6373099,7.46676757 L38.6373099,9.36562162 L38.1608109,9.36562162 C37.6819805,9.36562162 37.2923704,9.76489189 37.2923704,10.2556865 L37.2923704,12.6107838 C37.2923704,13.1015784 37.6819805,13.5008486 38.1608109,13.5008486 L38.6373099,13.5008486 L38.6373099,14.5531027 C38.6373099,14.9338108 38.9383275,15.2422919 39.3098246,15.2422919 L39.3520585,15.2422919 C39.6867018,15.2422919 39.959115,15.5213676 39.959115,15.8644 C39.959115,16.0306324 39.8959883,16.1868486 39.7813918,16.3041946 C39.6667057,16.4217243 39.514269,16.4865081 39.3521481,16.4865081 L39.3099142,16.4865081 C38.9384172,16.4865081 38.6373996,16.7949892 38.6373996,17.1756973 C38.6373996,17.5564054 38.9384172,17.8648865 39.3099142,17.8648865 L39.3521481,17.8648865 C39.8733918,17.8648865 40.3635205,17.6568432 40.7325068,17.2789838 C41.1011345,16.9011243 41.3042339,16.3987514 41.3042339,15.8643081 C41.3042339,14.9872 40.7504405,14.2401189 39.9825185,13.9708757 L39.9825185,13.5008486 L40.4591072,13.5008486 C40.9380273,13.5008486 41.3276374,13.1015784 41.3276374,12.6107838 L41.3276374,10.2556865 C41.3276374,9.76489189 40.9380273,9.36562162 40.4591072,9.36562162 L39.9825185,9.36562162 L39.9825185,7.46676757 L43.0444327,7.46676757 C43.4159298,7.46676757 43.7169474,7.15828649 43.7169474,6.77757838 L43.7169474,6.15684865 L43.8929669,6.15684865 C44.4316959,6.15684865 44.9380546,5.94191351 45.3180702,5.55256757 C45.7001481,5.16257838 45.9105107,4.64292973 45.9105107,4.08928108 C45.9105107,2.94927027 45.0053957,2.02171351 43.8929669,2.02171351 L43.7169474,2.02171351 L43.7169474,1.26406486 C43.7169474,0.883356757 43.4159298,0.574875676 43.0444327,0.574875676 L34.9742573,0.574875676 C34.6027602,0.574875676 34.3017427,0.883356757 34.3017427,1.26406486 L34.3017427,2.02171351 L25.2252164,2.02171351 C24.6858596,0.855054054 23.5259961,0.0460378378 22.1848226,0.0460378378 C20.8436491,0.0460378378 19.6837856,0.855054054 19.1444288,2.02171351 L17.5302144,2.02171351 C16.9905887,2.02171351 16.4838713,2.23738378 16.1051111,2.62700541 C15.7230331,3.01699459 15.5126706,3.53636757 15.5126706,4.08928108 C15.5126706,5.22929189 16.4177856,6.15684865 17.5302144,6.15684865 L18.8222495,6.15684865 L18.8222495,6.57036216 C18.8222495,6.95107027 19.1232671,7.25955135 19.4947641,7.25955135 C19.8662612,7.25955135 20.1672788,6.95107027 20.1672788,6.57036216 L20.1672788,5.46940541 C20.1672788,5.46876216 20.1673684,5.46821081 20.1673684,5.46765946 C20.1673684,5.46710811 20.1672788,5.46646486 20.1672788,5.46591351 L20.1672788,3.49198378 C20.1672788,2.35197297 21.0723938,1.42441622 22.1848226,1.42441622 C23.2972515,1.42441622 24.2023665,2.35197297 24.2023665,3.49198378 L24.2023665,22.6514432 L22.8573372,22.6514432 L22.8573372,11.4071838 C22.8573372,11.0264757 22.5563197,10.7179946 22.1848226,10.7179946 C21.8133255,10.7179946 21.512308,11.0264757 21.512308,11.4071838 L21.512308,22.6514432 L20.1672788,22.6514432 L20.1672788,9.37306486 C20.1672788,8.99235676 19.8662612,8.68387568 19.4947641,8.68387568 C19.1232671,8.68387568 18.8222495,8.99235676 18.8222495,9.37306486 L18.8222495,22.6514432 L16.6469786,22.6514432 L16.6473372,10.0280703 C16.6473372,9.5222973 16.2457115,9.1108973 15.7522651,9.1108973 L5.03937622,9.1108973 C4.66787914,9.1108973 4.3668616,9.41937838 4.3668616,9.80008649 L4.3668616,12.5568432 C4.3668616,12.9375514 4.66787914,13.2460324 5.03937622,13.2460324 L5.76927875,13.2460324 L5.76927875,18.0568486 L3.4988694,18.0568486 L3.47107212,18.0568486 C2.06982066,18.0568486 0.929863548,19.2255297 0.929863548,20.6619838 L0.929863548,20.6896432 L0.929863548,26.3348378 C0.399832359,26.3997135 0,26.8953784 0,27.5171189 L0,29.2722541 C0,29.939573 0.460448343,30.4622541 1.04822612,30.4622541 L5.68167251,30.4622541 C6.18175439,32.4673351 7.95916569,33.9541459 10.0693372,33.9541459 C12.1795088,33.9541459 13.9569201,32.4673351 14.4570019,30.4622541 L15.3930526,30.4622541 C15.7645497,30.4622541 16.0655673,30.153773 16.0655673,29.7730649 C16.0655673,29.3923568 15.7645497,29.0838757 15.3930526,29.0838757 L14.5918635,29.0838757 C14.5688187,28.6015351 14.4734113,28.1384919 14.3168499,27.7054973 L24.1572632,27.7054973 C24.0007018,28.1384919 23.9052943,28.6015351 23.8822495,29.0838757 L18.202729,29.0838757 C17.831232,29.0838757 17.5302144,29.3923568 17.5302144,29.7730649 C17.5302144,30.153773 17.831232,30.4622541 18.202729,30.4622541 L24.0172008,30.4622541 C24.5172827,32.4673351 26.294694,33.9541459 28.4048655,33.9541459 C30.515037,33.9541459 32.2924483,32.4673351 32.7925302,30.4622541 L33.8261404,30.4622541 C34.3262222,32.4673351 36.1036335,33.9541459 38.2138051,33.9541459 C40.3239766,33.9541459 42.1013879,32.4673351 42.6014698,30.4622541 L44.8619259,30.4622541 C45.4497934,30.4622541 45.910152,29.939573 45.910152,29.2722541 L45.910152,27.5171189 C45.910152,26.8498 45.4497037,26.3271189 44.8619259,26.3271189 Z M43.716768,3.40009189 L43.8927875,3.40009189 C44.2636569,3.40009189 44.5653021,3.70921622 44.5653021,4.08928108 C44.5653021,4.27370811 44.4954503,4.44655676 44.3676725,4.57695135 C44.2408811,4.70697838 44.0722144,4.77847027 43.8927875,4.77847027 L43.716768,4.77847027 L43.716768,3.40009189 Z M39.9824288,12.1223784 L39.9824288,12.1223784 L38.6373996,12.1223784 L38.6373996,10.744 L39.3081209,10.744 C39.3087485,10.744 39.3092865,10.7440919 39.3098246,10.7440919 C39.3103626,10.7440919 39.3109903,10.744 39.3115283,10.744 L39.9824288,10.744 L39.9824288,12.1223784 L39.9824288,12.1223784 Z M35.6465926,6.08838919 L35.6465926,1.95325405 L42.3717388,1.95325405 L42.3717388,6.08838919 L35.6465926,6.08838919 L35.6465926,6.08838919 Z M18.8223392,3.49198378 L18.8223392,4.77847027 L17.5302144,4.77847027 C17.159345,4.77847027 16.8576998,4.46934595 16.8576998,4.08928108 C16.8576998,3.9054973 16.9275517,3.73301622 17.0562261,3.60161081 C17.1825692,3.47167568 17.3508772,3.40009189 17.5302144,3.40009189 L18.8245809,3.40009189 C18.8237739,3.43069189 18.8223392,3.4612 18.8223392,3.49198378 Z M2.27489279,22.6514432 L3.61983236,22.6514432 L3.61983236,24.0298216 L2.27489279,24.0298216 L2.27489279,22.6514432 Z M5.54690058,29.0838757 L1.34502924,29.0838757 L1.34502924,27.7054973 L5.82191423,27.7054973 C5.66535283,28.1384919 5.56994542,28.6015351 5.54690058,29.0838757 Z M10.0694269,32.5757676 C8.31416374,32.5757676 6.88619103,31.1123892 6.88619103,29.3136973 C6.88619103,27.5149135 8.31416374,26.0515351 10.0694269,26.0515351 C11.8246901,26.0515351 13.2526628,27.5149135 13.2526628,29.3136973 C13.2526628,31.1123892 11.8246901,32.5757676 10.0694269,32.5757676 Z M15.3019493,23.3406324 L15.3019493,26.3271189 L13.5314425,26.3271189 C12.7002144,25.3166757 11.4570487,24.6731568 10.0694269,24.6731568 C8.68180507,24.6731568 7.43863938,25.3166757 6.60732164,26.3271189 L2.27489279,26.3271189 L2.27489279,25.4082 L3.87996101,25.4082 C4.47823002,25.4082 4.96495127,24.9162108 4.96495127,24.3113784 L4.96495127,22.3697946 C4.96495127,21.7650541 4.47823002,21.272973 3.87996101,21.272973 L2.27489279,21.272973 L2.27489279,20.6894595 C2.27489279,19.9978811 2.82393372,19.4351351 3.49877973,19.4351351 L15.3019493,19.4351351 L15.3019493,23.3406324 Z M15.302039,18.0568486 L7.11430799,18.0568486 L7.11430799,13.2459405 L15.302039,13.2459405 L15.302039,18.0568486 Z M15.302308,11.8569027 L5.71189084,11.8675622 L5.71189084,10.4891838 L15.302308,10.4891838 L15.302308,11.8569027 Z M25.5473957,21.2703081 L36.9145965,21.2703081 C37.7913762,21.2703081 38.5393021,21.8464703 38.8169162,22.6486865 L25.5473957,22.6486865 L25.5473957,21.2703081 Z M28.4048655,32.5757676 C26.6496023,32.5757676 25.2216296,31.1123892 25.2216296,29.3136973 C25.2216296,27.5149135 26.6496023,26.0515351 28.4048655,26.0515351 C30.1601287,26.0515351 31.5881014,27.5149135 31.5881014,29.3136973 C31.5881014,31.1123892 30.1602183,32.5757676 28.4048655,32.5757676 Z M33.6912788,29.0838757 L32.9273918,29.0838757 C32.904347,28.6015351 32.8089396,28.1384919 32.6523782,27.7054973 L33.9662924,27.7054973 C33.809731,28.1384919 33.7144133,28.6015351 33.6912788,29.0838757 Z M38.2138947,32.5757676 C36.4586316,32.5757676 35.0306589,31.1123892 35.0306589,29.3136973 C35.0306589,27.5149135 36.4586316,26.0515351 38.2138947,26.0515351 C39.9691579,26.0515351 41.3971306,27.5149135 41.3971306,29.3136973 C41.3971306,31.1123892 39.9691579,32.5757676 38.2138947,32.5757676 Z M38.2138947,24.6731568 C36.8262729,24.6731568 35.5831072,25.3166757 34.7517895,26.3271189 L31.8669708,26.3271189 C31.035653,25.3166757 29.7924873,24.6731568 28.4048655,24.6731568 C27.0172437,24.6731568 25.774078,25.3166757 24.9427602,26.3271189 L16.6469786,26.3271189 L16.6469786,24.0298216 L43.5134893,24.0298216 L43.5134893,26.3271189 L41.676,26.3271189 C40.8446823,25.3166757 39.6015166,24.6731568 38.2138947,24.6731568 Z M44.5653021,29.0838757 L42.7364211,29.0838757 C42.7133762,28.6015351 42.6179688,28.1384919 42.4614074,27.7054973 L44.1859142,27.7054973 L44.5653021,27.7054973 L44.5653021,29.0838757 Z" id="Shape"></path>
                    <ellipse id="Oval" cx="22.277271" cy="4.05344324" rx="1" ry="1"></ellipse>
                    <path d="M37.6832359,2.35518919 C37.3117388,2.35518919 37.0107212,2.66367027 37.0107212,3.04437838 L37.0107212,4.70991892 C37.0107212,5.09053514 37.3117388,5.39910811 37.6832359,5.39910811 C38.0547329,5.39910811 38.3557505,5.09062703 38.3557505,4.70991892 L38.3557505,3.04437838 C38.3557505,2.66367027 38.0547329,2.35518919 37.6832359,2.35518919 Z" id="Shape"></path>
                    <path d="M40.3541949,2.35518919 C39.9826979,2.35518919 39.6816803,2.66367027 39.6816803,3.04437838 L39.6816803,4.70991892 C39.6816803,5.09053514 39.9827875,5.39910811 40.3541949,5.39910811 C40.725692,5.39910811 41.0267096,5.09062703 41.0267096,4.70991892 L41.0267096,3.04437838 C41.0267096,2.66367027 40.725692,2.35518919 40.3541949,2.35518919 Z" id="Shape"></path>
                    <path d="M10.0694269,27.180427 C8.92157895,27.180427 7.98776998,28.1373892 7.98776998,29.3136973 C7.98776998,30.4900054 8.92157895,31.4469676 10.0694269,31.4469676 C11.2172749,31.4469676 12.1510838,30.4900054 12.1510838,29.3136973 C12.1510838,28.1373892 11.2172749,27.180427 10.0694269,27.180427 Z M10.0694269,30.0685892 C9.66331774,30.0685892 9.33279922,29.7298757 9.33279922,29.3136973 C9.33279922,28.8975189 9.66331774,28.5588054 10.0694269,28.5588054 C10.4755361,28.5588054 10.8060546,28.8975189 10.8060546,29.3136973 C10.8060546,29.7298757 10.4755361,30.0685892 10.0694269,30.0685892 Z" id="Shape"></path>
                    <path d="M38.2138947,27.180427 C37.0660468,27.180427 36.1322378,28.1373892 36.1322378,29.3136973 C36.1322378,30.4900054 37.0660468,31.4469676 38.2138947,31.4469676 C39.3617427,31.4469676 40.2955517,30.4900054 40.2955517,29.3136973 C40.2955517,28.1373892 39.3617427,27.180427 38.2138947,27.180427 Z M38.2138947,30.0685892 C37.8077856,30.0685892 37.4772671,29.7298757 37.4772671,29.3136973 C37.4772671,28.8975189 37.8077856,28.5588054 38.2138947,28.5588054 C38.6200039,28.5588054 38.9505224,28.8975189 38.9505224,29.3136973 C38.9505224,29.7298757 38.6200039,30.0685892 38.2138947,30.0685892 Z" id="Shape"></path>
                    <path d="M28.4048655,27.1564432 C27.2441949,27.1564432 26.2998051,28.1241568 26.2998051,29.3136973 C26.2998051,30.5032378 27.2441053,31.4708595 28.4048655,31.4708595 C29.5656257,31.4708595 30.5098363,30.5032378 30.5098363,29.3136973 C30.5098363,28.1241568 29.5656257,27.1564432 28.4048655,27.1564432 Z M28.4048655,30.0924811 C27.9857544,30.0924811 27.6448343,29.7431081 27.6448343,29.3136973 C27.6448343,28.8841946 27.9857544,28.5348216 28.4048655,28.5348216 C28.8238869,28.5348216 29.164807,28.8841946 29.164807,29.3136973 C29.164807,29.7431081 28.8238869,30.0924811 28.4048655,30.0924811 Z" id="Shape"></path>
                </g>
                <g id="List" transform="translate(0.000000, 204.000000)">
                    <path d="M31.6149254,1.58963283 L29.9402985,1.58963283 L29.9402985,0.745140389 C29.9402985,0.333524838 29.5995881,0 29.1791045,0 C28.7586209,0 28.4179104,0.333524838 28.4179104,0.745140389 L28.4179104,1.58963283 L25.0686567,1.58963283 L25.0686567,0.745140389 C25.0686567,0.333524838 24.7279463,0 24.3074627,0 C23.8869791,0 23.5462687,0.333524838 23.5462687,0.745140389 L23.5462687,1.58963283 L20.1970149,1.58963283 L20.1970149,0.745140389 C20.1970149,0.333524838 19.8563045,0 19.4358209,0 C19.0153373,0 18.6746269,0.333524838 18.6746269,0.745140389 L18.6746269,1.58963283 L15.3253731,1.58963283 L15.3253731,0.745140389 C15.3253731,0.333524838 14.9846627,0 14.5641791,0 C14.1436955,0 13.8029851,0.333524838 13.8029851,0.745140389 L13.8029851,1.58963283 L10.4537313,1.58963283 L10.4537313,0.745140389 C10.4537313,0.333524838 10.1130209,0 9.69253731,0 C9.27205373,0 8.93134328,0.333524838 8.93134328,0.745140389 L8.93134328,1.58963283 L5.58208955,1.58963283 L5.58208955,0.745140389 C5.58208955,0.333524838 5.2413791,0 4.82089552,0 C4.40041194,0 4.05970149,0.333524838 4.05970149,0.745140389 L4.05970149,1.58963283 L2.38507463,1.58963283 C1.06993433,1.58963283 0,2.63700216 0,3.92440605 L0,43.6652268 C0,44.9526307 1.06993433,46 2.38507463,46 L31.6149254,46 C32.9300657,46 34,44.9526307 34,43.6652268 L34,3.92440605 C34,2.63700216 32.9300657,1.58963283 31.6149254,1.58963283 Z M32.4776119,43.6652268 C32.4776119,44.1308898 32.0906209,44.5097192 31.6149254,44.5097192 L2.38507463,44.5097192 C1.9093791,44.5097192 1.52238806,44.1308898 1.52238806,43.6652268 L1.52238806,3.92440605 C1.52238806,3.45874298 1.9093791,3.07991361 2.38507463,3.07991361 L4.05970149,3.07991361 L4.05970149,3.92440605 C4.05970149,4.3360216 4.40041194,4.66954644 4.82089552,4.66954644 C5.2413791,4.66954644 5.58208955,4.3360216 5.58208955,3.92440605 L5.58208955,3.07991361 L8.93134328,3.07991361 L8.93134328,3.92440605 C8.93134328,4.3360216 9.27205373,4.66954644 9.69253731,4.66954644 C10.1130209,4.66954644 10.4537313,4.3360216 10.4537313,3.92440605 L10.4537313,3.07991361 L13.8029851,3.07991361 L13.8029851,3.92440605 C13.8029851,4.3360216 14.1436955,4.66954644 14.5641791,4.66954644 C14.9846627,4.66954644 15.3253731,4.3360216 15.3253731,3.92440605 L15.3253731,3.07991361 L18.6746269,3.07991361 L18.6746269,3.92440605 C18.6746269,4.3360216 19.0153373,4.66954644 19.4358209,4.66954644 C19.8563045,4.66954644 20.1970149,4.3360216 20.1970149,3.92440605 L20.1970149,3.07991361 L23.5462687,3.07991361 L23.5462687,3.92440605 C23.5462687,4.3360216 23.8869791,4.66954644 24.3074627,4.66954644 C24.7279463,4.66954644 25.0686567,4.3360216 25.0686567,3.92440605 L25.0686567,3.07991361 L28.4179104,3.07991361 L28.4179104,3.92440605 C28.4179104,4.3360216 28.7586209,4.66954644 29.1791045,4.66954644 C29.5995881,4.66954644 29.9402985,4.3360216 29.9402985,3.92440605 L29.9402985,3.07991361 L31.6149254,3.07991361 C32.0906209,3.07991361 32.4776119,3.45874298 32.4776119,3.92440605 L32.4776119,43.6652268 Z" id="Shape"></path>
                    <path d="M14.5641791,11.8228942 L25.9313433,11.8228942 C26.3518269,11.8228942 26.6925373,11.4893693 26.6925373,11.0777538 C26.6925373,10.6661382 26.3518269,10.3326134 25.9313433,10.3326134 L14.5641791,10.3326134 C14.1436955,10.3326134 13.8029851,10.6661382 13.8029851,11.0777538 C13.8029851,11.4893693 14.1436955,11.8228942 14.5641791,11.8228942 Z" id="Shape"></path>
                    <path d="M29.1791045,13.511879 L14.5641791,13.511879 C14.1436955,13.511879 13.8029851,13.8454039 13.8029851,14.2570194 C13.8029851,14.668635 14.1436955,15.0021598 14.5641791,15.0021598 L29.1791045,15.0021598 C29.5995881,15.0021598 29.9402985,14.668635 29.9402985,14.2570194 C29.9402985,13.8454039 29.5995881,13.511879 29.1791045,13.511879 Z" id="Shape"></path>
                    <path d="M10.7781015,9.75597408 L7.25671642,13.2032916 L5.35921194,11.3457063 C5.06183881,11.0548035 4.57995224,11.0548035 4.2826806,11.3457063 C3.98540896,11.6368078 3.98540896,12.1085313 4.2826806,12.3995335 L6.71850149,14.7839827 C6.86718806,14.9294341 7.06205373,15.0021598 7.25681791,15.0021598 C7.45158209,15.0021598 7.64644776,14.9294341 7.79513433,14.7839827 L11.8548358,10.8099006 C12.1521075,10.5187991 12.1521075,10.0470756 11.8548358,9.75607343 C11.5573612,9.46517063 11.0754746,9.46517063 10.7781015,9.75597408 Z" id="Shape"></path>
                    <path d="M14.5641791,19.7710583 L25.9313433,19.7710583 C26.3518269,19.7710583 26.6925373,19.4375335 26.6925373,19.0259179 C26.6925373,18.6143024 26.3518269,18.2807775 25.9313433,18.2807775 L14.5641791,18.2807775 C14.1436955,18.2807775 13.8029851,18.6143024 13.8029851,19.0259179 C13.8029851,19.4375335 14.1436955,19.7710583 14.5641791,19.7710583 Z" id="Shape"></path>
                    <path d="M29.1791045,21.4600432 L14.5641791,21.4600432 C14.1436955,21.4600432 13.8029851,21.793568 13.8029851,22.2051836 C13.8029851,22.6167991 14.1436955,22.950324 14.5641791,22.950324 L29.1791045,22.950324 C29.5995881,22.950324 29.9402985,22.6167991 29.9402985,22.2051836 C29.9402985,21.793568 29.5995881,21.4600432 29.1791045,21.4600432 Z" id="Shape"></path>
                    <path d="M10.7781015,17.7041382 L7.25671642,21.1514557 L5.35921194,19.2938704 C5.06183881,19.0029676 4.57995224,19.0029676 4.2826806,19.2938704 C3.98540896,19.5849719 3.98540896,20.0566955 4.2826806,20.3476976 L6.71850149,22.7321469 C6.86718806,22.8775983 7.06205373,22.950324 7.25681791,22.950324 C7.45158209,22.950324 7.64644776,22.8775983 7.79513433,22.7321469 L11.8548358,18.7580648 C12.1521075,18.4669633 12.1521075,17.9952397 11.8548358,17.7042376 C11.5573612,17.4133348 11.0754746,17.4133348 10.7781015,17.7041382 Z" id="Shape"></path>
                    <path d="M14.5641791,27.7192225 L25.9313433,27.7192225 C26.3518269,27.7192225 26.6925373,27.3856976 26.6925373,26.9740821 C26.6925373,26.5624665 26.3518269,26.2289417 25.9313433,26.2289417 L14.5641791,26.2289417 C14.1436955,26.2289417 13.8029851,26.5624665 13.8029851,26.9740821 C13.8029851,27.3856976 14.1436955,27.7192225 14.5641791,27.7192225 Z" id="Shape"></path>
                    <path d="M29.1791045,29.4082073 L14.5641791,29.4082073 C14.1436955,29.4082073 13.8029851,29.7417322 13.8029851,30.1533477 C13.8029851,30.5649633 14.1436955,30.8984881 14.5641791,30.8984881 L29.1791045,30.8984881 C29.5995881,30.8984881 29.9402985,30.5649633 29.9402985,30.1533477 C29.9402985,29.7417322 29.5995881,29.4082073 29.1791045,29.4082073 Z" id="Shape"></path>
                    <path d="M10.7781015,25.6523024 L7.25671642,29.0996199 L5.35921194,27.2420346 C5.06183881,26.9511317 4.57995224,26.9511317 4.2826806,27.2420346 C3.98540896,27.5331361 3.98540896,28.0048596 4.2826806,28.2958618 L6.71850149,30.680311 C6.86718806,30.8257624 7.06205373,30.8984881 7.25681791,30.8984881 C7.45158209,30.8984881 7.64644776,30.8257624 7.79513433,30.680311 L11.8548358,26.7062289 C12.1521075,26.4151274 12.1521075,25.9434039 11.8548358,25.6524017 C11.5573612,25.3614989 11.0754746,25.3614989 10.7781015,25.6523024 Z" id="Shape"></path>
                    <path d="M14.5641791,35.6673866 L25.9313433,35.6673866 C26.3518269,35.6673866 26.6925373,35.3338618 26.6925373,34.9222462 C26.6925373,34.5106307 26.3518269,34.1771058 25.9313433,34.1771058 L14.5641791,34.1771058 C14.1436955,34.1771058 13.8029851,34.5106307 13.8029851,34.9222462 C13.8029851,35.3338618 14.1436955,35.6673866 14.5641791,35.6673866 Z" id="Shape"></path>
                    <path d="M29.1791045,37.3563715 L14.5641791,37.3563715 C14.1436955,37.3563715 13.8029851,37.6898963 13.8029851,38.1015119 C13.8029851,38.5131274 14.1436955,38.8466523 14.5641791,38.8466523 L29.1791045,38.8466523 C29.5995881,38.8466523 29.9402985,38.5131274 29.9402985,38.1015119 C29.9402985,37.6898963 29.5995881,37.3563715 29.1791045,37.3563715 Z" id="Shape"></path>
                    <path d="M10.7781015,33.6004665 L7.25671642,37.047784 L5.35921194,35.1901987 C5.06183881,34.8992959 4.57995224,34.8992959 4.2826806,35.1901987 C3.98540896,35.4813002 3.98540896,35.9530238 4.2826806,36.2440259 L6.71850149,38.6284752 C6.86718806,38.7739266 7.06205373,38.8466523 7.25681791,38.8466523 C7.45158209,38.8466523 7.64644776,38.7739266 7.79513433,38.6284752 L11.8548358,34.6543931 C12.1521075,34.3632916 12.1521075,33.891568 11.8548358,33.6005659 C11.5573612,33.3096631 11.0754746,33.3096631 10.7781015,33.6004665 Z" id="Shape"></path>
                </g>
                <g id="waranty" transform="translate(0.000000, 153.000000)">
                    <path d="M43.9501754,16.047082 L40.1062612,15.2769414 C39.851692,14.464125 39.5252086,13.674668 39.1318324,12.9205195 L41.3064756,9.65218359 C41.9489513,8.68654297 41.8209045,7.39027734 41.0017817,6.56946484 L39.3536725,4.91813672 C38.5346394,4.09741406 37.2408109,3.96884766 36.276963,4.61284766 L33.0149981,6.79173828 C32.26223,6.39759375 31.4742222,6.07047266 30.6631696,5.81540625 L29.8943509,1.96398437 C29.6672203,0.825933594 28.6617661,0 27.5035166,0 L25.1725809,0 C24.0144211,0 23.0087875,0.825933594 22.7816569,1.96398437 L22.0128382,5.81540625 C21.2016959,6.07047266 20.4136881,6.39759375 19.6610097,6.79173828 L16.3990448,4.61284766 C15.4352865,3.96911719 14.1412788,4.09732422 13.3223353,4.91795703 L11.6741365,6.56946484 C10.855193,7.39009766 10.7271462,8.68645313 11.3696218,9.65200391 L13.5442651,12.9203398 C13.1508889,13.6745781 12.8244055,14.4640352 12.5698363,15.2767617 L8.72592203,16.0469922 C7.59017934,16.2746562 6.76576608,17.2820742 6.76576608,18.4426758 L6.76576608,20.7779844 C6.76576608,21.9384961 7.59008967,22.9460937 8.72592203,23.173668 L11.2146745,23.6723008 C11.6073333,23.7508242 11.9891423,23.4958477 12.0676023,23.1025117 C12.1460624,22.7091758 11.8914932,22.3265313 11.498924,22.247918 L9.01017154,21.7492852 C8.54981287,21.6571953 8.21561793,21.2485859 8.21561793,20.7781641 L8.21561793,18.4428555 C8.21561793,17.9724336 8.54981287,17.5638242 9.01017154,17.4716445 L13.2824327,16.6155234 C13.5500039,16.5618867 13.7648499,16.3622539 13.8383782,16.0989219 C14.1167992,15.1016563 14.5149279,14.13925 15.0213762,13.2382969 C15.1553411,13.0000313 15.1443119,12.7065117 14.9929513,12.4789375 L12.5759337,8.84628516 C12.3154464,8.45483594 12.3674542,7.92916016 12.6994971,7.59664844 L14.3476959,5.94514063 C14.6797388,5.61244922 15.2042105,5.56051953 15.5948967,5.82151563 L19.2204678,8.24316406 C19.4475088,8.39491016 19.7404561,8.40587109 19.978347,8.27173437 C20.8776335,7.76420703 21.8381637,7.36548047 22.8333957,7.08651563 C23.0962144,7.01284375 23.2953684,6.79766797 23.3489903,6.52948438 L24.2034425,2.24887891 C24.2955322,1.78753125 24.7031657,1.45268359 25.1726706,1.45268359 L27.5036062,1.45268359 C27.9731111,1.45268359 28.3808343,1.78753125 28.4728343,2.24887891 L29.3272865,6.52948438 C29.3808187,6.79766797 29.5800624,7.01284375 29.8428811,7.08651563 C30.8380234,7.36548047 31.7986433,7.76420703 32.6979298,8.27173438 C32.9358207,8.40587109 33.2286784,8.39491016 33.455809,8.24316406 L37.0814698,5.82142578 C37.4721559,5.56042969 37.9967173,5.61235938 38.3286706,5.94523047 L39.9767797,7.59655859 C40.3089123,7.92933984 40.3607407,8.45483594 40.1003431,8.84628516 L37.6833255,12.4789375 C37.5318752,12.7065117 37.520846,13.0000313 37.6549006,13.2382969 C38.1613489,14.13925 38.5593879,15.1016563 38.8378986,16.0989219 C38.9114269,16.3622539 39.1262729,16.5617969 39.3938441,16.6155234 L43.6661053,17.4716445 C44.1265536,17.5638242 44.4606589,17.9724336 44.4606589,18.4428555 L44.4606589,20.7781641 C44.4606589,21.2485859 44.1264639,21.6571953 43.6661053,21.749375 L39.3938441,22.6054961 C39.1262729,22.6591328 38.9114269,22.8587656 38.8378986,23.1220078 C38.5594776,24.1190937 38.1614386,25.0815 37.6549006,25.9826328 C37.5209357,26.2209883 37.5319649,26.514418 37.6833255,26.7419922 L40.1003431,30.3746445 C40.3608304,30.7660937 40.3088226,31.2917695 39.9767797,31.6242812 L38.3285809,33.2757891 C37.996538,33.6084805 37.4721559,33.6604102 37.0813801,33.3994141 L33.455809,30.9777656 C33.1227797,30.7552227 32.6726433,30.8453359 32.4506238,31.1791953 C32.2285146,31.512875 32.3186316,31.9638906 32.6516608,32.1863437 L36.277232,34.608082 C36.6880936,34.8825547 37.1587641,35.0166914 37.6273723,35.0166914 C38.2577427,35.0166914 38.884078,34.7737539 39.3538519,34.3029727 L41.0020507,32.6514648 C41.8209942,31.830832 41.9490409,30.5344766 41.3065653,29.5689258 L39.131922,26.3005898 C39.5252982,25.5462617 39.8517817,24.7568047 40.1063509,23.944168 L43.9502651,23.1740273 C45.0860078,22.9463633 45.9104211,21.9388555 45.9104211,20.7783437 L45.9104211,18.4430352 C45.9103314,17.2822539 45.0860078,16.2748359 43.9501754,16.047082 Z" id="Shape"></path>
                    <path d="M28.7543938,25.1789805 L21.9886277,25.1789805 C21.5882573,25.1789805 21.2637466,25.5040352 21.2637466,25.9052773 C21.2637466,26.3065195 21.588347,26.6315742 21.9886277,26.6315742 L28.7543938,26.6315742 C29.4206316,26.6315742 29.9625887,27.1745898 29.9625887,27.8421289 L29.9625887,28.8105547 C29.9625887,29.4780937 29.4206316,30.0211094 28.7543938,30.0211094 L21.9886277,30.0211094 C21.5882573,30.0211094 21.2637466,30.3462539 21.2637466,30.7474062 C21.2637466,31.1486484 21.588347,31.4737031 21.9886277,31.4737031 L28.7543938,31.4737031 C29.4206316,31.4737031 29.9625887,32.0167187 29.9625887,32.6842578 L29.9625887,33.6526836 C29.9625887,34.3202227 29.4206316,34.8632383 28.7543938,34.8632383 L21.9886277,34.8632383 C21.5882573,34.8632383 21.2637466,35.188293 21.2637466,35.5895352 C21.2637466,35.9907773 21.588347,36.315832 21.9886277,36.315832 L28.7543938,36.315832 C29.4206316,36.315832 29.9625887,36.8588477 29.9625887,37.5263867 L29.9625887,38.4948125 C29.9625887,39.1623516 29.4206316,39.7053672 28.7543938,39.7053672 L21.9886277,39.7053672 C21.5882573,39.7053672 21.2637466,40.0304219 21.2637466,40.4316641 C21.2637466,40.8329062 21.588347,41.1579609 21.9886277,41.1579609 L28.7543938,41.1579609 C29.4206316,41.1579609 29.9625887,41.7009766 29.9625887,42.3685156 L29.9625887,43.3369414 C29.9625887,44.0044805 29.4206316,44.5474961 28.7543938,44.5474961 L15.6233216,44.5474961 C14.9378947,44.5474961 14.2928187,44.2806602 13.8069942,43.7964023 C13.0400585,43.031832 12.0276998,42.6106445 10.9564288,42.6106445 L9.18206628,42.6106445 L9.18206628,34.6211992 C9.18206628,34.219957 8.85746589,33.8949023 8.45718519,33.8949023 C8.05690448,33.8949023 7.73230409,34.219957 7.73230409,34.6211992 L7.73230409,44.3053672 C7.73230409,44.438875 7.62389474,44.5474961 7.49064717,44.5474961 L5.31591423,44.5474961 L5.31591423,34.6210195 C5.31591423,34.2197773 4.99131384,33.8947227 4.59103314,33.8947227 C4.19075244,33.8947227 3.86615205,34.2197773 3.86615205,34.6210195 L3.86615205,44.5473164 L1.6914191,44.5473164 C1.55826121,44.5473164 1.44976218,44.4387852 1.44976218,44.3051875 L1.44976218,27.8421289 C1.44976218,27.7086211 1.55817154,27.6 1.6914191,27.6 L7.49064717,27.6 C7.62380507,27.6 7.73230409,27.7085313 7.73230409,27.8421289 L7.73230409,31.715832 C7.73230409,32.1170742 8.05690448,32.4421289 8.45718519,32.4421289 C8.85746589,32.4421289 9.18206628,32.1170742 9.18206628,31.715832 L9.18206628,29.5368516 L10.9298869,29.5368516 C12.0756725,29.5368516 13.0890175,28.8049844 13.4514581,27.7158984 L13.721271,26.9044297 C14.5573411,24.3919492 14.9812047,21.7749805 14.9812047,19.1262969 C14.9812047,18.4587578 15.5231618,17.9157422 16.1893996,17.9157422 C16.7703626,17.9157422 17.3164444,18.142418 17.7272164,18.5539922 C18.1379883,18.9655664 18.3641326,19.5127148 18.3641326,20.0948125 L18.3641326,27.8419492 C18.3641326,28.2431016 18.6887329,28.5682461 19.0890136,28.5682461 C19.489384,28.5682461 19.8138947,28.2431914 19.8138947,27.8419492 L19.8138947,20.0948125 C19.8138947,19.1247695 19.4369279,18.2126758 18.752308,17.5267188 C18.0676881,16.8407617 17.157462,16.4629688 16.1892203,16.4629688 C14.7235867,16.4629688 13.5312632,17.6577109 13.5312632,19.1261172 C13.5312632,21.6183828 13.1324172,24.0807305 12.3457544,26.4448789 L12.0757622,27.2563477 C11.9110409,27.7513867 11.4505029,28.0840781 10.9296179,28.0840781 L9.18206628,28.0840781 L9.18206628,27.8419492 C9.18206628,26.9074844 8.42320078,26.1472266 7.49064717,26.1472266 L1.6914191,26.1472266 C0.758865497,26.1474062 0,26.9076641 0,27.8421289 L0,44.3052773 C0,45.2396523 0.758865497,46 1.6914191,46 L7.49064717,46 C8.42329045,46 9.18206628,45.2396523 9.18206628,44.3052773 L9.18206628,44.0631484 L10.9563392,44.0631484 C11.6417661,44.0631484 12.2909669,44.3341172 12.7843236,44.8260117 C13.5437271,45.5830352 14.551961,46 15.623232,46 L28.7543938,46 C30.2200273,46 31.4123509,44.8052578 31.4123509,43.3368516 L31.4123509,42.3684258 C31.4123509,41.6061016 31.0909786,40.9175391 30.5769084,40.4315742 C31.0909786,39.9456094 31.4123509,39.2570469 31.4123509,38.4947227 L31.4123509,37.5262969 C31.4123509,36.7639727 31.0909786,36.0754102 30.5769084,35.5894453 C31.0909786,35.1034805 31.4123509,34.414918 31.4123509,33.6525938 L31.4123509,32.684168 C31.4123509,31.9218438 31.0909786,31.2332813 30.5769084,30.7473164 C31.0909786,30.2613516 31.4123509,29.5727891 31.4123509,28.8104648 L31.4123509,27.8420391 C31.4123509,26.3737227 30.2200273,25.1789805 28.7543938,25.1789805 Z" id="Shape"></path>
                    <path d="M26.3357622,23.3391602 C26.52577,23.3391602 26.7181988,23.3245156 26.9117037,23.2942383 C28.9389318,22.9770898 30.3306784,21.0667422 30.0142378,19.0357344 C29.6978869,17.0045469 27.7908148,15.6097227 25.7641248,15.9269609 C23.7368967,16.2441094 22.3451501,18.154457 22.6615906,20.1854648 C22.9478129,22.0226797 24.5351267,23.3390703 26.3357622,23.3391602 Z M25.9877583,17.362125 C27.2251852,17.1695898 28.3888148,18.0198711 28.581961,19.2595352 C28.7751072,20.4992891 27.9255867,21.6652812 26.6883392,21.8588945 C25.4510916,22.052418 24.2872827,21.2011484 24.0941365,19.9614844 C23.9009903,18.7217305 24.7505107,17.5557383 25.9877583,17.362125 Z" id="Shape"></path>
                    <path d="M32.8930487,26.6315742 C33.0839532,26.6315742 33.2744094,26.5565547 33.4168031,26.4075039 C35.5493021,24.1748867 36.4997895,21.1453555 36.0247251,18.0956992 C35.7833372,16.5464336 35.1990565,15.1207031 34.2877544,13.8583984 C34.0531813,13.5335234 33.6000858,13.4603906 33.2754854,13.6955117 C32.951154,13.9306328 32.8783431,14.3846133 33.1129162,14.7097578 C33.888729,15.7846484 34.3864795,16.9992461 34.5921793,18.3196797 C34.9969435,20.9184102 34.1867875,23.50025 32.3692943,25.4032305 C32.0924873,25.6929766 32.1025302,26.1527969 32.3918012,26.4301445 C32.5324016,26.5647305 32.7129045,26.6315742 32.8930487,26.6315742 Z" id="Shape"></path>
                    <path d="M32.3832827,12.7845859 C32.6243119,12.464293 32.5605575,12.008875 32.2407992,11.7674648 C30.1032788,10.152793 27.4698908,9.49082422 24.8260117,9.90500391 C21.7921637,10.3793789 19.2064795,12.2015 17.7318791,14.9042695 C17.539809,15.2562773 17.6689318,15.6975 18.0201637,15.8900352 C18.1305458,15.9505 18.2497154,15.97925 18.367271,15.9791602 C18.6237232,15.9791602 18.8722846,15.8425078 19.0039181,15.6011875 C20.2608031,13.2975937 22.4643197,11.7445547 25.0495556,11.3403477 C27.3025692,10.9877109 29.5465263,11.5516602 31.3679649,12.9275273 C31.6878129,13.1687578 32.1423431,13.1049687 32.3832827,12.7845859 Z" id="Shape"></path>
                </g>
                <g id="oil" transform="translate(0.000000, 102.000000)">
                    <path d="M32.5613176,11.1004527 L32.5613176,11.1004527 C32.5613176,9.87647973 31.5651689,8.88033108 30.3411959,8.88033108 L20.0252297,8.88033108 L32.5613176,18.5235473 L32.5613176,11.1004527 Z M31.0812365,15.5175405 L24.3765811,10.3602568 L30.3411959,10.3602568 C30.7489797,10.3602568 31.0812365,10.6925135 31.0812365,11.1002973 L31.0812365,15.5175405 Z" id="Shape"></path>
                    <path d="M26.6411486,28.1209189 L10.3604122,28.1209189 C8.32009459,28.1209189 6.66020946,29.7808041 6.66020946,31.8211216 L8.14029054,31.8211216 C8.14029054,30.5971486 9.13643919,29.601 10.3604122,29.601 L26.6411486,29.601 C27.8651216,29.601 28.8612703,30.5971486 28.8612703,31.8211216 L30.3413514,31.8211216 C30.3411959,29.7808041 28.6813108,28.1209189 26.6411486,28.1209189 Z" id="Shape"></path>
                    <path d="M26.6411486,23.6808311 L10.3604122,23.6808311 C9.13643919,23.6808311 8.14029054,22.6846824 8.14029054,21.4607095 L6.66020946,21.4607095 C6.66020946,23.501027 8.32009459,25.1609122 10.3604122,25.1609122 L26.6411486,25.1609122 C28.6814662,25.1609122 30.3413514,23.501027 30.3413514,21.4607095 L28.8612703,21.4607095 C28.8609595,22.6846824 27.8649662,23.6808311 26.6411486,23.6808311 Z" id="Shape"></path>
                    <path d="M42.7793784,28.4281554 C41.2031014,25.8328851 39.5735203,22.9407905 39.2168649,19.9807838 L37.7464189,19.9807838 C37.627223,20.7208243 37.3563514,21.9833378 37.002027,22.9564865 L37.002027,8.88033108 C37.002027,6.84001351 35.3421419,5.18012838 33.3018243,5.18012838 L16.2807365,5.18012838 L16.2807365,0 L2.96016216,0 L2.96016216,5.25487838 C1.2737027,5.59910135 0.000155405405,7.09394595 0.000155405405,8.88033108 L0.000155405405,42.1815338 C0.000155405405,44.2218514 1.66004054,45.8817365 3.70035811,45.8817365 L33.3013581,45.8817365 C34.8931757,45.8817365 36.241473,44.8656959 36.7623919,43.4522838 C37.3151689,43.5840676 37.8887703,43.6617703 38.4814865,43.6617703 C42.5619662,43.6617703 45.8817365,40.3626689 45.8817365,36.2821892 C45.8817365,33.5164392 44.3750811,31.0551284 42.7793784,28.4281554 Z M13.3204189,1.48008108 L14.8005,1.48008108 L14.8005,5.18012838 L13.3204189,5.18012838 L13.3204189,1.48008108 Z M10.3604122,1.48008108 L11.8404932,1.48008108 L11.8404932,5.18028378 L10.3604122,5.18028378 L10.3604122,1.48008108 Z M7.40040541,5.18012838 L7.40040541,1.48008108 L8.88048649,1.48008108 L8.88048649,5.18028378 L7.40040541,5.18012838 L7.40040541,5.18012838 Z M4.44008784,1.48008108 L5.92016892,1.48008108 L5.92016892,5.18028378 L4.44008784,5.18028378 L4.44008784,1.48008108 L4.44008784,1.48008108 Z M33.3013581,44.4015 L3.70035811,44.4015 C2.47638514,44.4015 1.48023649,43.4053514 1.48023649,42.1813784 L1.48023649,8.88033108 C1.48023649,7.65635811 2.47638514,6.66020946 3.70035811,6.66020946 L16.2807365,6.66020946 L33.3013581,6.66020946 C34.5253311,6.66020946 35.5214797,7.65635811 35.5214797,8.88033108 L35.5214797,26.1132365 C35.0908514,26.8843581 34.6364459,27.6407162 34.1834392,28.3866622 C32.5878919,31.0144122 31.0812365,33.4957703 31.0812365,36.2612095 C31.0812365,39.2302297 32.8424459,41.7885135 35.3712027,42.9666419 C35.0521554,43.8028784 34.247777,44.4015 33.3013581,44.4015 Z M38.4814865,42.1815338 C35.2171959,42.1815338 32.5613176,39.5256554 32.5613176,36.2613649 C32.5613176,33.9102365 33.9636959,31.6007568 35.4481284,29.1556081 C36.5330135,27.3684459 37.7170473,25.4191959 38.4814865,23.2301554 C39.2451486,25.4191959 40.4291824,27.3684459 41.5148446,29.1556081 C42.999277,31.6006014 44.4016554,33.9102365 44.4016554,36.2613649 C44.4015,39.5255 41.745777,42.1815338 38.4814865,42.1815338 Z" id="Shape"></path>
                    <path d="M41.4414932,36.2613649 L41.4414932,36.2613649 C41.4414932,37.8937432 40.1138649,39.2213716 38.4813311,39.2213716 L38.4813311,40.7014527 C40.9300541,40.7014527 42.9214189,38.7100878 42.9214189,36.2613649 L41.4414932,36.2613649 L41.4414932,36.2613649 Z" id="Shape"></path>
                    <rect id="Rectangle-path" x="3.70035811" y="8.88033108" width="1.48008108" height="1.48008108"></rect>
                    <rect id="Rectangle-path" x="6.66020946" y="8.88033108" width="1.48008108" height="1.48008108"></rect>
                    <rect id="Rectangle-path" x="9.62052703" y="8.88033108" width="1.48008108" height="1.48008108"></rect>
                    <rect id="Rectangle-path" x="3.70035811" y="40.7014527" width="1.48008108" height="1.48008108"></rect>
                    <rect id="Rectangle-path" x="6.66020946" y="40.7014527" width="1.48008108" height="1.48008108"></rect>
                </g>
                <g id="Driver" transform="translate(0.000000, 51.000000)">
                    <path d="M17.0644667,13.310505 L16.0584467,13.310505 C17.5749133,12.0895947 18.5484267,10.2239203 18.5484267,8.13420598 L18.5484267,5.50456478 C19.43132,4.99138206 20.0322333,4.04784718 20.0322333,2.95775415 C20.0323867,1.32666445 18.7014533,0 17.0644667,0 L6.67736,0 C5.04083333,0 3.7099,1.32666445 3.7099,2.95790698 C3.7099,4.04784718 4.31081333,4.99138206 5.19370667,5.50471761 L5.19370667,8.13420598 C5.19370667,10.2239203 6.16706667,12.0895947 7.68368667,13.310505 L6.67766667,13.310505 C2.99613333,13.310505 0.000153333333,16.2963787 0.000153333333,19.9656811 L0.000153333333,27.3603721 C0.000153333333,29.8072359 1.99670667,31.7971561 4.45172667,31.7971561 L4.45172667,45.8471761 L19.2904067,45.8471761 L19.2904067,31.797309 C21.7454267,31.797309 23.74198,29.8073887 23.74198,27.3605249 L23.74198,19.9658339 C23.74198,16.2963787 20.746,13.310505 17.0644667,13.310505 Z M5.19370667,2.95775415 C5.19370667,2.14213289 5.85917333,1.47887708 6.67751333,1.47887708 L17.06462,1.47887708 C17.88296,1.47887708 18.5484267,2.14213289 18.5484267,2.95775415 C18.5484267,3.77337542 17.88296,4.43663123 17.06462,4.43663123 L6.67736,4.43663123 C5.85917333,4.43663123 5.19370667,3.77337542 5.19370667,2.95775415 Z M16.6891067,5.91581395 C16.1200867,6.81655814 15.12066,7.39469103 14.0054667,7.39469103 L9.73636,7.39469103 C8.62116667,7.39469103 7.62189333,6.81640532 7.05272,5.91581395 L16.6891067,5.91581395 Z M6.67736,8.13420598 L6.67736,7.71638538 C7.50382667,8.43740864 8.57378667,8.87372093 9.73636,8.87372093 L14.0054667,8.87372093 C15.16804,8.87372093 16.238,8.43740864 17.0644667,7.71638538 L17.0644667,8.13420598 C17.0644667,10.9884983 14.73472,13.310505 11.8709133,13.310505 C9.00710667,13.310505 6.67736,10.9884983 6.67736,8.13420598 Z M15.2267667,14.7893821 L14.4901533,16.6263256 L13.77792,16.1530299 L15.14596,14.7893821 L15.2267667,14.7893821 Z M12.30592,15.528897 L11.4363667,15.528897 L10.6943867,14.7893821 L13.0479,14.7893821 L12.30592,15.528897 Z M12.58698,24.861701 L11.8710667,25.5752359 L11.1551533,24.861701 L11.8117267,17.0077741 L11.9304067,17.0077741 L12.58698,24.861701 Z M9.96482667,16.1536412 L9.25259333,16.6269369 L8.51506,14.7893821 L8.59602,14.7893821 L9.96482667,16.1536412 Z M4.45188,30.3182791 C3.35815333,30.3182791 2.41147333,29.7193621 1.89658,28.839402 L4.45188,28.839402 L4.45188,30.3182791 Z M11.1290867,44.368299 L5.93568667,44.368299 L5.93568667,42.8894219 L11.12924,42.8894219 L11.12924,44.368299 L11.1290867,44.368299 Z M17.8066,44.368299 L12.6128933,44.368299 L12.6128933,42.8894219 L17.8064467,42.8894219 L17.8064467,44.368299 L17.8066,44.368299 Z M17.8066,41.410392 L12.6128933,41.410392 L12.6128933,33.276186 L11.1290867,33.276186 L11.1290867,41.410392 L5.93568667,41.410392 L5.93568667,30.3182791 L17.8066,30.3182791 L17.8066,41.410392 Z M19.2904067,30.3182791 L19.2904067,28.839402 L21.8457067,28.839402 C21.3308133,29.7193621 20.3841333,30.3182791 19.2904067,30.3182791 Z M22.2581733,27.3603721 L19.2904067,27.3603721 L19.2904067,18.4866512 L17.8066,18.4866512 L17.8066,28.8392492 L5.93568667,28.8392492 L5.93568667,18.4866512 L4.45188,18.4866512 L4.45188,27.3603721 L1.48396,27.3603721 L1.48396,19.9656811 C1.48396,17.1113887 3.81370667,14.7893821 6.67751333,14.7893821 L6.91717333,14.7893821 L8.55462,18.8682525 L10.2626,17.7332292 L9.61936667,25.4222591 L11.8710667,27.6666312 L14.1227667,25.422412 L13.4795333,17.7333821 L15.1875133,18.8684053 L16.82496,14.7895349 L17.06462,14.7895349 C19.9284267,14.7895349 22.2581733,17.1115415 22.2581733,19.9658339 L22.2581733,27.3603721 Z" id="Shape"></path>
                    <path d="M37.9300667,0 C36.2243867,0 34.7448733,1.15213953 34.3308733,2.80034551 L32.4367467,10.352598 L31.16132,10.352598 L31.16132,8.13420598 L26.7097467,8.13420598 C25.0730667,8.13420598 23.74198,9.46087043 23.74198,11.092113 C23.74198,12.7233555 25.0730667,14.0500199 26.7097467,14.0500199 L30.2443867,14.0500199 L31.3690867,14.6105781 L31.2755533,14.9833156 C27.64968,16.4378937 25.2257867,19.9879934 25.2257867,23.8969236 L25.2257867,35.8416412 C25.2257867,37.6052292 26.4855733,39.0989302 28.1935533,39.4487442 L28.1935533,43.6289369 C28.1935533,44.8519867 29.1922133,45.8473289 30.41934,45.8473289 L36.3548733,45.8473289 C37.582,45.8473289 38.58066,44.8519867 38.58066,43.6289369 L38.58066,39.9313621 L46,39.9313621 L46,36.9734551 L46,31.0576412 L46,16.2682591 L46,14.7893821 L46,0 L37.9300667,0 Z M29.6775133,12.57099 L26.7097467,12.57099 C25.8914067,12.57099 25.22594,11.9077342 25.22594,11.092113 C25.22594,10.2764917 25.8914067,9.61323588 26.7097467,9.61323588 L29.6775133,9.61323588 L29.6775133,12.57099 Z M31.1614733,12.8534086 L31.1614733,11.8314751 L32.0658333,11.8314751 L31.7370867,13.140412 L31.1614733,12.8534086 Z M31.16132,44.368299 L30.41934,44.368299 C30.0107067,44.368299 29.6775133,44.0362126 29.6775133,43.6287841 L29.6775133,39.6408439 C30.17094,39.6911229 30.6657467,39.7340664 31.16132,39.7710498 L31.16132,44.368299 Z M36.3548733,44.368299 L35.6128933,44.368299 L35.6128933,43.6287841 L34.1290867,43.6287841 L34.1290867,44.368299 L32.64528,44.368299 L32.64528,39.8619801 C33.1400867,39.8856678 33.63428,39.9033953 34.1290867,39.9137874 L34.1290867,42.149907 L35.6128933,42.149907 L35.6128933,39.9313621 L37.0967,39.9313621 L37.0967,43.6287841 L37.0968533,43.6287841 C37.0968533,44.0362126 36.76366,44.368299 36.3548733,44.368299 Z M44.5161933,35.4945781 L32.64528,35.4945781 C31.82694,35.4945781 31.1614733,34.8313223 31.1614733,34.015701 C31.1614733,33.2000797 31.82694,32.5368239 32.64528,32.5368239 L44.5161933,32.5368239 L44.5161933,35.4945781 Z M44.5161933,31.057794 L32.64528,31.057794 C31.0086,31.057794 29.6775133,32.3844585 29.6775133,34.015701 C29.6775133,35.6469435 31.0086,36.973608 32.64528,36.973608 L44.5161933,36.973608 L44.5161933,38.452485 L35.2642133,38.452485 C33.06296,38.452485 30.8408533,38.3141794 28.6595333,38.0427641 C27.5481733,37.9044585 26.7097467,36.9580199 26.7097467,35.8413355 L26.7097467,23.8966179 C26.7097467,20.5245581 28.83832,17.4639535 32.0057267,16.2800266 L32.0383867,16.2682591 L44.5161933,16.2682591 L44.5161933,31.057794 L44.5161933,31.057794 Z M44.5161933,14.7893821 L32.85366,14.7893821 L35.77098,3.15902326 C36.0187667,2.17040532 36.9068733,1.47887708 37.9300667,1.47887708 L44.5161933,1.47887708 L44.5161933,14.7893821 Z" id="Shape"></path>
                    <path d="M28.9356867,22.923588 C28.9356867,25.3704518 30.93224,27.3603721 33.38726,27.3603721 C35.84228,27.3603721 37.8388333,25.3704518 37.8388333,22.923588 C37.8388333,20.4767243 35.84228,18.486804 33.38726,18.486804 C30.93224,18.486804 28.9356867,20.4767243 28.9356867,22.923588 Z M33.38726,19.9656811 C35.02394,19.9656811 36.3550267,21.2923455 36.3550267,22.923588 C36.3550267,24.5548306 35.02394,25.881495 33.38726,25.881495 C31.75058,25.881495 30.4194933,24.5548306 30.4194933,22.923588 C30.4194933,21.2923455 31.7504267,19.9656811 33.38726,19.9656811 Z" id="Shape"></path>
                </g>
                <g id="price">
                    <path d="M35.4564797,13 C33.7881122,13 32.4313346,11.5648 32.4313346,9.8 C32.4313346,9.3576 32.0932747,9 31.6750484,9 L7.47388781,9 C7.05566151,9 6.71760155,9.3576 6.71760155,9.8 C6.71760155,11.5648 5.36082398,13 3.69245648,13 C3.27423017,13 2.93617021,13.3576 2.93617021,13.8 L2.93617021,20.2 C2.93617021,20.6424 3.27423017,21 3.69245648,21 C5.36082398,21 6.71760155,22.4352 6.71760155,24.2 C6.71760155,24.6424 7.05566151,25 7.47388781,25 L31.6750484,25 C32.0932747,25 32.4313346,24.6424 32.4313346,24.2 C32.4313346,22.4352 33.7881122,21 35.4564797,21 C35.874706,21 36.212766,20.6424 36.212766,20.2 L36.212766,13.8 C36.212766,13.3576 35.874706,13 35.4564797,13 Z M34.7001934,19.4664 C32.8026712,19.8048 31.3014429,21.3928 30.9815338,23.4 L8.16740232,23.4 C7.84749323,21.3928 6.34626499,19.8048 4.44874275,19.4664 L4.44874275,14.5336 C6.34626499,14.1952 7.84749323,12.6072 8.16740232,10.6 L30.9815338,10.6 C31.3014429,12.6072 32.8026712,14.1952 34.7001934,14.5336 L34.7001934,19.4664 Z" id="Shape"></path>
                    <path d="M19.5744681,13 C17.4157957,13 15.6595745,14.7944 15.6595745,17 C15.6595745,19.2056 17.4157957,21 19.5744681,21 C21.7331404,21 23.4893617,19.2056 23.4893617,17 C23.4893617,14.7944 21.7331404,13 19.5744681,13 Z M19.5744681,19.4 C18.2794213,19.4 17.2255319,18.3232 17.2255319,17 C17.2255319,15.6768 18.2794213,14.6 19.5744681,14.6 C20.8695149,14.6 21.9234043,15.6768 21.9234043,17 C21.9234043,18.3232 20.8695149,19.4 19.5744681,19.4 Z" id="Shape"></path>
                    <path d="M45.2333333,0 L6.9,0 C6.47603333,0 6.13333333,0.347666667 6.13333333,0.777777778 L6.13333333,3.11111111 L3.83333333,3.11111111 C3.40936667,3.11111111 3.06666667,3.45877778 3.06666667,3.88888889 L3.06666667,6.22222222 L0.766666667,6.22222222 C0.3427,6.22222222 0,6.56988889 0,7 L0,27.2222222 C0,27.6523333 0.3427,28 0.766666667,28 L39.1,28 C39.5239667,28 39.8666667,27.6523333 39.8666667,27.2222222 L39.8666667,24.8888889 L42.1666667,24.8888889 C42.5906333,24.8888889 42.9333333,24.5412222 42.9333333,24.1111111 L42.9333333,21.7777778 L45.2333333,21.7777778 C45.6573,21.7777778 46,21.4301111 46,21 L46,0.777777778 C46,0.347666667 45.6573,0 45.2333333,0 Z M38.3333333,24.1111111 L38.3333333,26.4444444 L1.53333333,26.4444444 L1.53333333,7.77777778 L3.83333333,7.77777778 L38.3333333,7.77777778 L38.3333333,24.1111111 Z M41.4,23.3333333 L39.8666667,23.3333333 L39.8666667,7 C39.8666667,6.56988889 39.5239667,6.22222222 39.1,6.22222222 L4.6,6.22222222 L4.6,4.66666667 L41.4,4.66666667 L41.4,23.3333333 Z M44.4666667,20.2222222 L42.9333333,20.2222222 L42.9333333,3.88888889 C42.9333333,3.45877778 42.5906333,3.11111111 42.1666667,3.11111111 L7.66666667,3.11111111 L7.66666667,1.55555556 L44.4666667,1.55555556 L44.4666667,20.2222222 Z" id="Shape"></path>
                    <path d="M45.6966562,37.0105962 L36.6041001,30.1529284 C36.3752708,29.9784582 36.0668816,29.9517925 35.8107746,30.0805499 C35.5539099,30.2100692 35.3917593,30.4736792 35.3917593,30.7624311 L35.3917593,33.8099449 L23.2683513,33.8099449 C22.849336,33.8099449 22.5106383,34.1505046 22.5106383,34.5718233 L22.5106383,40.6668509 C22.5106383,41.0881697 22.849336,41.4287293 23.2683513,41.4287293 L35.3917593,41.4287293 L35.3917593,45.2381216 C35.3917593,45.5337304 35.5622448,45.8026735 35.828202,45.9276215 C35.9304933,45.9763818 36.0396039,46 36.1494723,46 C36.3229886,46 36.4957472,45.9398116 36.6351664,45.8240061 L45.7277224,38.2052216 C45.9050272,38.0558935 46.0058031,37.833425 45.9997414,37.6002902 C45.9936797,37.3671554 45.8822958,37.15002 45.6966562,37.0105962 Z M36.9071853,43.6115111 L36.9071853,40.6668509 C36.9071853,40.2455321 36.5684876,39.9049724 36.1494723,39.9049724 L24.0260643,39.9049724 L24.0260643,35.3337018 L36.1494723,35.3337018 C36.5684876,35.3337018 36.9071853,34.9931421 36.9071853,34.5718233 L36.9071853,32.286188 L44.0213527,37.6505741 L36.9071853,43.6115111 Z" id="Shape"></path>
                    <path d="M19.7375887,34 L16.4751773,34 C16.0241489,34 15.6595745,34.3576 15.6595745,34.8 L15.6595745,41.2 C15.6595745,41.6424 16.0241489,42 16.4751773,42 L19.7375887,42 C20.188617,42 20.5531915,41.6424 20.5531915,41.2 L20.5531915,34.8 C20.5531915,34.3576 20.188617,34 19.7375887,34 Z M18.9219858,40.4 L17.2907801,40.4 L17.2907801,35.6 L18.9219858,35.6 L18.9219858,40.4 Z" id="Shape"></path>
                    <path d="M12.8865248,34 L9.62411348,34 C9.17308511,34 8.80851064,34.3576 8.80851064,34.8 L8.80851064,41.2 C8.80851064,41.6424 9.17308511,42 9.62411348,42 L12.8865248,42 C13.3375532,42 13.7021277,41.6424 13.7021277,41.2 L13.7021277,34.8 C13.7021277,34.3576 13.3375532,34 12.8865248,34 Z M12.070922,40.4 L10.4397163,40.4 L10.4397163,35.6 L12.070922,35.6 L12.070922,40.4 Z" id="Shape"></path>
                    <path d="M4.07801418,34 L0.815602837,34 C0.364574468,34 0,34.3576 0,34.8 L0,41.2 C0,41.6424 0.364574468,42 0.815602837,42 L4.07801418,42 C4.52904255,42 4.89361702,41.6424 4.89361702,41.2 L4.89361702,34.8 C4.89361702,34.3576 4.52904255,34 4.07801418,34 Z M3.26241135,40.4 L1.63120567,40.4 L1.63120567,35.6 L3.26241135,35.6 L3.26241135,40.4 Z" id="Shape"></path>
                </g>
            </g>
        </g>
    </g>
</svg>