<svg width="28" height="28" viewBox="0 0 28 28" version="1.1" xmlns="http://www.w3.org/2000/svg" xmlns:xlink="http://www.w3.org/1999/xlink">
<title>flaticon1508935419-svg</title>
<desc>Created using Figma</desc>
<g id="Canvas" transform="translate(-695 -1186)">
<g id="flaticon1508935419-svg">
<g id="Group">
<g id="Group">
<g id="Vector">
<use xlink:href="#path0_fill" transform="translate(695 1186)" fill="#989E7F"/>
</g>
<g id="Vector">
<use xlink:href="#path1_fill" transform="translate(702.961 1193.95)" fill="#989E7F"/>
</g>
</g>
</g>
</g>
</g>
<defs>
<path id="path0_fill" d="M 26.5668 11.0608L 24.6015 10.7274C 24.3968 10.0664 24.1336 9.42887 23.8118 8.82055L 24.97 7.20033C 25.4613 6.51013 25.3853 5.56841 24.7828 4.9718L 23.0398 3.22874C 22.7122 2.90119 22.2794 2.71987 21.8173 2.71987C 21.4546 2.71987 21.1095 2.831 20.8171 3.04157L 19.191 4.19971C 18.5593 3.8663 17.8984 3.59139 17.214 3.38667L 16.8865 1.44475C 16.7461 0.608314 16.0266 2.77814e-12 15.1785 2.77814e-12L 12.716 2.77814e-12C 11.8679 2.77814e-12 11.1485 0.608314 11.0081 1.44475L 10.6688 3.43347C 10.0137 3.63819 9.37617 3.90725 8.76786 4.2348L 7.15935 3.07667C 6.86689 2.8661 6.51594 2.75496 6.1533 2.75496C 5.69121 2.75496 5.25253 2.93629 4.93083 3.26384L 3.18193 5.00689C 2.58532 5.60351 2.50343 6.54523 2.99476 7.23543L 4.16459 8.87905C 3.84288 9.49321 3.58552 10.1308 3.38665 10.7917L 1.44474 11.1193C 0.608311 11.2597 0 11.9791 0 12.8272L 0 15.2897C 0 16.1379 0.608311 16.8573 1.44474 16.9977L 3.43345 17.337C 3.63817 17.9921 3.90723 18.6296 4.23478 19.2379L 3.0825 20.8406C 2.59117 21.5308 2.66721 22.4725 3.26967 23.0691L 5.01271 24.8122C 5.34026 25.1398 5.7731 25.3211 6.23518 25.3211C 6.59783 25.3211 6.94293 25.2099 7.23539 24.9994L 8.87899 23.8295C 9.46976 24.1395 10.0898 24.3911 10.7273 24.5899L 11.0549 26.5553C 11.1953 27.3917 11.9147 28 12.7628 28L 15.2312 28C 16.0793 28 16.7987 27.3917 16.9391 26.5553L 17.2725 24.5899C 17.9335 24.3852 18.571 24.122 19.1793 23.8003L 20.7995 24.9584C 21.092 25.169 21.4429 25.2801 21.8056 25.2801C 22.2677 25.2801 22.7005 25.0988 23.0281 24.7713L 24.7711 23.0282C 25.3677 22.4316 25.4496 21.4899 24.9583 20.7997L 23.8001 19.1736C 24.1219 18.5594 24.3909 17.9219 24.5898 17.2668L 26.5551 16.9392C 27.3915 16.7988 27.9998 16.0794 27.9998 15.2313L 27.9998 12.7687C 28.0115 11.9206 27.4032 11.2012 26.5668 11.0608ZM 26.4323 15.2313C 26.4323 15.3073 26.3796 15.3716 26.3036 15.3833L 23.8469 15.7928C 23.5369 15.8454 23.2913 16.0735 23.2152 16.3718C 22.993 17.2317 22.6537 18.0564 22.1975 18.8226C 22.0396 19.0917 22.0513 19.4251 22.2326 19.6825L 23.6773 21.718C 23.7183 21.7765 23.7124 21.8642 23.6598 21.9169L 21.9167 23.6599C 21.8758 23.7009 21.8348 23.7067 21.8056 23.7067C 21.7705 23.7067 21.7413 23.695 21.7179 23.6775L 19.6882 22.2327C 19.4367 22.0514 19.0974 22.0397 18.8284 22.1976C 18.0621 22.6539 17.2374 22.9931 16.3776 23.2154C 16.0734 23.2914 15.8453 23.5429 15.7985 23.8471L 15.3832 26.3037C 15.3715 26.3798 15.3072 26.4324 15.2312 26.4324L 12.7687 26.4324C 12.6926 26.4324 12.6283 26.3798 12.6166 26.3037L 12.2072 23.8471C 12.1545 23.5371 11.9264 23.2914 11.6281 23.2154C 10.7917 22.999 9.98448 22.6656 9.22994 22.2327C 9.10711 22.1625 8.96673 22.1274 8.8322 22.1274C 8.67427 22.1274 8.5105 22.1742 8.37597 22.2737L 6.32877 23.7301C 6.29952 23.7476 6.27028 23.7593 6.24103 23.7593C 6.21764 23.7593 6.17084 23.7535 6.1299 23.7126L 4.38686 21.9695C 4.33421 21.9169 4.32836 21.835 4.36931 21.7706L 5.8082 19.7527C 5.98952 19.4953 6.00122 19.156 5.84329 18.887C 5.38706 18.1266 5.03611 17.3019 4.81384 16.442C 4.73195 16.1437 4.48629 15.9156 4.18214 15.863L 1.70795 15.4418C 1.63191 15.4301 1.57927 15.3658 1.57927 15.2897L 1.57927 12.8272C 1.57927 12.7512 1.63191 12.6869 1.70795 12.6752L 4.14704 12.2657C 4.45704 12.2131 4.70856 11.985 4.7846 11.6808C 5.00101 10.821 5.33442 9.99039 5.7848 9.22415C 5.94273 8.95509 5.92518 8.62168 5.74386 8.37017L 4.28742 6.32296C 4.24648 6.26447 4.25232 6.17673 4.30497 6.12409L 6.04801 4.38103C 6.08895 4.34009 6.1299 4.33424 6.15914 4.33424C 6.19424 4.33424 6.22348 4.34594 6.24688 4.36348L 8.26484 5.80238C 8.5222 5.98371 8.86145 5.9954 9.13051 5.83748C 9.8909 5.38124 10.7156 5.03029 11.5754 4.80802C 11.8738 4.72613 12.1019 4.48047 12.1545 4.17631L 12.5757 1.70211C 12.5873 1.62607 12.6517 1.57343 12.7277 1.57343L 15.1902 1.57343C 15.2663 1.57343 15.3306 1.62607 15.3423 1.70211L 15.7517 4.14122C 15.8044 4.45122 16.0325 4.70274 16.3366 4.77878C 17.2199 5.00104 18.0621 5.34615 18.8459 5.80823C 19.115 5.96616 19.4484 5.95446 19.7058 5.77314L 21.7237 4.32254C 21.753 4.30499 21.7822 4.29329 21.8114 4.29329C 21.8348 4.29329 21.8816 4.29914 21.9226 4.34009L 23.6656 6.08314C 23.7183 6.13578 23.7241 6.21767 23.6832 6.28201L 22.2384 8.31168C 22.0571 8.56319 22.0454 8.90244 22.2033 9.1715C 22.6596 9.93775 22.9988 10.7625 23.2211 11.6223C 23.2971 11.9265 23.5486 12.1546 23.8528 12.2014L 26.3094 12.6167C 26.3855 12.6284 26.4381 12.6927 26.4381 12.7687L 26.4381 15.2313L 26.4323 15.2313Z"/>
<path id="path1_fill" d="M 6.04216 4.14126e-07C 2.70815 4.14126e-07 3.57003e-07 2.70817 3.57003e-07 6.0422C 3.57003e-07 9.37623 2.70815 12.0844 6.04216 12.0844C 9.37617 12.0844 12.0843 9.37623 12.0843 6.0422C 12.0843 2.70817 9.37617 4.14126e-07 6.04216 4.14126e-07ZM 6.04216 10.5051C 3.57967 10.5051 1.57927 8.5047 1.57927 6.0422C 1.57927 3.57969 3.57967 1.57928 6.04216 1.57928C 8.50465 1.57928 10.5051 3.57969 10.5051 6.0422C 10.5051 8.5047 8.50465 10.5051 6.04216 10.5051Z"/>
</defs>
</svg>
