<svg width="24" height="24" viewBox="0 0 24 24" version="1.1" xmlns="http://www.w3.org/2000/svg" xmlns:xlink="http://www.w3.org/1999/xlink">
<title>Arrow right</title>
<desc>Created using Figma</desc>
<g id="Canvas" transform="translate(-9198 -1637)">
<g id="Arrow right">
<g id="Shape">
<use xlink:href="#path0_fill" transform="translate(9198.08 1637.08)" fill="#878787"/>
</g>
<g id="Shape">
<use xlink:href="#path1_fill" transform="translate(9207 1642.68)" fill="#878787"/>
</g>
</g>
</g>
<defs>
<path id="path0_fill" fill-rule="evenodd" d="M 23.8359 11.918C 23.8359 18.5026 18.4824 23.8359 11.918 23.8359C 5.35352 23.8359 0 18.4821 0 11.918C 0 5.35388 5.35352 0 11.918 0C 18.4824 0 23.8359 5.33337 23.8359 11.918ZM 22.1533 11.9178C 22.1533 6.27686 17.5586 1.68201 11.918 1.68201C 6.27637 1.68201 1.68164 6.27686 1.68164 11.9178C 1.68164 17.559 6.27637 22.1538 11.918 22.1538C 17.5586 22.1538 22.1533 17.559 22.1533 11.9178Z"/>
<path id="path1_fill" d="M 0.246154 12.2667C 0.410256 12.4308 0.615385 12.5128 0.841026 12.5128C 1.04615 12.5128 1.27179 12.4308 1.4359 12.2667L 6.85128 6.85128C 7.01538 6.68718 7.09744 6.48205 7.09744 6.25641C 7.09744 6.03077 7.01538 5.82564 6.85128 5.66154L 1.4359 0.246154C 1.10769 -0.0820513 0.574359 -0.0820513 0.246154 0.246154C -0.0820513 0.574359 -0.0820513 1.10769 0.246154 1.4359L 5.06667 6.25641L 0.246154 11.0769C -0.0820513 11.4051 -0.0820513 11.9385 0.246154 12.2667Z"/>
</defs>
</svg>
