<svg width="22" height="22" viewBox="0 0 22 22" version="1.1" xmlns="http://www.w3.org/2000/svg" xmlns:xlink="http://www.w3.org/1999/xlink">
<title>Home buton</title>
<desc>Created using Figma</desc>
<g id="Canvas" transform="translate(-178 23)">
<g id="Home buton">
<g id="Shape">
<use xlink:href="#path0_fill" transform="translate(178 -23)" fill="#B3B3B3"/>
</g>
</g>
</g>
<defs>
<path id="path0_fill" fill-rule="evenodd" d="M 15.279 0.868999C 13.937 0.289667 12.5107 0 11 0C 9.98801 0 9.01266 0.132 8.07401 0.396C 7.13533 0.66 6.259 1.03033 5.44501 1.507C 4.631 1.98367 3.89034 2.55567 3.22301 3.223C 2.55566 3.89033 1.98367 4.631 1.507 5.445C 1.03033 6.259 0.660004 7.13533 0.395996 8.074C 0.132004 9.01267 0 9.988 0 11C 0 12.012 0.132004 12.9873 0.395996 13.926C 0.660004 14.8647 1.03033 15.7409 1.507 16.555C 1.98367 17.369 2.55566 18.1097 3.22301 18.777C 3.89034 19.4443 4.631 20.0163 5.44501 20.493C 6.259 20.9697 7.13533 21.3399 8.07401 21.604C 9.01266 21.868 9.98801 22 11 22C 12.012 22 12.9873 21.868 13.9259 21.604C 14.8647 21.34 15.7409 20.9697 16.555 20.493C 17.369 20.0164 18.1097 19.4443 18.777 18.777C 19.4443 18.1097 20.0163 17.369 20.493 16.555C 20.9697 15.7409 21.3399 14.8646 21.604 13.926C 21.868 12.9873 22 12.012 22 11C 22 9.48933 21.7103 8.063 21.131 6.721C 20.5517 5.379 19.767 4.213 18.777 3.223C 17.787 2.233 16.621 1.44833 15.279 0.868999ZM 16.324 7.986C 16.4267 8.05933 16.478 8.162 16.478 8.294L 16.478 15.356C 16.478 15.4734 16.4413 15.5686 16.368 15.642C 16.2947 15.7154 16.1993 15.7521 16.082 15.7521L 13.178 15.7521C 13.0607 15.7521 12.9653 15.7153 12.892 15.642C 12.8187 15.5686 12.782 15.4734 12.782 15.356L 12.782 11.022L 9.438 11.022L 9.438 15.356C 9.438 15.4734 9.40134 15.5687 9.328 15.642C 9.25467 15.7154 9.15935 15.7521 9.04201 15.7521L 6.138 15.7521C 6.03534 15.7521 5.94734 15.7153 5.87401 15.642C 5.80067 15.5687 5.76401 15.4734 5.76401 15.356L 5.76401 8.294C 5.76401 8.162 5.80801 8.05933 5.89601 7.986L 10.78 4.07C 10.956 3.95267 11.1173 3.95267 11.264 4.07L 16.324 7.986Z"/>
</defs>
</svg>
