<svg width="10" height="13" viewBox="0 0 10 13" version="1.1" xmlns="http://www.w3.org/2000/svg" xmlns:xlink="http://www.w3.org/1999/xlink">
<title>map point</title>
<desc>Created using Figma</desc>
<g id="Canvas" transform="translate(-555 119)">
<g id="map point">
<g id="Shape">
<use xlink:href="#path0_fill" transform="translate(555 -119)" fill="#FF4D4D"/>
</g>
</g>
</g>
<defs>
<path id="path0_fill" fill-rule="evenodd" d="M 0 4.78613C 0 2.14706 2.24304 0 4.99982 0C 7.75665 0 9.99969 2.14706 10 4.78613C 10 5.47449 9.85297 6.13174 9.56274 6.73975C 8.31226 9.35845 5.91547 12.1228 5.21075 12.9075C 5.15796 12.9662 5.08093 13 4.99994 13C 4.91888 13 4.84192 12.9662 4.78906 12.9075C 4.08411 12.1227 1.68738 9.35818 0.437256 6.73975C 0.147217 6.13174 0 5.47449 0 4.78613ZM 2.40259 4.78599C 2.40259 6.15675 3.56775 7.27205 4.99976 7.27205C 6.43195 7.27205 7.59711 6.15675 7.59698 4.78599C 7.59698 3.41511 6.43182 2.2998 4.99976 2.2998C 3.56775 2.2998 2.40259 3.41511 2.40259 4.78599Z"/>
</defs>
</svg>
