<svg width="18" height="18" viewBox="0 0 18 18" version="1.1" xmlns="http://www.w3.org/2000/svg" xmlns:xlink="http://www.w3.org/1999/xlink">
<title>Arrow down</title>
<desc>Created using Figma</desc>
<g id="Canvas" transform="translate(-4801 -135)">
<g id="Arrow down">
<g id="Shape">
<use xlink:href="#path0_fill" transform="translate(4801 135)" fill="#FFFFFF"/>
</g>
<g id="Shape">
<use xlink:href="#path1_fill" transform="translate(4805 142)" fill="#FFFFFF"/>
</g>
</g>
</g>
<defs>
<path id="path0_fill" fill-rule="evenodd" d="M 0 8.9994C 0 4.02946 4.02979 0 9.00049 0C 13.9712 0 18.0015 4.02946 18 9.0006C 18 13.9705 13.9712 18 9.00049 18C 4.02881 18 -0.000976562 13.9717 0 8.9994ZM 1.20605 9.00182C 1.20605 13.299 4.70312 16.7955 9.00098 16.7955C 13.2983 16.7955 16.7954 13.2977 16.7944 9.00177C 16.7944 4.70345 13.2983 1.20691 9.00098 1.2081C 4.70312 1.2081 1.20605 4.70467 1.20605 9.00182Z"/>
<path id="path1_fill" d="M 7.97559 0.172378L 4.50059 3.58097L 1.02558 0.172378C 0.791187 -0.0574592 0.410137 -0.0574592 0.175782 0.172378C -0.0585741 0.402215 -0.0586136 0.775855 0.175782 1.00565L 4.07387 4.82793C 4.19166 4.9458 4.34673 5 4.50059 5C 4.65566 5 4.80951 4.94223 4.92731 4.82793L 8.8242 1.00565C 9.0586 0.775816 9.0586 0.402176 8.8242 0.172378C 8.58981 -0.0574205 8.20994 -0.0574592 7.97559 0.172378Z"/>
</defs>
</svg>
