<svg width="28" height="28" viewBox="0 0 28 28" version="1.1" xmlns="http://www.w3.org/2000/svg" xmlns:xlink="http://www.w3.org/1999/xlink">
<title>price</title>
<desc>Created using Figma</desc>
<g id="Canvas" transform="translate(-1063 -1126)">
<g id="price">
<g id="Group">
<g id="Group">
<g id="Vector">
<use xlink:href="#path0_fill" transform="translate(1063 1126)" fill="#747474"/>
</g>
</g>
</g>
<g id="Group">
<g id="Group">
<g id="Vector">
<use xlink:href="#path1_fill" transform="translate(1071.75 1133)" fill="#747474"/>
</g>
</g>
</g>
<g id="Group">
<g id="Group">
<g id="Vector">
<use xlink:href="#path2_fill" transform="translate(1077 1141.75)" fill="#747474"/>
</g>
</g>
</g>
<g id="Group">
<g id="Group">
<g id="Vector">
<use xlink:href="#path3_fill" transform="translate(1071.75 1133)" fill="#747474"/>
</g>
</g>
</g>
</g>
</g>
<defs>
<path id="path0_fill" d="M 27.9424 17.2021L 26.7122 14L 27.9406 10.7961C 28.0771 10.4426 27.9686 10.0402 27.6746 9.8022L 25.0095 7.64296L 24.4706 4.25362C 24.4111 3.88091 24.1171 3.58695 23.7444 3.52745L 20.3548 2.98852L 18.1954 0.323588C 17.9574 0.0296235 17.5567 -0.0771137 17.2015 0.0576202L 13.9991 1.28772L 10.795 0.05937C 10.4416 -0.0771137 10.0408 0.0296235 9.80285 0.325338L 7.64347 2.99027L 4.2539 3.5292C 3.88117 3.5887 3.58718 3.88266 3.52769 4.25537L 2.98872 7.64471L 0.32361 9.80395C 0.0296255 10.0419 -0.0771188 10.4426 0.057624 10.7961L 1.28606 14L 0.057624 17.2038C -0.0771188 17.5573 0.0296255 17.958 0.32361 18.1959L 2.98872 20.3552L 3.52769 23.7445C 3.58718 24.1172 3.88117 24.4112 4.2539 24.4707L 7.64347 25.0096L 9.80285 27.6746C 10.0426 27.9703 10.4433 28.0788 10.7968 27.9405L 13.9991 26.7122L 17.2032 27.9405C 17.3047 27.979 17.4114 27.9983 17.5164 27.9983C 17.7737 27.9983 18.0274 27.8845 18.1971 27.6746L 20.3565 25.0096L 23.7461 24.4707C 24.1188 24.4112 24.4128 24.1172 24.4723 23.7445L 25.0113 20.3552L 27.6764 18.1959C 27.9704 17.958 28.0771 17.5555 27.9424 17.2021ZM 24.9553 14.3132L 26.077 17.2353L 23.6429 19.2056C 23.4749 19.3421 23.3629 19.5345 23.3296 19.748L 22.8379 22.8399L 19.7458 23.3316C 19.5323 23.3648 19.3398 23.4768 19.2033 23.6448L 17.2365 26.0788L 14.3141 24.9571C 14.2126 24.9204 14.1059 24.8994 13.9991 24.8994C 13.8924 24.8994 13.7856 24.9186 13.6859 24.9571L 10.7635 26.0788L 8.79315 23.6448C 8.65666 23.4768 8.46417 23.3648 8.25068 23.3316L 5.1586 22.8399L 4.66688 19.748C 4.63363 19.5345 4.52163 19.3421 4.35364 19.2056L 1.91952 17.2371L 3.04121 14.3149C 3.11821 14.1119 3.11821 13.888 3.03946 13.6867L 1.91952 10.7628L 4.35364 8.79257C 4.52163 8.65609 4.63363 8.46361 4.66688 8.25014L 5.1586 5.15826L 8.25068 4.66657C 8.46417 4.63332 8.65666 4.52134 8.79315 4.35336L 10.7618 1.92115L 13.6841 3.04276C 13.8854 3.11975 14.1094 3.11975 14.3106 3.04276L 17.233 1.92115L 19.2033 4.35511C 19.3398 4.52309 19.5323 4.63507 19.7458 4.66832L 22.8379 5.16001L 23.3296 8.25189C 23.3629 8.46536 23.4749 8.65784 23.6429 8.79432L 26.077 10.7646L 24.9553 13.6867C 24.8783 13.888 24.8783 14.1119 24.9553 14.3132Z"/>
<path id="path1_fill" d="M 2.62486 -6.67492e-08C 1.17769 -6.67492e-08 -3.33768e-08 1.17761 -3.33768e-08 2.62469C -3.33768e-08 4.07176 1.17769 5.24937 2.62486 5.24937C 4.07203 5.24937 5.24972 4.07176 5.24972 2.62469C 5.24972 1.17761 4.07203 -6.67492e-08 2.62486 -6.67492e-08ZM 2.62486 3.49958C 2.14188 3.49958 1.74991 3.10763 1.74991 2.62469C 1.74991 2.14174 2.14188 1.74979 2.62486 1.74979C 3.10783 1.74979 3.49981 2.14174 3.49981 2.62469C 3.49981 3.10763 3.10783 3.49958 2.62486 3.49958Z"/>
<path id="path2_fill" d="M 2.62486 -6.67492e-08C 1.17769 -6.67492e-08 8.01043e-07 1.17761 8.01043e-07 2.62469C 8.01043e-07 4.07176 1.17769 5.24937 2.62486 5.24937C 4.07203 5.24937 5.24972 4.07176 5.24972 2.62469C 5.24972 1.17761 4.07203 -6.67492e-08 2.62486 -6.67492e-08ZM 2.62486 3.49958C 2.14189 3.49958 1.74991 3.10763 1.74991 2.62469C 1.74991 2.14174 2.14189 1.74979 2.62486 1.74979C 3.10783 1.74979 3.49981 2.14174 3.49981 2.62469C 3.49981 3.10763 3.10783 3.49958 2.62486 3.49958Z"/>
<path id="path3_fill" d="M 10.133 0.162449C 9.74105 -0.117518 9.19333 -0.0265283 8.91335 0.365425L 0.163817 12.614C -0.117918 13.0059 -0.0269226 13.5536 0.365056 13.8336C 0.519048 13.9438 0.697538 13.9963 0.874279 13.9963C 1.14726 13.9963 1.41675 13.8686 1.58649 13.6306L 10.336 1.38205C 10.6178 0.98835 10.525 0.442415 10.133 0.162449Z"/>
</defs>
</svg>
