<svg width="10" height="10" viewBox="0 0 10 10" version="1.1" xmlns="http://www.w3.org/2000/svg" xmlns:xlink="http://www.w3.org/1999/xlink">
<title>Pluse</title>
<desc>Created using Figma</desc>
<g id="Canvas" transform="translate(-2638 -470)">
<g id="Pluse">
<use xlink:href="#path0_fill" transform="translate(2638 470)" fill="#F7C333"/>
</g>
</g>
<defs>
<path id="path0_fill" d="M 9.58333 4.16667L 6.04167 4.16667C 5.91667 4.16667 5.83333 4.08333 5.83333 3.95833L 5.83333 0.416667C 5.83333 0.166667 5.66667 0 5.41667 0L 4.58333 0C 4.33333 0 4.16667 0.166667 4.16667 0.416667L 4.16667 3.95833C 4.16667 4.08333 4.08333 4.16667 3.95833 4.16667L 0.416667 4.16667C 0.166667 4.16667 0 4.33333 0 4.58333L 0 5.41667C 0 5.66667 0.166667 5.83333 0.416667 5.83333L 3.95833 5.83333C 4.08333 5.83333 4.16667 5.91667 4.16667 6.04167L 4.16667 9.58333C 4.16667 9.83333 4.33333 10 4.58333 10L 5.41667 10C 5.66667 10 5.83333 9.83333 5.83333 9.58333L 5.83333 6.04167C 5.83333 5.91667 5.91667 5.83333 6.04167 5.83333L 9.58333 5.83333C 9.83333 5.83333 10 5.66667 10 5.41667L 10 4.58333C 10 4.33333 9.83333 4.16667 9.58333 4.16667Z"/>
</defs>
</svg>
