<svg width="48" height="48" viewBox="0 0 48 48" version="1.1" xmlns="http://www.w3.org/2000/svg" xmlns:xlink="http://www.w3.org/1999/xlink">
<title>Glass</title>
<desc>Created using Figma</desc>
<g id="Canvas" transform="translate(2199 -1234)">
<g id="Glass">
<g id="Shape">
<use xlink:href="#path0_fill" transform="translate(-2183.26 1249.39)" fill="#FF4D4D"/>
</g>
<g id="Shape">
<use xlink:href="#path1_fill" transform="translate(-2199 1234)" fill="#FF4D4D"/>
</g>
</g>
</g>
<defs>
<path id="path0_fill" fill-rule="evenodd" d="M 0 6.56995C 0 2.94226 2.94116 0 6.56885 0C 10.1978 0 13.1387 2.94226 13.1384 6.56995C 13.1384 10.1986 10.1975 13.1399 6.56885 13.1399C 2.94116 13.1399 0 10.1984 0 6.56995ZM 7.81396 8.12439L 9.74341 8.12439C 10.4314 8.12439 10.9885 7.56714 10.9885 6.87952C 10.9885 6.19177 10.4312 5.63452 9.74341 5.63452L 7.81396 5.63452L 7.81396 3.70447C 7.81396 3.01672 7.25659 2.45947 6.56885 2.45947C 5.88135 2.45947 5.32397 3.01672 5.32397 3.70447L 5.32397 5.63452L 3.39429 5.63452C 2.70679 5.63452 2.14941 6.19177 2.14941 6.87952C 2.14941 7.56714 2.70679 8.12439 3.39429 8.12439L 5.32397 8.12439L 5.32397 10.0541C 5.32397 10.7417 5.88135 11.299 6.56885 11.299C 7.25659 11.299 7.81396 10.7417 7.81396 10.0541L 7.81396 8.12439Z"/>
<path id="path1_fill" fill-rule="evenodd" d="M 0 23.9991C 0 10.7452 10.7449 0 23.9993 0C 37.2537 0 47.9993 10.7448 47.9993 23.9991C 47.9993 37.2537 37.2534 47.9996 23.9993 47.9996C 10.7449 47.9996 0 37.2532 0 23.9991ZM 34.6956 35.9703C 35.1931 35.9703 35.6904 35.7808 36.0698 35.4006C 36.8293 34.6418 36.8293 33.4106 36.0698 32.6519L 30.54 27.1218C 31.4797 25.6263 32.0249 23.8577 32.0249 21.9609C 32.0249 16.5938 27.6736 12.2427 22.3059 12.2427C 16.9382 12.2427 12.5872 16.5938 12.5872 21.9614C 12.5872 27.3291 16.9382 31.6804 22.3059 31.6804C 24.3704 31.6804 26.2834 31.0352 27.8574 29.9371L 33.3206 35.4006C 33.7007 35.7808 34.198 35.9703 34.6956 35.9703Z"/>
</defs>
</svg>
