<svg width="16" height="16" viewBox="0 0 16 16" version="1.1" xmlns="http://www.w3.org/2000/svg" xmlns:xlink="http://www.w3.org/1999/xlink">
<title>search</title>
<desc>Created using Figma</desc>
<g id="Canvas" transform="translate(-1322 20)">
<g id="search">
<g id="Shape">
<use xlink:href="#path0_fill" transform="translate(1325.6 -17.6697)" fill="#B3B3B3"/>
</g>
<g id="Shape">
<use xlink:href="#path1_fill" transform="translate(1322 -20)" fill="#B3B3B3"/>
</g>
</g>
</g>
<defs>
<path id="path0_fill" d="M 6.15045 1.27202C 5.3302 0.451759 4.23807 0 3.07523 0C 1.91238 0 0.820258 0.451759 0 1.27202L 0.70563 1.97765C 1.33741 1.34586 2.17896 0.997921 3.07523 0.997921C 3.97149 0.997921 4.81304 1.34586 5.44482 1.97765C 6.07661 2.60943 6.42455 3.45098 6.42455 4.34724C 6.42455 5.24351 6.07661 6.08506 5.44482 6.71684L 6.15045 7.42247C 6.97071 6.60221 7.42247 5.51009 7.42247 4.34724C 7.42247 3.1844 6.97074 2.09227 6.15045 1.27202Z"/>
<path id="path1_fill" fill-rule="evenodd" d="M 11.7366 11.031L 15.9869 15.2813L 15.2812 15.9869L 11.031 11.7366C 9.86121 12.7447 8.33936 13.355 6.67749 13.355C 2.99548 13.355 0 10.3595 0 6.67752C 0 2.99553 2.99548 0 6.67749 0C 10.3595 0 13.355 2.99553 13.3551 6.67752C 13.3551 8.33933 12.7448 9.86116 11.7366 11.031ZM 6.67749 0.997921C 3.54578 0.997921 0.997925 3.54578 0.997925 6.67752C 0.997925 9.80926 3.54578 12.3571 6.67749 12.3571C 9.80933 12.3571 12.3572 9.80926 12.3572 6.67752C 12.3572 3.54578 9.80933 0.997921 6.67749 0.997921Z"/>
</defs>
</svg>
