<svg width="58" height="58" viewBox="0 0 58 58" xmlns="http://www.w3.org/2000/svg" xmlns:xlink="http://www.w3.org/1999/xlink">
<path fill-rule="evenodd" fill="#ff4d4d" d="M 0 29C 0 12.9837 12.9839 0 29 0C 45.0161 0 58 12.9837 58 29C 58 45.0163 45.0161 58 29 58C 12.9839 58 0 45.0163 0 29ZM 24.7539 39.7216L 39.1538 30.5552C 39.6802 30.2197 40 29.6323 40 29.0004C 40 28.3685 39.6802 27.7813 39.1538 27.4456L 24.7539 18.2793C 24.1992 17.9257 23.4995 17.9059 22.9272 18.2309C 22.355 18.554 22 19.1672 22 19.8341L 22 38.1667C 22 38.8336 22.355 39.4468 22.9272 39.7699C 23.1992 39.924 23.5 40 23.7998 40C 24.1313 40 24.4624 39.9069 24.7539 39.7216Z"/>
</svg>
