<svg width="28" height="28" viewBox="0 0 28 28" version="1.1" xmlns="http://www.w3.org/2000/svg" xmlns:xlink="http://www.w3.org/1999/xlink">
<path id="path0_fill" fill-rule="evenodd" fill="#FF4D4D" d="M 0 14C 0 6.26801 6.26855 0 14 0C 21.7314 0 28 6.26801 28 14C 28 21.732 21.7314 28 14 28C 6.26855 28 0 21.732 0 14ZM 11.8389 19.1171L 18.8389 14.7421C 19.0947 14.5819 19.25 14.3016 19.25 14C 19.25 13.6984 19.0947 13.4181 18.8389 13.2579L 11.8389 8.8829C 11.5693 8.71414 11.2285 8.70471 10.9512 8.8598C 10.6729 9.01404 10.5 9.30673 10.5 9.625L 10.5 18.375C 10.5 18.6933 10.6729 18.986 10.9512 19.1402C 11.083 19.2137 11.2295 19.25 11.375 19.25C 11.5361 19.25 11.6973 19.2055 11.8389 19.1171Z"/>
</svg>
