<svg width="102" height="102" viewBox="0 0 102 102" version="1.1" xmlns="http://www.w3.org/2000/svg" xmlns:xlink="http://www.w3.org/1999/xlink">
<title>&#209;&#128;&#208;&#176;&#208;&#177;&#208;&#190;&#209;&#130;&#208;&#176;&#208;&#181;&#208;&#188;</title>
<desc>Created using Figma</desc>
<g id="Canvas" transform="translate(-6852 -2670)">
<g id="&#209;&#128;&#208;&#176;&#208;&#177;&#208;&#190;&#209;&#130;&#208;&#176;&#208;&#181;&#208;&#188;">
<g id="&#208;&#154;&#209;&#128;&#209;&#131;&#208;&#179;">
<use xlink:href="#path0_fill" transform="translate(6853 2671)" fill="#FFFFFF"/>
<use xlink:href="#path1_stroke" transform="translate(6853 2671)" fill="#FFD806"/>
</g>
<g id="wheel">
<g id="Shape">
<use xlink:href="#path2_fill" transform="translate(6882 2700)"/>
</g>
<g id="Shape">
<use xlink:href="#path3_fill" transform="translate(6887.59 2703.32)"/>
</g>
<g id="Shape">
<use xlink:href="#path4_fill" transform="translate(6898.92 2716.92)"/>
</g>
<g id="Shape">
<use xlink:href="#path5_fill" transform="translate(6880 2698)"/>
</g>
</g>
</g>
</g>
<defs>
<path id="path0_fill" fill-rule="evenodd" d="M 50 100C 77.6142 100 100 77.6142 100 50C 100 22.3858 77.6142 0 50 0C 22.3858 0 0 22.3858 0 50C 0 77.6142 22.3858 100 50 100Z"/>
<path id="path1_stroke" d="M 50 100.5C 77.8904 100.5 100.5 77.8904 100.5 50L 99.5 50C 99.5 77.3381 77.3381 99.5 50 99.5L 50 100.5ZM 100.5 50C 100.5 22.1096 77.8904 -0.5 50 -0.5L 50 0.5C 77.3381 0.5 99.5 22.6619 99.5 50L 100.5 50ZM 50 -0.5C 22.1096 -0.5 -0.5 22.1096 -0.5 50L 0.5 50C 0.5 22.6619 22.6619 0.5 50 0.5L 50 -0.5ZM -0.5 50C -0.5 77.8904 22.1096 100.5 50 100.5L 50 99.5C 22.6619 99.5 0.5 77.3381 0.5 50L -0.5 50Z"/>
<path id="path2_fill" fill-rule="evenodd" d="M 6.86328 13.8865L 6.83838 13.886C 4.83008 13.856 2.93457 12.9578 1.63721 11.4214C 0.581543 10.1714 0 8.5813 0 6.9436C 0 3.11499 3.11475 0 6.94385 0C 8.58105 0 10.1714 0.581543 11.4214 1.63721C 12.9575 2.93457 13.856 4.83032 13.8862 6.83789L 13.8862 6.86328L 13.8872 6.9436C 13.8872 7.66333 13.7769 8.37378 13.5596 9.05518C 13.3721 9.64355 13.106 10.2051 12.7686 10.7239C 12.2417 11.5344 11.5347 12.2415 10.7241 12.7683C 10.2051 13.106 9.64355 13.3721 9.05518 13.5598C 8.37402 13.7771 7.66357 13.8872 6.94385 13.8872L 6.86328 13.8865ZM 2.55322 3.52734C 1.95068 4.30005 1.54736 5.23511 1.4209 6.25537L 2.32227 6.25537L 2.32227 7.63232L 1.42041 7.63232C 1.55322 8.69678 1.9917 9.70776 2.68896 10.533C 3.72949 11.7649 5.24902 12.4854 6.8584 12.5093L 6.88574 12.5098C 7.47998 12.5198 8.07227 12.428 8.63623 12.248C 9.10742 12.0979 9.55713 11.8845 9.97314 11.6143C 10.6235 11.1912 11.1909 10.6238 11.6138 9.97339C 11.8843 9.55762 12.0977 9.10791 12.2476 8.63672C 12.3521 8.30933 12.4248 7.97339 12.4673 7.63208L 11.5649 7.63208L 11.5649 6.25513L 12.4668 6.25513C 12.3428 5.25732 11.9497 4.31494 11.3354 3.52539L 10.6978 4.1626L 9.72412 3.18896L 10.3623 2.55127C 9.56982 1.93433 8.62451 1.54468 7.63184 1.42065L 7.63184 2.32227L 6.25488 2.32227L 6.25488 1.42114C 5.23486 1.54761 4.2998 1.95068 3.52686 2.55347L 4.1626 3.18921L 3.18896 4.16284L 2.55322 3.52734Z"/>
<path id="path3_fill" fill-rule="evenodd" d="M 2.71484 4.29736C 2.71484 5.0459 2.10596 5.65479 1.35742 5.65479C 0.608887 5.65479 0 5.0459 0 4.29736C 0 3.80029 0.269531 3.36621 0.668945 3.12964L 0.668945 0L 2.0459 0L 2.0459 3.12964C 2.44531 3.36621 2.71484 3.80029 2.71484 4.29736ZM 1.38037 4.29907C 1.38037 4.28735 1.37109 4.27783 1.35938 4.27783C 1.34766 4.27783 1.33789 4.28735 1.33789 4.29907C 1.33789 4.32275 1.38037 4.32251 1.38037 4.29907Z"/>
<path id="path4_fill" fill-rule="evenodd" d="M 9.15137 4.57568C 9.15137 7.09863 7.09863 9.15137 4.57568 9.15137C 2.05273 9.15137 0 7.09863 0 4.57568C 0 2.05273 2.05273 0 4.57568 0C 7.09863 0 9.15137 2.05273 9.15137 4.57568ZM 7.77441 4.57568C 7.77441 2.81201 6.33936 1.37695 4.57568 1.37695C 2.81201 1.37695 1.37695 2.81201 1.37695 4.57568C 1.37695 6.3396 2.81201 7.77441 4.57568 7.77441C 6.33936 7.77441 7.77441 6.3396 7.77441 4.57568Z"/>
<path id="path5_fill" fill-rule="evenodd" d="M 40.1172 6.88281C 35.6782 2.44458 29.7769 0 23.5 0C 20.335 0 17.2681 0.619873 14.3774 1.83984C 12.8232 0.650879 10.9106 0 8.94482 0C 4.0127 0 0 4.0127 0 8.94507C 0 10.9109 0.650879 12.823 1.83984 14.3777C 0.619629 17.2683 0 20.3347 0 23.5C 0 29.7771 2.44434 35.6785 6.88281 40.1172C 11.3218 44.5554 17.2231 47 23.5 47C 29.7769 47 35.6782 44.5554 40.1172 40.1172C 44.5557 35.6785 47 29.7771 47 23.5C 47 17.2229 44.5557 11.3215 40.1172 6.88281ZM 1.37695 8.94507C 1.37695 4.77197 4.77197 1.37695 8.94482 1.37695C 10.73 1.37695 12.4629 2.0105 13.8252 3.16089C 15.4995 4.57544 16.479 6.6416 16.5117 8.82959L 16.5122 8.8645L 16.5132 8.94507C 16.5132 9.04321 16.5112 9.14111 16.5078 9.23901C 16.4814 9.92334 16.3638 10.5974 16.1567 11.2468C 15.9521 11.8872 15.6621 12.4988 15.2944 13.0642C 15.1509 13.2854 14.9951 13.4993 14.8281 13.7048C 14.6611 13.9106 14.4829 14.1079 14.2954 14.2954C 13.9204 14.6704 13.5063 15.0071 13.0645 15.2944C 12.499 15.6621 11.8872 15.9521 11.2471 16.1565C 11.1533 16.1863 11.0591 16.2141 10.9648 16.2402C 10.875 16.2651 10.7847 16.2881 10.6943 16.3096L 10.6841 16.312C 10.2178 16.4219 9.74072 16.4868 9.25879 16.5063L 9.23145 16.5076L 9.104 16.5105L 9.08252 16.5107L 9.06104 16.511L 9.03955 16.5112L 8.98975 16.5117C 8.94824 16.5125 8.90674 16.5129 8.86475 16.5122L 8.82959 16.5115C 6.6416 16.4788 4.5752 15.4995 3.16113 13.8247C 2.01025 12.4629 1.37695 10.73 1.37695 8.94507ZM 13.7134 34.1389C 13.4136 33.8708 13.1289 33.5864 12.8608 33.2864C 10.4883 30.7092 9.03711 27.271 9.03711 23.5C 9.03711 21.5374 9.4375 19.5935 10.2046 17.8018C 10.1343 17.8118 10.0635 17.8206 9.99316 17.8289L 9.979 17.8306C 9.87744 17.8423 9.77588 17.8518 9.67383 17.8601L 9.59814 17.8657C 9.50098 17.8728 9.40381 17.8787 9.30615 17.8826L 9.28857 17.8835L 9.28223 17.8838L 9.20312 18.0898L 9.15869 18.2056C 9.11621 18.3208 9.07471 18.436 9.03516 18.552L 9.0332 18.5576C 8.99268 18.6755 8.9541 18.7939 8.9165 18.9128L 8.88281 19.0249L 8.80908 19.2698L 8.77051 19.4087L 8.71045 19.6292L 8.67285 19.7793L 8.62109 19.9907L 8.58545 20.147L 8.54004 20.3545L 8.50781 20.5146L 8.46826 20.7207L 8.43945 20.8831L 8.40527 21.0894L 8.38037 21.2527L 8.35156 21.4607L 8.33057 21.6235L 8.30664 21.8347L 8.28955 21.9958L 8.27051 22.2126L 8.25781 22.3699C 8.25195 22.4456 8.24756 22.5212 8.24316 22.5972L 8.23486 22.7451L 8.2251 22.9971L 8.22119 23.1218C 8.21777 23.2476 8.21631 23.3738 8.21631 23.5C 8.21631 31.9272 15.0728 38.7834 23.5 38.7834C 31.9272 38.7834 38.7837 31.9272 38.7837 23.5C 38.7837 15.0725 31.9272 8.21631 23.5 8.21631C 23.3735 8.21631 23.2476 8.21802 23.1221 8.22095L 22.9971 8.22534C 22.9131 8.22803 22.8291 8.23071 22.7451 8.23486L 22.5972 8.24341L 22.3701 8.25757L 22.2129 8.27051L 21.9961 8.28955L 21.835 8.30664C 21.7642 8.31421 21.6938 8.32178 21.6235 8.33057L 21.4604 8.35156L 21.2529 8.38037L 21.0894 8.40552L 20.8833 8.43945L 20.7207 8.46826L 20.5146 8.50781L 20.3545 8.54028L 20.147 8.58545L 19.9907 8.62085L 19.7793 8.67285L 19.6289 8.71069L 19.4087 8.77075L 19.2695 8.80933C 19.188 8.83276 19.1064 8.85767 19.0249 8.88257L 18.9131 8.91675C 18.7939 8.9541 18.6758 8.99292 18.5576 9.0332L 18.5518 9.03516C 18.436 9.07495 18.3208 9.11621 18.2056 9.15869L 18.0898 9.20288L 17.8838 9.28223L 17.8833 9.28857L 17.8828 9.30615C 17.8789 9.40381 17.873 9.50098 17.8657 9.59814L 17.8599 9.67383C 17.8516 9.77588 17.8423 9.87769 17.8306 9.97925L 17.8291 9.99292C 17.8208 10.0637 17.8115 10.1345 17.8018 10.2048C 19.5938 9.43774 21.5376 9.03687 23.5 9.03687C 31.4751 9.03687 37.9629 15.5249 37.9629 23.4998C 37.9629 31.4749 31.4746 37.9629 23.5 37.9629C 19.7285 37.9629 16.2905 36.5115 13.7134 34.1389ZM 10.6367 25.9082L 16.2139 25.9082C 16.5918 25.9082 16.7407 26.1963 16.7773 26.2844C 16.814 26.3728 16.9121 26.6816 16.645 26.949L 12.7051 30.8887C 11.6943 29.4163 10.9766 27.728 10.6367 25.9082ZM 20.0513 30.3547L 16.1113 34.2944C 17.5835 35.3054 19.272 36.0229 21.0918 36.363L 21.0918 30.7859C 21.0918 30.3635 20.73 30.1736 20.4727 30.1736C 20.313 30.1736 20.1714 30.2344 20.0513 30.3547ZM 25.9082 36.363L 25.9082 30.7859C 25.9082 30.3635 26.27 30.1736 26.5273 30.1736C 26.687 30.1736 26.8286 30.2346 26.9487 30.3547L 30.8887 34.2944C 29.4165 35.3054 27.728 36.0232 25.9082 36.363ZM 30.2227 26.2844C 30.186 26.3728 30.0874 26.6816 30.3545 26.949L 34.2944 30.8887C 35.3052 29.4163 36.0229 27.728 36.3633 25.9082L 30.7856 25.9082C 30.4077 25.9082 30.2593 26.1963 30.2227 26.2844ZM 36.3628 21.0918L 30.7856 21.0918C 30.4077 21.0918 30.2593 20.8037 30.2227 20.7156C 30.186 20.6272 30.0874 20.3184 30.3545 20.051L 34.2944 16.1113C 35.3052 17.5837 36.0229 19.272 36.3628 21.0918ZM 26.9487 16.6453L 30.8887 12.7056C 29.4165 11.6946 27.728 10.9768 25.9082 10.637L 25.9082 16.2144C 25.9082 16.4358 26.0088 16.5762 26.0933 16.6548C 26.21 16.7639 26.3682 16.8264 26.5273 16.8264C 26.687 16.8264 26.8286 16.7656 26.9487 16.6453ZM 21.0918 10.6382L 21.0918 16.2141C 21.0918 16.6365 20.7295 16.8264 20.4727 16.8264C 20.313 16.8264 20.1709 16.7654 20.0508 16.6453L 16.7397 13.334C 16.9922 12.8865 17.2056 12.4182 17.3774 11.9343C 18.542 11.3171 19.7964 10.8804 21.0918 10.6382ZM 20.4727 18.2031C 19.9497 18.2031 19.4541 17.9956 19.0771 17.6187L 15.9565 14.498L 15.9287 14.532L 15.8384 14.6426L 15.771 14.7234L 15.6748 14.8345L 15.6084 14.9102L 15.5005 15.0273L 15.4409 15.092C 15.3887 15.1472 15.3354 15.2019 15.2817 15.2559L 15.2559 15.2817C 15.2021 15.3352 15.1475 15.3884 15.0923 15.4407L 15.0278 15.5005L 14.9102 15.6084L 14.8345 15.6748L 14.7236 15.771L 14.6426 15.8386L 14.5327 15.9287L 14.4985 15.9568L 17.6191 19.0774C 18.1978 19.6562 18.3628 20.4858 18.0498 21.2422C 17.7363 21.9988 17.0332 22.4685 16.2144 22.4685L 10.4702 22.4685C 10.4434 22.718 10.4258 22.9688 10.4185 23.2192L 10.4175 23.2659C 10.4155 23.3438 10.4141 23.4219 10.4141 23.5C 10.4141 23.8435 10.4331 24.1887 10.4702 24.5312L 16.2144 24.5312C 17.0327 24.5312 17.7363 25.0012 18.0493 25.7576C 18.3628 26.5139 18.1978 27.3435 17.6187 27.9226L 13.5581 31.9832C 13.6548 32.1035 13.7544 32.2209 13.8564 32.3362C 14.1138 32.6167 14.3833 32.886 14.6636 33.1433C 14.7793 33.2454 14.8965 33.3452 15.0171 33.4417L 19.0771 29.3811C 19.4541 29.0042 19.9497 28.7966 20.4727 28.7966C 21.5732 28.7966 22.4688 29.689 22.4688 30.7856L 22.4688 36.5298C 23.1538 36.6045 23.8462 36.6045 24.5312 36.5298L 24.5312 30.7856C 24.5312 29.689 25.4268 28.7966 26.5273 28.7966C 27.0503 28.7966 27.5459 29.0042 27.9229 29.3811L 31.9771 33.4353C 32.5156 33.0034 33.0034 32.5154 33.4355 31.9768L 29.3813 27.9226C 28.8022 27.3438 28.6372 26.5142 28.9507 25.7576C 29.2637 25.0012 29.9673 24.5312 30.7861 24.5312L 36.5298 24.5312C 36.5674 24.1887 36.5859 23.8435 36.5859 23.5C 36.5859 23.1565 36.5674 22.8113 36.5298 22.4688L 30.7861 22.4688C 29.9673 22.4688 29.2637 21.9988 28.9507 21.2424C 28.6372 20.4858 28.8022 19.6565 29.3813 19.0774L 33.4297 15.0288C 32.998 14.4902 32.5098 14.002 31.9712 13.5703L 27.9229 17.6189C 27.5459 17.9958 27.0503 18.2034 26.5273 18.2034C 26.0234 18.2034 25.5225 18.0059 25.1533 17.6611C 24.7524 17.2866 24.5312 16.7727 24.5312 16.2141L 24.5312 10.4702C 24.1636 10.4302 23.7935 10.4121 23.4238 10.415L 23.2246 10.4182C 22.9722 10.4255 22.7202 10.4429 22.4688 10.4702L 22.4688 16.2141C 22.4688 17.3108 21.5732 18.2031 20.4727 18.2031ZM 10.6382 21.0918C 10.8804 19.7966 11.3169 18.542 11.9341 17.3777C 12.418 17.2061 12.8862 16.9924 13.334 16.74L 16.645 20.051C 16.9126 20.3184 16.814 20.6272 16.7773 20.7156C 16.7407 20.8037 16.5918 21.0918 16.2139 21.0918L 10.6382 21.0918ZM 39.6646 38.5869C 41.2769 36.8608 42.6167 34.8777 43.6147 32.7056L 40.9146 31.5701L 41.4482 30.3008L 44.1499 31.437C 45.0303 29.1533 45.5435 26.6887 45.6143 24.1152L 42.6831 24.125L 42.6787 22.748L 45.6084 22.7383C 45.5259 20.301 45.0474 17.9626 44.2344 15.7854L 41.52 16.8928L 41 15.6179L 43.7129 14.5112C 42.6851 12.209 41.2754 10.1135 39.5645 8.30566L 37.5063 10.3774L 36.5293 9.40723L 38.5869 7.33569C 36.8608 5.72339 34.8774 4.38354 32.7056 3.3855L 31.5698 6.08594L 30.3008 5.55225L 31.437 2.85034C 29.1533 1.96973 26.6885 1.45654 24.1152 1.38599L 24.125 4.31714L 22.748 4.32153L 22.7383 1.39111C 20.2427 1.47485 17.8169 1.96851 15.5063 2.86621L 15.5317 2.89478C 15.6021 2.97144 15.6714 3.04883 15.7388 3.12744C 15.8076 3.20801 15.873 3.28784 15.937 3.36816L 15.9863 3.43066C 16.0449 3.50562 16.1025 3.5813 16.1587 3.65796L 16.1753 3.68018C 16.2363 3.76367 16.2954 3.84863 16.353 3.93408L 16.395 3.99658C 16.4448 4.07178 16.4937 4.14722 16.541 4.22363L 16.5659 4.2627C 16.6196 4.35059 16.6719 4.43945 16.7227 4.52905L 16.7568 4.58984C 16.7993 4.6665 16.8408 4.74365 16.8813 4.82129L 16.9087 4.87305C 16.9556 4.96484 17.0005 5.05713 17.0444 5.15039L 17.0698 5.20605C 17.1064 5.28564 17.1421 5.36572 17.1763 5.44653L 17.2021 5.50757C 17.2417 5.60278 17.2803 5.69849 17.3164 5.79517L 17.3335 5.8418C 17.3643 5.92554 17.394 6.01001 17.4229 6.09473L 17.4458 6.16357C 17.478 6.26172 17.5088 6.36035 17.5376 6.45996L 17.5464 6.49219C 17.5723 6.58203 17.5962 6.67236 17.6191 6.76318L 17.6377 6.83789C 17.6621 6.93872 17.6855 7.04028 17.7065 7.14209L 17.7075 7.14746C 17.728 7.24731 17.7461 7.34766 17.7632 7.44849L 17.7759 7.5271C 17.7915 7.62207 17.8052 7.71704 17.8174 7.81274L 17.8203 7.83325L 18.0205 7.76294L 18.1348 7.7229C 18.2593 7.68066 18.3843 7.6394 18.5093 7.6001L 18.5439 7.5896C 18.6577 7.5542 18.772 7.51978 18.8862 7.48682L 19.0146 7.45093L 19.2661 7.38232L 19.4141 7.34473C 19.4932 7.32471 19.5718 7.30518 19.6509 7.28662L 19.8037 7.25098L 20.0425 7.19897L 20.1909 7.16772L 20.4517 7.11792L 20.5781 7.09424C 20.707 7.07153 20.8359 7.05005 20.9653 7.03027L 20.9927 7.02637C 21.1133 7.00806 21.2344 6.99121 21.3555 6.97583L 21.4878 6.95996C 21.5747 6.94971 21.6616 6.93945 21.749 6.93042L 21.9014 6.91553L 22.1465 6.89404L 22.3027 6.88232L 22.5508 6.8667L 22.7021 6.85864C 22.792 6.85425 22.8818 6.85132 22.9722 6.84839L 23.1006 6.84424C 23.2334 6.84131 23.3667 6.83936 23.5 6.83936C 32.6865 6.83936 40.1606 14.3132 40.1606 23.5C 40.1606 32.6865 32.6865 40.1606 23.5 40.1606C 14.3135 40.1606 6.83936 32.6868 6.83936 23.5C 6.83936 23.3667 6.84131 23.2336 6.84424 23.1008L 6.84863 22.9722L 6.8584 22.7021L 6.8667 22.5508L 6.88232 22.303L 6.89404 22.1465L 6.91553 21.9006L 6.93018 21.7493L 6.95996 21.4873L 6.97607 21.3555C 6.99121 21.2344 7.0083 21.1135 7.02637 20.9927L 7.03027 20.9651C 7.0498 20.8359 7.07129 20.707 7.09424 20.5781L 7.11816 20.4514C 7.13379 20.3645 7.15039 20.2776 7.16797 20.1909L 7.19922 20.0422C 7.21582 19.9626 7.23291 19.8831 7.25098 19.8037L 7.28662 19.6509L 7.34473 19.4138L 7.38232 19.2664C 7.4043 19.1824 7.42773 19.0984 7.45117 19.0144L 7.48682 18.8862C 7.52002 18.771 7.55469 18.6562 7.59033 18.5417L 7.6001 18.5095C 7.63916 18.3843 7.68066 18.2593 7.72314 18.1348L 7.76318 18.0205L 7.83301 17.8206L 7.8125 17.8174C 7.71729 17.8054 7.62207 17.7913 7.52686 17.7761L 7.44824 17.7632C 7.34766 17.7461 7.24707 17.7278 7.14746 17.7073L 7.14209 17.7063C 7.04004 17.6853 6.93896 17.6619 6.83789 17.6375L 6.76318 17.6189C 6.67236 17.5959 6.58203 17.572 6.49219 17.5464L 6.45996 17.5374C 6.36035 17.5085 6.26172 17.4778 6.16357 17.4456L 6.09473 17.4226C 6.00977 17.394 5.92529 17.3643 5.84131 17.3333L 5.79492 17.3164C 5.69873 17.28 5.60254 17.2419 5.50732 17.2021L 5.44678 17.1763C 5.36572 17.1418 5.28564 17.1064 5.20605 17.0698L 5.15039 17.0444C 5.05713 17.0007 4.96484 16.9553 4.87305 16.9084L 4.82178 16.8816C 4.74365 16.8411 4.6665 16.7993 4.58936 16.7563L 4.5293 16.7229C 4.43945 16.6719 4.35059 16.6196 4.2627 16.5657L 4.22412 16.5413C 4.14746 16.4937 4.07178 16.4448 3.99658 16.3948L 3.93457 16.3533C 3.84863 16.2954 3.76367 16.2363 3.67969 16.1753L 3.65918 16.1597C 3.58154 16.103 3.50586 16.0449 3.43018 15.9858L 3.36865 15.9373C 3.2876 15.8726 3.20703 15.8069 3.12793 15.7393C 3.04883 15.6714 2.97119 15.6018 2.89404 15.5312L 2.86621 15.5063C 1.95117 17.8623 1.45508 20.3374 1.38623 22.8848L 4.31689 22.875L 4.32178 24.252L 1.3916 24.2617C 1.47461 26.699 1.95312 29.0371 2.76562 31.2144L 5.47998 30.1072L 6 31.3821L 3.28711 32.4888C 4.31543 34.7908 5.72461 36.8865 7.43555 38.6943L 9.49365 36.6226L 10.4707 37.593L 8.41309 39.6643C 10.1392 41.2766 12.1226 42.6165 14.2944 43.6145L 15.4302 40.9141L 16.6992 41.448L 15.563 44.1497C 17.8467 45.0303 20.3115 45.5435 22.8848 45.614L 22.875 42.6831L 24.252 42.6785L 24.2617 45.6084C 26.6992 45.5256 29.0376 45.0471 31.2144 44.2344L 30.1074 41.52L 31.3823 41L 32.4888 43.7126C 34.791 42.6848 36.8867 41.2754 38.6943 39.5645L 36.6226 37.5061L 37.5933 36.5293L 39.6646 38.5869Z"/>
</defs>
</svg>
