<svg width="30" height="30" viewBox="0 0 30 30" version="1.1" xmlns="http://www.w3.org/2000/svg" xmlns:xlink="http://www.w3.org/1999/xlink">
<title>&#208;&#179;&#208;&#176;&#209;&#128;&#208;&#176;&#208;&#189;&#209;&#130;&#208;&#184;&#209;&#143;</title>
<desc>Created using Figma</desc>
<g id="Canvas" transform="translate(-7702 -280)">
<g id="&#208;&#179;&#208;&#176;&#209;&#128;&#208;&#176;&#208;&#189;&#209;&#130;&#208;&#184;&#209;&#143;">
<g id="Shape">
<use xlink:href="#path0_fill" transform="translate(7702 280)" fill="#549B55"/>
</g>
<g id="Shape">
<use xlink:href="#path1_fill" transform="translate(7710.45 285.652)" fill="#549B55"/>
</g>
</g>
</g>
<defs>
<path id="path0_fill" fill-rule="evenodd" d="M 25.3159 17.8398L 29.8115 22.4737C 29.9849 22.6522 30.0449 22.9167 29.9658 23.1557C 29.8867 23.3948 29.6826 23.5668 29.4399 23.5994L 24.4404 24.27L 23.7896 29.4228C 23.7578 29.6732 23.5908 29.8833 23.3589 29.9647C 23.2915 29.9884 23.2212 30 23.1519 30C 22.9844 30 22.8198 29.9322 22.6973 29.8058L 16.6279 23.5491C 16.1582 23.89 15.6299 24.2124 15 24.2124C 14.3696 24.2124 13.8418 23.89 13.3721 23.5491L 7.30273 29.8058C 7.18018 29.9322 7.01562 30 6.84766 30C 6.77832 30 6.7085 29.9884 6.64062 29.9647C 6.40869 29.8834 6.2417 29.6732 6.21045 29.4228L 5.55957 24.27L 0.560059 23.5994C 0.316895 23.5668 0.113281 23.3948 0.0341797 23.1558C -0.0444336 22.9167 0.0151367 22.6522 0.188477 22.4737L 4.68408 17.8399C 4.49023 17.2754 4.55127 16.6566 4.60742 16.0998L 4.60791 16.095C 4.65039 15.669 4.68994 15.2668 4.61426 14.9743C 4.54395 14.7027 4.31982 14.3852 4.08203 14.0491C 3.69385 13.4996 3.25391 12.8768 3.25391 12.1063C 3.25391 11.3357 3.69385 10.7129 4.08203 10.1634C 4.31982 9.82727 4.54395 9.50986 4.61426 9.23822C 4.68994 8.94571 4.65039 8.54349 4.60791 8.11746L 4.60742 8.11267C 4.54053 7.44812 4.46533 6.69492 4.82617 6.05151C 5.19238 5.39902 5.86914 5.08908 6.46582 4.81564L 6.47021 4.8136C 6.84473 4.64182 7.19873 4.47937 7.39941 4.2724C 7.60059 4.06464 7.75879 3.69824 7.92627 3.31033C 8.19141 2.69528 8.49219 1.99817 9.12549 1.62076C 9.44971 1.42725 9.82471 1.3371 10.3057 1.3371C 10.582 1.3371 10.8584 1.36652 11.125 1.39499L 11.1294 1.39545C 11.375 1.42157 11.6074 1.44623 11.8198 1.44623C 11.9805 1.44623 12.1104 1.43192 12.2173 1.40244C 12.481 1.3299 12.7891 1.09866 13.1147 0.853882C 13.6479 0.453674 14.2524 0 15 0C 15.7476 0 16.3521 0.453674 16.8853 0.853882C 17.2114 1.09866 17.519 1.32983 17.7827 1.40244C 17.8896 1.43192 18.02 1.44623 18.1807 1.44623C 18.3926 1.44623 18.625 1.42157 18.8706 1.39545L 18.875 1.39499C 19.1421 1.36652 19.418 1.3371 19.6943 1.3371C 20.1753 1.3371 20.5503 1.42725 20.875 1.62082C 21.5078 1.99823 21.8086 2.69528 22.0737 3.31027C 22.2412 3.69824 22.3994 4.06464 22.6011 4.2724C 22.8018 4.47952 23.1562 4.64215 23.5308 4.81409L 23.5342 4.81558C 24.1313 5.08908 24.8076 5.39902 25.1738 6.05145C 25.5352 6.69492 25.4595 7.44812 25.3931 8.11267C 25.3501 8.54047 25.3096 8.94461 25.3857 9.23822C 25.4561 9.50986 25.6802 9.82727 25.918 10.1634C 26.3062 10.7129 26.7466 11.3357 26.7466 12.1063C 26.7466 12.8767 26.3062 13.4996 25.918 14.0491C 25.6802 14.3852 25.4561 14.7027 25.3857 14.9743C 25.3096 15.2679 25.3501 15.672 25.3931 16.0998C 25.4487 16.6565 25.5098 17.2754 25.3159 17.8398ZM 6.21631 23.0216C 6.50586 23.0604 6.7334 23.2951 6.771 23.5932L 7.31689 27.9165L 12.2583 22.8228L 12.2173 22.8102C 12.1104 22.7807 11.98 22.7664 11.8193 22.7664C 11.606 22.7664 11.3726 22.7912 11.125 22.8175C 10.8584 22.846 10.582 22.8754 10.3062 22.8754C 9.8252 22.8754 9.44971 22.7853 9.12549 22.5917C 8.49219 22.2143 8.19141 21.5172 7.92627 20.9022C 7.75879 20.5143 7.60059 20.1479 7.39941 19.9401C 7.19775 19.7324 6.84229 19.5695 6.46582 19.397C 6.14551 19.2502 5.80273 19.0923 5.49658 18.8772L 2.02148 22.4589L 6.21631 23.0216ZM 13.8721 22.2873C 13.4653 21.9818 13.0444 21.666 12.5498 21.5297C 12.333 21.4699 12.0942 21.4409 11.8198 21.4409C 11.54 21.4409 11.2622 21.4705 10.9932 21.4991C 10.7476 21.5252 10.5161 21.5499 10.3062 21.5499C 10.064 21.5499 9.88867 21.5154 9.76953 21.4444C 9.49805 21.2824 9.29639 20.8153 9.10156 20.3636C 8.89404 19.8822 8.6792 19.3846 8.30859 19.0028C 7.93848 18.6212 7.45557 18.3998 6.98828 18.1858C 6.55029 17.985 6.09668 17.7773 5.93994 17.4972C 5.7876 17.2261 5.83789 16.7228 5.88672 16.2361L 5.88721 16.2307C 5.93994 15.7041 5.99414 15.1597 5.85693 14.6321C 5.72461 14.122 5.41846 13.6883 5.12207 13.2689C 4.82275 12.8453 4.54004 12.4453 4.54004 12.1063C 4.54004 11.7673 4.82275 11.3673 5.12207 10.9438C 5.41846 10.5244 5.7251 10.0907 5.85693 9.58057C 5.99463 9.05115 5.93994 8.50488 5.88672 7.97656C 5.83789 7.48987 5.7876 6.98657 5.93945 6.71545C 6.09668 6.43546 6.55029 6.22775 6.98828 6.02686C 7.45557 5.81284 7.93848 5.59149 8.30908 5.20975C 8.6792 4.82803 8.89404 4.33029 9.10156 3.849C 9.29639 3.39728 9.49805 2.93015 9.76953 2.76813C 9.88867 2.69711 10.0645 2.66266 10.3062 2.66266C 10.5161 2.66266 10.748 2.68735 10.9932 2.71347C 11.2622 2.74213 11.54 2.77173 11.8198 2.77173C 12.0942 2.77173 12.333 2.74271 12.5498 2.68298C 13.0444 2.54666 13.4653 2.23083 13.8726 1.92535C 14.2832 1.61691 14.6714 1.3255 15.0005 1.3255C 15.3291 1.3255 15.7173 1.61691 16.1284 1.92535C 16.5352 2.23083 16.9561 2.54666 17.4512 2.68298C 17.668 2.74271 17.9067 2.77173 18.1807 2.77173C 18.4604 2.77173 18.7383 2.74213 19.0073 2.71347C 19.2529 2.68735 19.4849 2.66266 19.6943 2.66266C 19.9365 2.66266 20.1123 2.6972 20.231 2.76813C 20.5029 2.93015 20.7046 3.39722 20.8994 3.84891C 21.1069 4.33023 21.3218 4.82797 21.6919 5.20969C 22.0625 5.5914 22.5454 5.81277 23.0122 6.02679C 23.4507 6.22769 23.9038 6.43533 24.061 6.71536C 24.2134 6.98657 24.1626 7.48987 24.1138 7.97662C 24.061 8.50488 24.0063 9.05115 24.1436 9.58051C 24.2759 10.0907 24.582 10.5243 24.8784 10.9437C 25.1782 11.3673 25.4604 11.7673 25.4604 12.1063C 25.4604 12.4453 25.1777 12.8453 24.8784 13.2689C 24.582 13.6883 24.2759 14.122 24.1436 14.6321C 24.0063 15.1615 24.061 15.7078 24.1138 16.236C 24.1626 16.7227 24.2134 17.2261 24.061 17.4973C 23.9038 17.7773 23.4507 17.985 23.0122 18.1858C 22.5449 18.3998 22.062 18.6211 21.6919 19.0029C 21.3228 19.3831 21.1084 19.8786 20.9014 20.3583L 20.8989 20.3636C 20.7041 20.8154 20.5029 21.2825 20.231 21.4445C 20.1118 21.5154 19.9365 21.55 19.6943 21.55C 19.4844 21.55 19.2529 21.5253 19.0073 21.4992C 18.7383 21.4705 18.4604 21.4409 18.1807 21.4409C 17.9062 21.4409 17.6675 21.4699 17.4512 21.5297C 16.9561 21.666 16.5352 21.9819 16.1284 22.2873C 15.7173 22.5957 15.3291 22.8871 15.0005 22.8871C 14.6714 22.8871 14.2832 22.5957 13.8721 22.2873ZM 23.2285 23.5931C 23.2666 23.295 23.4941 23.0603 23.7832 23.0215L 27.9785 22.4589L 24.5034 18.8771C 24.1973 19.0922 23.8545 19.2501 23.5342 19.3969C 23.1577 19.5693 22.8022 19.7323 22.6006 19.94C 22.3999 20.1468 22.2427 20.511 22.0757 20.8971L 22.0737 20.902C 21.8081 21.5171 21.5078 22.2142 20.8745 22.5917C 20.5503 22.7851 20.1748 22.8753 19.6938 22.8753C 19.418 22.8753 19.1416 22.8459 18.8745 22.8174C 18.6274 22.7912 18.3936 22.7663 18.1802 22.7663C 18.0195 22.7663 17.8896 22.7806 17.7827 22.8101L 17.7417 22.8228L 22.6826 27.9165L 23.2285 23.5931Z"/>
<path id="path1_fill" fill-rule="evenodd" d="M 11.1733 12.6826C 11.2197 12.9377 11.1206 13.1976 10.9194 13.3501C 10.7183 13.5027 10.4507 13.5204 10.2324 13.3957L 6.76074 11.4109L 3.28857 13.3957C 3.19189 13.4509 3.08545 13.4782 2.97949 13.4782C 2.84668 13.4782 2.71387 13.4351 2.60156 13.3501C 2.40039 13.1976 2.30127 12.9377 2.34766 12.6826L 3.08496 8.62543L 0.202148 5.79504C 0.0209961 5.61716 -0.0454102 5.34622 0.03125 5.0994C 0.108398 4.85257 0.314941 4.67416 0.561523 4.64133L 4.48877 4.11871L 6.1792 0.38443C 6.28516 0.149719 6.51172 0 6.76074 0C 7.00928 0 7.23584 0.149719 7.34229 0.38443L 9.03223 4.11871L 12.9595 4.64133C 13.2061 4.67416 13.4126 4.85257 13.4897 5.0994C 13.5664 5.34622 13.5 5.61716 13.3188 5.79504L 10.436 8.62543L 11.1733 12.6826ZM 6.76074 9.97522C 6.8667 9.97522 6.97314 10.0027 7.06982 10.0578L 9.65576 11.5364L 9.10693 8.51398C 9.06592 8.28894 9.13818 8.05768 9.29785 7.90073L 11.4453 5.79224L 8.51953 5.40295C 8.30176 5.37396 8.11328 5.23108 8.01953 5.02396L 6.76025 2.24213L 5.50146 5.02396C 5.40771 5.23108 5.21924 5.37396 5.00098 5.40295L 2.07568 5.79224L 4.22314 7.90073C 4.38281 8.05774 4.45508 8.289 4.41406 8.51398L 3.86523 11.5364L 6.45117 10.0578C 6.54785 10.0028 6.6543 9.97522 6.76074 9.97522Z"/>
</defs>
</svg>
