<svg width="27" height="18" viewBox="0 0 27 18" version="1.1" xmlns="http://www.w3.org/2000/svg" xmlns:xlink="http://www.w3.org/1999/xlink">
<title>&#208;&#186;&#209;&#128;&#208;&#181;&#208;&#180;&#208;&#184;&#209;&#130;</title>
<desc>Created using Figma</desc>
<g id="Canvas" transform="translate(-7704 -346)">
<g id="&#208;&#186;&#209;&#128;&#208;&#181;&#208;&#180;&#208;&#184;&#209;&#130;">
<g id="Shape">
<use xlink:href="#path0_fill" transform="translate(7702 344.008)" fill="#549B55"/>
</g>
<g id="Shape">
<use xlink:href="#path1_fill" transform="translate(7715.51 346.462)" fill="#549B55"/>
</g>
<g id="Shape">
<use xlink:href="#path2_fill" transform="translate(7704.47 354.243)" fill="#549B55"/>
</g>
<g id="Shape">
<use xlink:href="#path3_fill" transform="translate(7709.34 354.243)" fill="#549B55"/>
</g>
<g id="Shape">
<use xlink:href="#path2_fill" transform="translate(7714.21 354.243)" fill="#549B55"/>
</g>
<g id="Shape">
<use xlink:href="#path2_fill" transform="translate(7719.07 354.243)" fill="#549B55"/>
</g>
<g id="Shape">
<use xlink:href="#path4_fill" transform="translate(7704.61 346.672)" fill="#549B55"/>
</g>
</g>
</g>
<defs>
<path id="path0_fill" fill-rule="evenodd" d="M 7.64209 16.1245L 28.8047 16.1245L 28.8047 9.1756C 28.8047 9.00348 28.668 8.86343 28.4995 8.86343L 23.5532 8.86343L 23.5532 13.569C 23.5532 14.4148 22.8804 15.1029 22.0527 15.1029L 7.64209 15.1029L 7.64209 16.1245ZM 28.8047 19.2093L 7.64209 19.2093L 7.64209 17.3464L 28.8047 17.3464L 28.8047 19.2093Z"/>
<path id="path1_fill" fill-rule="evenodd" d="M 5.39844 0C 4.75977 0 4.18506 0.282715 3.78662 0.732056C 3.38818 0.282715 2.81348 0 2.1748 0C 0.975586 0 0 0.997375 0 2.22339C 0 3.4494 0.975586 4.44678 2.1748 4.44678C 2.81348 4.44678 3.38818 4.16409 3.78662 3.71475C 4.18506 4.16409 4.75977 4.44678 5.39844 4.44678C 6.59766 4.44678 7.57324 3.4494 7.57324 2.22339C 7.57324 0.997375 6.59766 0 5.39844 0ZM 2.17529 3.22507C 1.63477 3.22507 1.19531 2.77579 1.19531 2.22345C 1.19531 1.67114 1.63477 1.2218 2.17529 1.2218C 2.71533 1.2218 3.15479 1.67114 3.15479 2.22345C 3.15479 2.77573 2.71533 3.22507 2.17529 3.22507ZM 4.41846 2.22345C 4.41846 2.77579 4.85791 3.22507 5.39844 3.22507C 5.93848 3.22507 6.37793 2.77573 6.37793 2.22345C 6.37793 1.67114 5.93848 1.2218 5.39844 1.2218C 4.85791 1.2218 4.41846 1.67114 4.41846 2.22345Z"/>
<path id="path2_fill" d="M 3.48088 0L 0.597598 0C 0.267539 0 0 0.273544 0 0.610878C 0 0.948211 0.267539 1.22176 0.597598 1.22176L 3.48088 1.22176C 3.81094 1.22176 4.07848 0.948211 4.07848 0.610878C 4.07848 0.273544 3.81094 0 3.48088 0Z"/>
<path id="path3_fill" d="M 3.48082 0L 0.597598 0C 0.267539 0 0 0.273544 0 0.610878C 0 0.948211 0.267539 1.22176 0.597598 1.22176L 3.48088 1.22176C 3.81094 1.22176 4.07848 0.948211 4.07848 0.610878C 4.07848 0.273544 3.81088 0 3.48082 0Z"/>
<path id="path4_fill" fill-rule="evenodd" d="M 1.19775 0L 2.46631 0C 3.12695 0 3.66406 0.549194 3.66406 1.22427L 3.66406 2.52124C 3.66406 3.19635 3.12695 3.74551 2.46631 3.74551L 1.19775 3.74551C 0.537109 3.74551 0 3.19635 0 2.52124L 0 1.22427C 0 0.549194 0.537109 0 1.19775 0ZM 1.19531 2.52124L 2.46777 2.52368L 2.46924 1.22424L 1.19775 1.22174L 1.19531 2.52124Z"/>
</defs>
</svg>
