<svg width="30" height="27" viewBox="0 0 30 27" version="1.1" xmlns="http://www.w3.org/2000/svg" xmlns:xlink="http://www.w3.org/1999/xlink">
<title>&#208;&#158;&#208;&#191;&#208;&#187;&#208;&#176;&#209;&#130;&#208;&#176;</title>
<desc>Created using Figma</desc>
<g id="Canvas" transform="translate(-7702 -403)">
<g id="&#208;&#158;&#208;&#191;&#208;&#187;&#208;&#176;&#209;&#130;&#208;&#176;">
<g id="Shape">
<use xlink:href="#path0_fill" transform="translate(7702 417)" fill="#549B55"/>
</g>
<g id="Shape">
<use xlink:href="#path1_fill" transform="translate(7706 403)" fill="#549B55"/>
</g>
<g id="Shape">
<use xlink:href="#path2_fill" transform="translate(7715 405)" fill="#549B55"/>
</g>
<g id="Shape">
<use xlink:href="#path3_fill" transform="translate(7710 408)" fill="#549B55"/>
</g>
<g id="Shape">
<use xlink:href="#path3_fill" transform="translate(7724 408)" fill="#549B55"/>
</g>
</g>
</g>
<defs>
<path id="path0_fill" fill-rule="evenodd" d="M 28.3169 5.46576C 27.9277 5.11121 27.4395 4.94778 26.9419 5.00616C 26.106 5.10379 25.0117 5.33432 23.8535 5.57837C 22.2891 5.90796 20.6714 6.24872 19.4331 6.32779C 18.3633 6.3959 16.415 6.11121 15.8379 5.80237C 15.4487 5.59406 15.231 5.33856 15.1089 5.1127L 17.5098 5.1127C 18.5005 5.1127 19.3062 4.28958 19.3062 3.27786L 19.3062 1.83694C 19.3062 0.825226 18.5005 0.00216675 17.5098 0.00216675L 10.9287 0.00216675C 10.6489 -0.0065918 7.29102 -0.0711975 4.96582 1.9549C 4.5542 2.31348 4.22705 2.65228 3.96582 2.96017C 3.68945 2.6077 3.26514 2.38126 2.79004 2.38126L 0.644531 2.38126C 0.288574 2.38126 0 2.67606 0 3.0397L 0 12.3416C 0 12.5162 0.0678711 12.6837 0.188965 12.8072C 0.30957 12.9306 0.473633 13 0.644531 13L 2.79004 12.9999C 3.62012 12.9999 4.2959 12.31 4.2959 11.4619L 4.2959 10.9558C 4.9375 10.997 6.39111 11.1591 9.46826 11.7493C 13.1021 12.4463 15.3696 12.6825 17.1562 12.6824C 18.4365 12.6824 19.4702 12.5612 20.5815 12.4012C 21.9561 12.2036 23.6846 11.7041 25.2095 11.2635C 25.9155 11.0595 26.5825 10.8669 27.1724 10.7148C 28.7627 10.3052 29 9.28104 29 8.70694L 29 7.02957C 29 6.44009 28.7446 5.85547 28.3169 5.46576ZM 3.00635 11.4619C 3.00635 11.5839 2.90918 11.683 2.79004 11.683L 1.28906 11.6831L 1.28906 3.69818L 2.79004 3.69818C 2.90918 3.69818 3.00635 3.79739 3.00635 3.91934L 3.00635 11.4619ZM 26.8574 9.43793C 27.7109 9.21808 27.7109 8.84686 27.7109 8.707L 27.7109 7.02969C 27.7109 6.81293 27.6143 6.59018 27.459 6.44852C 27.3804 6.37677 27.2524 6.29556 27.0884 6.31451C 26.3101 6.40543 25.2432 6.63019 24.1143 6.86816C 22.5059 7.20703 20.8428 7.55737 19.5137 7.64215C 18.4287 7.71176 16.1562 7.45926 15.2402 6.96893C 14.2383 6.43289 13.8726 5.65268 13.7397 5.11276L 10.9175 5.11276C 10.5615 5.11276 10.2729 4.81799 10.2729 4.45435C 10.2729 4.0907 10.5615 3.7959 10.9175 3.7959L 17.5103 3.7959C 17.7896 3.7959 18.0171 3.56357 18.0171 3.27792L 18.0171 1.83704C 18.0171 1.55145 17.7896 1.31912 17.5103 1.31912L 10.9175 1.31912L 10.8926 1.3186C 10.8623 1.31754 7.79004 1.22531 5.80273 2.95688C 4.93066 3.71625 4.52393 4.34592 4.3584 4.65369C 4.34033 4.68787 4.31885 4.71915 4.2959 4.74857L 4.2959 9.63736C 5.05469 9.67868 6.59766 9.85889 9.70654 10.4551C 15.751 11.6144 17.8657 11.462 20.4023 11.0972C 21.6899 10.9121 23.3735 10.4256 24.8589 9.99634L 24.8726 9.99246C 25.5825 9.78729 26.2534 9.5936 26.8574 9.43793Z"/>
<path id="path1_fill" fill-rule="evenodd" d="M 1.65674 0L 24.3433 0C 25.2568 0 26 0.745819 26 1.66248L 26 12.3373C 26 13.2541 25.2568 14 24.3433 14L 1.65674 14C 0.743164 14 0 13.2541 0 12.3373L 0 1.66257C 0 0.745819 0.743164 0 1.65674 0ZM 4.8623 12.7034L 21.1392 12.7034C 21.3105 10.771 22.8071 9.21631 24.708 8.96307L 24.708 4.85995C 22.8652 4.61447 21.4028 3.1463 21.1587 1.29648L 4.84277 1.29648C 4.59863 3.14667 3.13525 4.61511 1.29199 4.86008L 1.29199 8.96295C 3.19385 9.21564 4.69141 10.7705 4.8623 12.7034ZM 24.7085 1.66248L 24.7085 3.5473C 23.5791 3.32559 22.6875 2.43024 22.4668 1.29648L 24.3438 1.29648C 24.5449 1.29654 24.7085 1.46069 24.7085 1.66248ZM 3.53467 1.29654L 1.65674 1.29654C 1.45557 1.29654 1.29199 1.46069 1.29199 1.66248L 1.29199 3.54761C 2.42188 3.32626 3.31445 2.43073 3.53467 1.29654ZM 1.29199 12.3373L 1.29199 10.2755C 2.47998 10.5082 3.40527 11.4863 3.56299 12.7034L 1.65674 12.7034C 1.45557 12.7034 1.29199 12.5392 1.29199 12.3373ZM 22.4385 12.7034L 24.3438 12.7034C 24.5449 12.7034 24.7085 12.5392 24.708 12.3373L 24.708 10.2758C 23.5205 10.5088 22.5962 11.4867 22.4385 12.7034Z"/>
<path id="path2_fill" fill-rule="evenodd" d="M 0 4.99994C 0 2.24295 2.24316 0 5 0C 7.75684 0 10 2.24301 10 4.99994C 10 7.75699 7.75684 10 5 10C 2.24316 10 0 7.75699 0 4.99994ZM 1.39795 5C 1.39795 6.98633 3.01367 8.60226 5 8.60226C 6.98633 8.60226 8.60254 6.98627 8.60254 5C 8.60254 3.01379 6.98633 1.39786 5 1.39786C 3.01367 1.39786 1.39795 3.01379 1.39795 5Z"/>
<path id="path3_fill" fill-rule="evenodd" d="M 0 2.00003C 0 0.897156 0.896973 0 2 0C 3.10303 0 4 0.897156 4 2.00003C 4 3.10284 3.10303 4 2 4C 0.896973 4 0 3.10284 0 2.00003ZM 1.30029 1.99997C 1.30029 2.38577 1.61426 2.69952 2 2.69952C 2.38574 2.69952 2.69971 2.38577 2.69971 1.99997C 2.69971 1.6142 2.38574 1.30035 2 1.30035C 1.61426 1.30035 1.30029 1.6142 1.30029 1.99997Z"/>
</defs>
</svg>
