<svg width="32" height="25" viewBox="0 0 32 25" version="1.1" xmlns="http://www.w3.org/2000/svg" xmlns:xlink="http://www.w3.org/1999/xlink">
<title>&#208;&#148;&#208;&#190;&#209;&#129;&#209;&#130;&#208;&#176;&#208;&#178;&#208;&#186;&#208;&#176;</title>
<desc>Created using Figma</desc>
<g id="Canvas" transform="translate(-7700 -221)">
<g id="&#208;&#148;&#208;&#190;&#209;&#129;&#209;&#130;&#208;&#176;&#208;&#178;&#208;&#186;&#208;&#176;">
<g id="Shape">
<use xlink:href="#path0_fill" transform="translate(7706.67 224.167)" fill="#549B55"/>
</g>
<g id="Shape">
<use xlink:href="#path1_fill" transform="translate(7700 221.5)" fill="#549B55"/>
</g>
<g id="Shape">
<use xlink:href="#path2_fill" transform="translate(7722.67 230.833)" fill="#549B55"/>
</g>
</g>
</g>
<defs>
<path id="path0_fill" d="M 2.66669 7.33331C 2.83725 7.33331 3.00781 7.26819 3.13806 7.138C 3.3985 6.87756 3.3985 6.45569 3.13806 6.19531L 1.33337 4.39062L 1.33337 0.666687C 1.33337 0.298187 1.03519 0 0.666687 0C 0.298187 0 0 0.298187 0 0.666687L 0 4.66669C 0 4.84375 0.0703125 5.01306 0.195312 5.13806L 2.19531 7.13806C 2.32556 7.26819 2.49612 7.33331 2.66669 7.33331Z"/>
<path id="path1_fill" fill-rule="evenodd" d="M 26.4712 6.862L 31.8047 12.1953C 31.9297 12.3203 32 12.4896 32 12.6666L 32 20.6666C 32 21.0351 31.7017 21.3333 31.3335 21.3333L 29.2661 21.3333C 28.9561 22.8529 27.6104 24 26 24C 24.3896 24 23.0439 22.8529 22.7339 21.3333L 14.5991 21.3333C 14.2896 22.8529 12.9434 24 11.3335 24C 9.72314 24 8.37695 22.8529 8.06738 21.3333L 8 21.3333C 6.52979 21.3333 5.3335 20.1373 5.3335 18.6666L 5.3335 14.3823C 2.26025 13.5087 0 10.6828 0 7.33331C 0 3.28969 3.29053 0 7.3335 0C 10.1758 0 12.6406 1.62926 13.8569 4L 20.6665 4C 21.0352 4 21.3335 4.29819 21.3335 4.66669L 21.3335 6.66669L 26 6.66669C 26.1772 6.66669 26.3462 6.737 26.4712 6.862ZM 7.3335 1.33331C 4.0249 1.33331 1.3335 4.02469 1.3335 7.33331C 1.3335 10.6419 4.0249 13.3333 7.3335 13.3333C 10.6421 13.3333 13.3335 10.6419 13.3335 7.33331C 13.3335 4.02475 10.6421 1.33331 7.3335 1.33331ZM 11.3335 22.6667C 10.2305 22.6667 9.3335 21.7696 9.3335 20.6667C 9.3335 19.5638 10.2305 18.6667 11.3335 18.6667C 12.4365 18.6667 13.3335 19.5638 13.3335 20.6667C 13.3335 21.7696 12.4365 22.6667 11.3335 22.6667ZM 14.5991 20L 20 20L 20 5.33337L 14.3823 5.33337C 14.563 5.97018 14.6665 6.63937 14.6665 7.33337C 14.6665 11.377 11.376 14.6667 7.33301 14.6667C 7.10791 14.6667 6.88623 14.6529 6.6665 14.6329L 6.6665 18.6667C 6.6665 19.4017 7.26416 20 8 20L 8.06738 20C 8.37695 18.4804 9.72314 17.3333 11.333 17.3333C 12.9434 17.3333 14.2896 18.4804 14.5991 20ZM 26 22.6667C 24.897 22.6667 24 21.7696 24 20.6667C 24 19.5638 24.897 18.6667 26 18.6667C 27.103 18.6667 28 19.5638 28 20.6667C 28 21.7696 27.103 22.6667 26 22.6667ZM 29.2661 20L 30.6665 20L 30.667 12.9427L 25.7241 8L 21.3335 8L 21.3335 20L 22.7344 20C 23.0439 18.4804 24.3901 17.3333 26 17.3333C 27.6104 17.3333 28.9565 18.4804 29.2661 20Z"/>
<path id="path2_fill" d="M 1.33337 0.666687C 1.33337 0.298187 1.03519 0 0.666687 0C 0.298187 0 0 0.298187 0 0.666687L 0 4.66669C 0 5.03519 0.298187 5.33337 0.666687 5.33337L 6 5.33337C 6.3685 5.33337 6.66669 5.03519 6.66669 4.66669C 6.66669 4.29819 6.3685 4 6 4L 1.33337 4L 1.33337 0.666687Z"/>
</defs>
</svg>
