<svg width="102" height="102" viewBox="0 0 102 102" version="1.1" xmlns="http://www.w3.org/2000/svg" xmlns:xlink="http://www.w3.org/1999/xlink">
<title>&#208;&#159;&#208;&#190;&#209;&#129;&#209;&#130;&#208;&#176;&#208;&#178;&#209;&#137;&#208;&#184;&#208;&#186;</title>
<desc>Created using Figma</desc>
<g id="Canvas" transform="translate(-7753 -2670)">
<g id="&#208;&#159;&#208;&#190;&#209;&#129;&#209;&#130;&#208;&#176;&#208;&#178;&#209;&#137;&#208;&#184;&#208;&#186;">
<g id="&#208;&#154;&#209;&#128;&#209;&#131;&#208;&#179;">
<use xlink:href="#path0_fill" transform="translate(7754 2671)" fill="#FFFFFF"/>
<use xlink:href="#path1_stroke" transform="translate(7754 2671)" fill="#FFD806"/>
</g>
<g id="truck">
<g id="Shape">
<use xlink:href="#path2_fill" transform="translate(7781 2702.1)"/>
</g>
<g id="Shape">
<use xlink:href="#path3_fill" transform="translate(7788.82 2732.79)"/>
</g>
<g id="Shape">
<use xlink:href="#path3_fill" transform="translate(7817 2732.79)"/>
</g>
<g id="Shape">
<use xlink:href="#path4_fill" transform="translate(7787.27 2705.26)"/>
</g>
<g id="Shape">
<use xlink:href="#path5_fill" transform="translate(7798.23 2706.84)"/>
</g>
<g id="Shape">
<use xlink:href="#path6_fill" transform="translate(7788.84 2717.07)"/>
</g>
</g>
</g>
</g>
<defs>
<path id="path0_fill" fill-rule="evenodd" d="M 50 100C 77.6142 100 100 77.6142 100 50C 100 22.3858 77.6142 0 50 0C 22.3858 0 0 22.3858 0 50C 0 77.6142 22.3858 100 50 100Z"/>
<path id="path1_stroke" d="M 50 100.5C 77.8904 100.5 100.5 77.8904 100.5 50L 99.5 50C 99.5 77.3381 77.3381 99.5 50 99.5L 50 100.5ZM 100.5 50C 100.5 22.1096 77.8904 -0.5 50 -0.5L 50 0.5C 77.3381 0.5 99.5 22.6619 99.5 50L 100.5 50ZM 50 -0.5C 22.1096 -0.5 -0.5 22.1096 -0.5 50L 0.5 50C 0.5 22.6619 22.6619 0.5 50 0.5L 50 -0.5ZM -0.5 50C -0.5 77.8904 22.1096 100.5 50 100.5L 50 99.5C 22.6619 99.5 0.5 77.3381 0.5 50L -0.5 50Z"/>
<path id="path2_fill" fill-rule="evenodd" d="M 46.2871 13.1155L 43.9097 10.4951L 41.7778 8.1355L 41.5474 7.875L 39.4727 5.58765C 38.9829 5.0376 38.2769 4.71924 37.5425 4.71924L 29.7485 4.71924L 29.7485 3.05444C 29.7485 1.37524 28.3945 0 26.709 0L 3.03955 0C 1.354 0.0144043 0 1.37524 0 3.05444L 0 22.0327L 0 23.6108L 0 30.2988C 0 31.8188 1.22461 33.0493 2.7373 33.0493L 3.96191 33.0493C 4.33643 35.7129 6.62695 37.7686 9.37842 37.7686C 12.1304 37.7686 14.4204 35.7129 14.7954 33.0493L 29.7202 33.0493L 32.126 33.0493C 32.5005 35.7129 34.791 37.7686 37.5425 37.7686C 40.3086 37.7686 42.5845 35.7129 42.9595 33.0493L 45.2642 33.0493C 46.1865 33.0493 46.9355 32.2964 46.9355 31.3701L 46.9355 23.6108L 46.9644 23.6108L 46.9644 14.8818C 46.9639 14.23 46.7192 13.5933 46.2871 13.1155ZM 9.39307 36.1907C 7.23193 36.1907 5.47461 34.4246 5.47461 32.2532C 5.47461 30.0818 7.23193 28.3157 9.39307 28.3157C 11.5537 28.3157 13.3115 30.0818 13.3115 32.2532C 13.3115 34.4246 11.5537 36.1907 9.39307 36.1907ZM 14.8096 31.4712L 28.1782 31.4712L 28.1782 23.5964L 1.56982 23.5964L 1.56982 30.2844C 1.56982 30.9358 2.08838 31.4714 2.73682 31.4714L 3.97559 31.4714L 3.97559 31.4426C 3.97559 31.4136 3.97559 31.3848 3.99023 31.3413C 3.99609 31.3171 3.99951 31.2954 4.00293 31.2739L 4.00439 31.2632C 4.00781 31.2373 4.01172 31.2117 4.01904 31.1821C 4.02588 31.1604 4.02979 31.1423 4.0332 31.1243C 4.03662 31.1062 4.04004 31.0881 4.04736 31.0664L 4.06934 30.9939L 4.09082 30.9214L 4.09912 30.8906L 4.10107 30.8823L 4.10303 30.8735L 4.10498 30.8647C 4.1084 30.8462 4.1123 30.8279 4.11963 30.8057C 4.13281 30.7527 4.146 30.7119 4.15918 30.6721L 4.1626 30.6609C 4.18262 30.6306 4.18896 30.6074 4.1958 30.5813L 4.20605 30.5452C 4.20605 30.5044 4.22021 30.4707 4.23389 30.4392L 4.24902 30.4004C 4.26367 30.3713 4.27783 30.3423 4.29248 30.2991C 4.30127 30.2642 4.31494 30.2346 4.32764 30.2073L 4.33057 30.2004L 4.33252 30.1963C 4.33936 30.1819 4.3457 30.168 4.3501 30.1541C 4.35645 30.1353 4.36279 30.1218 4.36914 30.1091L 4.37158 30.1038C 4.37891 30.0891 4.38623 30.0745 4.39355 30.0527C 4.40137 30.0195 4.41455 29.9912 4.42676 29.9651L 4.42871 29.9609L 4.43262 29.9524L 4.43457 29.9478C 4.44092 29.9343 4.44678 29.9211 4.45117 29.908L 4.49414 29.821C 4.5083 29.7776 4.5376 29.7197 4.56641 29.6763L 4.60938 29.5894L 4.64697 29.5254C 4.67236 29.481 4.69531 29.4412 4.72461 29.4011C 4.72461 29.3848 4.72461 29.3777 4.72754 29.3718C 4.72949 29.3674 4.73291 29.364 4.73926 29.3577C 4.79443 29.2883 4.83643 29.2188 4.87793 29.1497L 4.8833 29.1406C 4.88965 29.1343 4.89551 29.1257 4.90137 29.1167L 4.90479 29.1118L 4.90771 29.1074C 4.91406 29.0979 4.91992 29.0889 4.92627 29.0828C 4.95508 29.0247 4.98389 28.9812 5.02734 28.938C 5.0415 28.9236 5.07031 28.8945 5.08496 28.8655C 5.09717 28.8535 5.10645 28.8386 5.1167 28.8223L 5.11914 28.8186C 5.13281 28.7974 5.14795 28.7734 5.17139 28.7498C 5.17871 28.7356 5.18896 28.7217 5.19971 28.7075L 5.20312 28.7026C 5.21289 28.6892 5.22266 28.676 5.229 28.6628C 5.25098 28.6411 5.26514 28.623 5.2793 28.605C 5.29395 28.5869 5.30859 28.5688 5.33008 28.5471C 5.34473 28.5327 5.35547 28.5181 5.36621 28.5034C 5.37695 28.489 5.3877 28.4746 5.40186 28.4602C 5.42969 28.4417 5.44531 28.4233 5.46436 28.4014L 5.50293 28.3589L 5.57471 28.2866C 5.59326 28.2585 5.61182 28.2427 5.63428 28.2231L 5.67578 28.1853C 5.69043 28.1709 5.70459 28.1599 5.71875 28.1489C 5.7334 28.1382 5.74805 28.1274 5.76221 28.1128C 5.7832 28.0986 5.80127 28.0845 5.81885 28.0701C 5.83691 28.0554 5.85547 28.0408 5.87744 28.0261C 5.90625 27.9971 5.93506 27.9683 5.96387 27.9536C 5.99268 27.9248 6.03564 27.8958 6.0791 27.8667C 6.09375 27.8594 6.1084 27.8484 6.12256 27.8376L 6.12695 27.8345L 6.13135 27.8313L 6.13574 27.8281L 6.14014 27.825L 6.16553 27.8088L 6.29492 27.7219C 6.30957 27.7075 6.33838 27.6785 6.36719 27.6641C 6.396 27.6423 6.4209 27.6279 6.44629 27.6133C 6.47168 27.5989 6.49658 27.5845 6.52539 27.5627C 6.53271 27.5554 6.54346 27.5483 6.5542 27.541C 6.56494 27.5337 6.57568 27.5266 6.58301 27.5193L 6.79932 27.3889C 6.79932 27.3809 6.80859 27.3772 6.81885 27.3733C 6.82715 27.3699 6.83594 27.3665 6.84229 27.3601L 7.01514 27.2732L 7.10156 27.2297C 7.12305 27.2227 7.14844 27.2117 7.17383 27.2007C 7.19922 27.1899 7.22461 27.1792 7.24609 27.1719L 7.27002 27.1582C 7.28662 27.1482 7.30273 27.1382 7.33252 27.1284C 7.3667 27.1199 7.39551 27.1062 7.42236 27.0935C 7.44092 27.0847 7.4585 27.0764 7.47656 27.0706C 7.49805 27.0632 7.51221 27.0562 7.52637 27.0488C 7.54102 27.0417 7.55566 27.0344 7.57715 27.0271C 7.63477 27.0125 7.67822 26.998 7.72119 26.9836C 7.75146 26.9631 7.7749 26.9573 7.80078 26.9504L 7.83643 26.9402C 7.89453 26.9255 7.9375 26.9114 7.98096 26.8967C 8.00244 26.8896 8.02051 26.886 8.03809 26.8823C 8.05615 26.8787 8.07422 26.875 8.0957 26.8679C 8.12402 26.8491 8.1582 26.8425 8.19043 26.8362C 8.20801 26.8328 8.2251 26.8296 8.24023 26.8245C 8.26172 26.8174 8.2793 26.8137 8.29736 26.8101C 8.31543 26.8064 8.3335 26.8027 8.35547 26.7954C 8.37549 26.7886 8.39893 26.7852 8.42236 26.7817L 8.42725 26.781C 8.45264 26.7773 8.47803 26.7737 8.49951 26.7666C 8.54248 26.7666 8.57129 26.7666 8.61475 26.752C 8.65771 26.752 8.71533 26.752 8.77295 26.7375C 8.78564 26.7375 8.79883 26.7346 8.81299 26.7314C 8.83057 26.7273 8.8501 26.7229 8.87402 26.7229C 8.90088 26.7229 8.92822 26.7197 8.95508 26.7166L 8.96045 26.7158C 8.98926 26.7122 9.01807 26.7085 9.04688 26.7085C 9.07568 26.6941 9.10449 26.6941 9.1333 26.6941C 9.20508 26.6794 9.32031 26.6794 9.39258 26.6794C 9.42139 26.6794 9.45508 26.6819 9.49121 26.6848L 9.49902 26.6853L 9.50537 26.6858L 9.51025 26.6863C 9.55762 26.6902 9.60645 26.6941 9.65186 26.6941C 9.66602 26.6941 9.68066 26.6978 9.69531 26.7012C 9.70947 26.7048 9.72363 26.7085 9.73828 26.7085C 9.7959 26.7085 9.85352 26.7085 9.91113 26.7229C 9.92383 26.7229 9.93701 26.7258 9.95117 26.729C 9.96875 26.7332 9.98828 26.7375 10.0122 26.7375C 10.0552 26.7375 10.1128 26.7375 10.1704 26.752C 10.2139 26.752 10.2422 26.752 10.2856 26.7666C 10.3057 26.7734 10.3291 26.7769 10.3525 26.7803L 10.3574 26.781L 10.3613 26.7815C 10.3853 26.7849 10.4092 26.7886 10.4297 26.7954C 10.4512 26.8025 10.4688 26.8062 10.4868 26.8096L 10.4912 26.8105C 10.5078 26.814 10.5249 26.8176 10.5449 26.8245L 10.6138 26.8452L 10.689 26.8679C 10.7104 26.875 10.7285 26.8787 10.7466 26.8823L 10.7505 26.8831C 10.7671 26.8865 10.7842 26.8899 10.8042 26.8967C 10.8618 26.9114 10.9053 26.9255 10.9482 26.9402C 10.9785 26.9602 11.0015 26.9663 11.0273 26.9731L 11.0635 26.9836C 11.1045 26.9836 11.1387 26.9983 11.1704 27.0122L 11.2075 27.0271C 11.2295 27.0344 11.2437 27.0415 11.2583 27.0488C 11.2725 27.0562 11.2871 27.0632 11.3086 27.0706C 11.3433 27.0793 11.373 27.093 11.4004 27.106C 11.4185 27.1145 11.4355 27.1226 11.4526 27.1284L 11.5391 27.1719C 11.561 27.1792 11.5869 27.1902 11.6123 27.2012C 11.6372 27.2119 11.6621 27.2227 11.6831 27.2297L 11.7695 27.2732L 11.9424 27.3601C 11.9424 27.3682 11.9517 27.3718 11.9619 27.376C 11.9702 27.3792 11.9795 27.3826 11.9858 27.3889L 12.2017 27.5193C 12.209 27.5264 12.2192 27.5332 12.2295 27.5403C 12.2407 27.5479 12.252 27.5552 12.2593 27.5627C 12.2881 27.5845 12.3135 27.5989 12.3389 27.6133L 12.3457 27.6172L 12.3506 27.6201C 12.3716 27.6326 12.3936 27.6458 12.418 27.6641C 12.4321 27.6785 12.4609 27.7075 12.4897 27.7219L 12.6196 27.8088L 12.645 27.825L 12.6494 27.8281L 12.6538 27.8313L 12.6582 27.8345L 12.6626 27.8376C 12.6768 27.8484 12.6914 27.8594 12.7061 27.8667C 12.7271 27.8809 12.7446 27.895 12.7622 27.9092C 12.7803 27.9241 12.7988 27.9387 12.8213 27.9536C 12.8359 27.9683 12.8501 27.979 12.8643 27.9897C 12.8789 28.0007 12.8936 28.0117 12.9077 28.0261L 12.9336 28.043C 12.9634 28.0623 12.9888 28.0786 13.0229 28.1128C 13.0371 28.1274 13.0518 28.1382 13.0664 28.1489C 13.0806 28.1599 13.0947 28.1709 13.1094 28.1853C 13.1274 28.2126 13.146 28.2285 13.168 28.2478C 13.1807 28.2588 13.1943 28.2708 13.21 28.2866L 13.2822 28.3589C 13.3096 28.3774 13.3257 28.396 13.3442 28.418L 13.3511 28.4255L 13.3828 28.4602C 13.395 28.4729 13.4048 28.4854 13.4146 28.498L 13.4189 28.5034C 13.4297 28.5181 13.4404 28.5327 13.4551 28.5471L 13.4614 28.5537C 13.501 28.5935 13.5288 28.6216 13.5557 28.6628C 13.562 28.6758 13.5718 28.689 13.5815 28.7019L 13.585 28.7068C 13.5957 28.7212 13.6064 28.7354 13.6138 28.7498C 13.6426 28.7786 13.6714 28.822 13.7002 28.8655C 13.7144 28.8799 13.7432 28.9089 13.7578 28.938C 13.7793 28.9597 13.7939 28.9851 13.8081 29.0105L 13.811 29.0151C 13.8247 29.0388 13.8384 29.0625 13.8584 29.0828C 13.8657 29.0898 13.873 29.1008 13.8799 29.1118C 13.8872 29.1226 13.8945 29.1333 13.9019 29.1406C 13.957 29.21 13.999 29.2795 14.0405 29.3486L 14.0459 29.3577C 14.0459 29.3723 14.0459 29.3867 14.0605 29.4009C 14.0815 29.4294 14.0996 29.4617 14.1172 29.4937C 14.1353 29.5269 14.1538 29.5598 14.1758 29.5891L 14.2188 29.676C 14.2305 29.6934 14.2393 29.7131 14.248 29.7332L 14.2505 29.738L 14.2524 29.7429L 14.2554 29.7493L 14.2573 29.7544L 14.2588 29.7583L 14.2607 29.7632L 14.2632 29.7683C 14.2715 29.7869 14.2798 29.8049 14.2905 29.8208L 14.334 29.9077C 14.3428 29.9424 14.3564 29.9717 14.3691 29.9993L 14.373 30.0073L 14.375 30.012C 14.3813 30.0256 14.3872 30.0391 14.3916 30.0525C 14.3979 30.0715 14.4043 30.085 14.4106 30.0977L 14.4131 30.103C 14.4204 30.1177 14.4277 30.1321 14.4351 30.1538C 14.4438 30.189 14.4575 30.2188 14.4702 30.2463C 14.479 30.2644 14.4868 30.2815 14.4927 30.2986L 14.4951 30.304C 14.5088 30.3313 14.5225 30.3594 14.5356 30.4001C 14.5503 30.458 14.5645 30.5015 14.5791 30.5449C 14.5996 30.5757 14.6055 30.5991 14.6123 30.6255L 14.6221 30.6606C 14.6367 30.7185 14.6509 30.762 14.6655 30.8054L 14.6738 30.8362L 14.6758 30.8445L 14.6777 30.8533L 14.6797 30.8621C 14.6831 30.8806 14.687 30.8989 14.6943 30.9211C 14.7129 30.9495 14.7197 30.9839 14.7256 31.0164C 14.729 31.0339 14.7324 31.0508 14.7373 31.0659C 14.7432 31.084 14.7466 31.0994 14.7495 31.1145L 14.7515 31.1228C 14.7549 31.1414 14.7588 31.1597 14.7661 31.1819C 14.7729 31.2102 14.7769 31.2351 14.7803 31.26C 14.7837 31.2856 14.7876 31.3115 14.7949 31.3411C 14.7949 31.3701 14.7949 31.3989 14.8096 31.4424L 14.8096 31.4712ZM 28.1929 4.71924L 28.1929 22.0183L 1.57031 22.0183L 1.57031 3.05444C 1.57031 2.2439 2.23291 1.57788 3.03955 1.57788L 26.7236 1.57788C 27.5303 1.57788 28.1929 2.2439 28.1929 3.05444L 28.1929 4.71924ZM 42.7861 11.5808L 40.856 9.45288L 33.6528 9.45288L 33.6528 17.3135L 45.3936 17.3135L 45.3936 14.8813C 45.3936 14.6208 45.293 14.3604 45.1201 14.1721L 42.7861 11.5808ZM 37.5713 36.1907C 35.4102 36.1907 33.6528 34.4246 33.6528 32.2532C 33.6528 31.6453 33.7969 31.0662 34.042 30.5449C 34.3589 29.8936 34.834 29.3435 35.4395 28.9526C 36.0586 28.5618 36.7788 28.3157 37.5713 28.3157C 38.1187 28.3157 38.623 28.4314 39.0986 28.6343C 40.4961 29.2278 41.4897 30.6318 41.4897 32.2532C 41.4751 34.439 39.7319 36.1907 37.5713 36.1907ZM 41.5327 22.8582L 45.4224 22.8582L 45.4224 18.9207L 33.4653 18.9207C 32.7163 18.9207 32.1113 18.2981 32.1113 17.5598L 32.1113 9.25049C 32.1113 8.4978 32.7305 7.88965 33.4653 7.88965L 39.4585 7.88965L 38.3491 6.65918C 38.1475 6.44214 37.8594 6.31177 37.5713 6.31177L 29.7773 6.31177L 29.7773 22.0474L 29.7773 23.6252L 29.7773 31.4868L 32.1826 31.4868C 32.1909 31.4785 32.1948 31.4751 32.1963 31.4707L 32.1973 31.4578C 32.1973 31.429 32.1973 31.3999 32.2114 31.3711C 32.2188 31.3484 32.2222 31.3218 32.2261 31.2932C 32.2295 31.2671 32.2334 31.2395 32.2402 31.2119C 32.2402 31.1685 32.2402 31.1538 32.2549 31.1104L 32.2759 31.032L 32.2979 30.9512C 32.3057 30.9351 32.3091 30.9192 32.313 30.9006C 32.3164 30.8857 32.3203 30.8694 32.3267 30.8499L 32.3486 30.7773L 32.3701 30.7051C 32.3906 30.6841 32.3965 30.6631 32.4033 30.6365L 32.4131 30.6038C 32.4131 30.5623 32.4277 30.5283 32.4414 30.4963L 32.4565 30.459C 32.4639 30.4373 32.4707 30.4229 32.478 30.4082C 32.4854 30.3936 32.4922 30.3792 32.4995 30.3574C 32.5083 30.3235 32.5215 30.2944 32.5342 30.2673C 32.543 30.2485 32.5513 30.2305 32.5571 30.2126C 32.5645 30.1909 32.5718 30.1765 32.5791 30.1621C 32.5859 30.1475 32.5933 30.1331 32.6006 30.1113C 32.6089 30.0764 32.623 30.0469 32.6357 30.0195C 32.644 30.0012 32.6523 29.9839 32.6582 29.9666L 32.7012 29.8796C 32.7158 29.8362 32.7446 29.7783 32.7734 29.7349L 32.8164 29.6479C 32.8452 29.5754 32.874 29.5176 32.9175 29.4597C 32.9243 29.4526 32.9282 29.4456 32.9316 29.4385C 32.9351 29.4312 32.939 29.4236 32.9463 29.4163C 33.0015 29.3469 33.0435 29.2773 33.085 29.2083L 33.0903 29.1992C 33.0903 29.1846 33.1191 29.1558 33.1333 29.1411C 33.1514 29.1172 33.1646 29.0957 33.1768 29.0754C 33.1938 29.0471 33.209 29.0217 33.2344 28.9963C 33.2417 28.9822 33.252 28.968 33.2627 28.9539C 33.2739 28.939 33.2847 28.9243 33.292 28.9097C 33.3208 28.8806 33.3496 28.8372 33.3784 28.7937C 33.3926 28.7793 33.4038 28.7649 33.4146 28.7505C 33.4253 28.7358 33.4365 28.7214 33.4507 28.707C 33.4648 28.6853 33.4795 28.6672 33.4941 28.6489C 33.5083 28.6309 33.5225 28.6128 33.5371 28.5911C 33.5513 28.5623 33.5801 28.5332 33.6089 28.5044L 33.71 28.4028L 33.7964 28.3162C 33.812 28.3005 33.8237 28.2866 33.8345 28.2742C 33.8535 28.2517 33.8696 28.2332 33.897 28.2146C 33.9111 28.2002 33.9258 28.1895 33.9399 28.1787C 33.9546 28.168 33.9688 28.157 33.9834 28.1423C 34.0059 28.1274 34.0244 28.1128 34.0425 28.0979C 34.0601 28.0837 34.0776 28.0696 34.0986 28.0554C 34.1133 28.041 34.1274 28.0303 34.1416 28.0193C 34.1562 28.0083 34.1709 27.9976 34.1851 27.9832C 34.2075 27.9683 34.2261 27.9536 34.2441 27.9387C 34.2617 27.9246 34.2793 27.9104 34.3003 27.8962C 34.3145 27.8892 34.3291 27.8782 34.3438 27.8672C 34.3579 27.8564 34.3721 27.8457 34.3867 27.8384L 34.5166 27.7515C 34.5312 27.7441 34.5454 27.7334 34.5596 27.7227C 34.5742 27.7117 34.5889 27.7007 34.603 27.6936C 34.6318 27.6716 34.6572 27.6572 34.6826 27.6426C 34.7075 27.6282 34.7324 27.6138 34.7612 27.5923C 34.7686 27.585 34.7793 27.5779 34.79 27.5706C 34.8008 27.5632 34.8115 27.5562 34.8188 27.5488L 35.0352 27.4185C 35.0498 27.4185 35.064 27.4185 35.0781 27.4041C 35.1074 27.3894 35.1396 27.375 35.1724 27.3604C 35.2046 27.3459 35.2368 27.3315 35.2656 27.3171C 35.2798 27.3025 35.3091 27.2881 35.3379 27.2737L 35.3779 27.2527C 35.417 27.2314 35.4526 27.2124 35.4961 27.2014L 35.5825 27.158C 35.6045 27.1506 35.6304 27.1394 35.6558 27.1284C 35.6807 27.1177 35.7056 27.1072 35.7266 27.0999C 35.7456 27.0808 35.7646 27.0742 35.7837 27.0679C 35.7935 27.0647 35.8032 27.0613 35.813 27.0564C 35.8354 27.0491 35.8613 27.0378 35.8872 27.0266C 35.9116 27.0161 35.936 27.0056 35.957 26.9985C 35.9785 26.9912 35.9932 26.9878 36.0078 26.9841C 36.022 26.9805 36.0361 26.9771 36.0581 26.9697L 36.1348 26.9485L 36.2163 26.9263C 36.2378 26.9192 36.252 26.9155 36.2661 26.9121C 36.2808 26.9084 36.2954 26.9048 36.3174 26.8972L 36.3965 26.8755L 36.4756 26.854C 36.519 26.854 36.5337 26.854 36.5767 26.8394C 36.5996 26.8318 36.6265 26.8281 36.6553 26.8242C 36.6812 26.8208 36.708 26.8174 36.7349 26.8105C 36.7637 26.8105 36.793 26.8105 36.8218 26.7959C 36.8794 26.7959 36.9365 26.7959 36.9946 26.7815C 37.0088 26.7815 37.0229 26.7778 37.0376 26.7742C 37.0518 26.7705 37.0664 26.7668 37.0811 26.7668C 37.1079 26.7668 37.1382 26.7637 37.1704 26.7603C 37.2061 26.7566 37.2446 26.7524 37.2827 26.7524L 37.3403 26.7524C 37.4268 26.7378 37.5273 26.7378 37.6138 26.7378C 37.6572 26.7378 37.7041 26.7415 37.751 26.7451C 37.7979 26.7488 37.8447 26.7524 37.8877 26.7524L 37.9453 26.7524C 38.0029 26.7524 38.0894 26.7524 38.147 26.7668C 38.1611 26.7668 38.1758 26.7705 38.1904 26.7742C 38.2046 26.7778 38.2188 26.7815 38.2334 26.7815C 38.291 26.7815 38.3486 26.7815 38.4062 26.7959C 38.4497 26.7959 38.4639 26.7959 38.5073 26.8105C 38.5303 26.8181 38.5571 26.8218 38.5859 26.8257C 38.6113 26.8291 38.6387 26.8325 38.6655 26.8394C 38.709 26.8394 38.7231 26.8394 38.7666 26.854L 38.8457 26.8755L 38.9248 26.8972C 38.939 26.9043 38.957 26.908 38.9751 26.9116C 38.9932 26.9153 39.0112 26.9189 39.0259 26.9263L 39.0967 26.9478L 39.1699 26.9697C 39.1914 26.9771 39.2061 26.9805 39.2207 26.9841L 39.271 26.9985C 39.3018 26.9985 39.3403 27.0137 39.3755 27.0273L 39.415 27.042C 39.4365 27.0493 39.4512 27.0566 39.4658 27.0637C 39.48 27.071 39.4941 27.0781 39.5156 27.0854C 39.5498 27.094 39.5791 27.1079 39.6064 27.1206C 39.625 27.1294 39.6421 27.1375 39.6597 27.1433L 39.7466 27.1868C 39.7676 27.1938 39.792 27.2043 39.8164 27.2148C 39.8423 27.2261 39.8682 27.2373 39.8906 27.2446L 39.9771 27.2881C 40.0127 27.3098 40.0488 27.3279 40.085 27.3462C 40.1211 27.3643 40.1572 27.3823 40.1929 27.4041L 40.4092 27.5342C 40.4233 27.5415 40.4341 27.5486 40.4448 27.5557C 40.4556 27.563 40.4663 27.5703 40.481 27.5776C 40.5386 27.6064 40.582 27.6355 40.625 27.6646C 40.6396 27.6719 40.6538 27.6826 40.668 27.6934C 40.6826 27.7043 40.6973 27.7153 40.7114 27.7224C 40.7334 27.7371 40.7515 27.7517 40.7695 27.7664C 40.7876 27.7808 40.8052 27.7949 40.8267 27.8093C 40.8408 27.8237 40.8555 27.8345 40.8701 27.8455C 40.8843 27.8564 40.8984 27.8672 40.9131 27.8816C 40.9351 27.8962 40.9531 27.9109 40.9712 27.9255C 40.9893 27.9399 41.0068 27.9541 41.0283 27.9685C 41.0571 27.9829 41.0859 28.012 41.1147 28.0408C 41.1362 28.0552 41.1509 28.0698 41.165 28.0842C 41.1797 28.0986 41.1938 28.1133 41.2158 28.1277L 41.3022 28.2146L 41.3887 28.3015L 41.4751 28.3882L 41.5615 28.4751L 41.6479 28.562C 41.6621 28.5837 41.6768 28.5981 41.6914 28.6128C 41.7056 28.6272 41.7197 28.6416 41.7344 28.6633L 41.8208 28.7502C 41.8496 28.7793 41.8784 28.8081 41.9072 28.8516C 41.9219 28.8662 41.9326 28.8809 41.9438 28.8955C 41.9541 28.9099 41.9648 28.9243 41.979 28.9385C 41.9932 28.9602 42.0078 28.9783 42.0225 28.9963C 42.0371 29.0144 42.0518 29.0325 42.0659 29.0542C 42.0732 29.0688 42.084 29.0837 42.0952 29.0984C 42.1055 29.1125 42.1162 29.1267 42.1235 29.1411L 42.1572 29.1997C 42.1841 29.2466 42.2075 29.2878 42.2388 29.3293C 42.2461 29.3513 42.2568 29.3696 42.2676 29.3877C 42.2783 29.4058 42.2891 29.4236 42.2964 29.4451C 42.3105 29.4739 42.3286 29.5027 42.3462 29.5315C 42.3643 29.5605 42.3823 29.5896 42.397 29.6189C 42.4111 29.6326 42.4243 29.6594 42.4385 29.6873L 42.4404 29.6912C 42.4478 29.7131 42.4585 29.7314 42.4692 29.7495C 42.48 29.7676 42.4907 29.7854 42.498 29.8069C 42.498 29.8337 42.5093 29.8552 42.521 29.8779C 42.5283 29.8918 42.5356 29.906 42.541 29.9226C 42.5483 29.9443 42.5591 29.9661 42.5703 29.9878C 42.5811 30.0095 42.5918 30.0312 42.5991 30.053C 42.6064 30.0757 42.6138 30.0942 42.6216 30.1133L 42.6421 30.1687C 42.6421 30.1978 42.6553 30.2271 42.668 30.2561C 42.6743 30.2705 42.6807 30.2847 42.6855 30.2991C 42.6929 30.3218 42.7002 30.3403 42.708 30.3594L 42.7285 30.4148L 42.772 30.5452L 42.7939 30.605C 42.8008 30.6223 42.8081 30.6399 42.8149 30.6609C 42.8296 30.7188 42.8438 30.7622 42.8584 30.8057C 42.8652 30.8269 42.8687 30.8447 42.8726 30.8623C 42.876 30.8809 42.8799 30.8992 42.8872 30.9214C 42.8936 30.948 42.8975 30.9714 42.9004 30.9934C 42.9043 31.019 42.9077 31.0427 42.9155 31.0662C 42.9229 31.0884 42.9268 31.1067 42.9302 31.1252C 42.9341 31.1428 42.9375 31.1606 42.9443 31.1819C 42.9517 31.2039 42.9556 31.2297 42.959 31.2554C 42.9624 31.2805 42.9663 31.3054 42.9731 31.3267C 42.9731 31.3701 42.9731 31.3992 42.9878 31.4426L 42.9878 31.4714L 44.9468 31.5002C 45.2065 31.5002 45.4224 31.2832 45.4224 31.0227L 45.4224 24.4214L 41.5039 24.4214C 41.043 24.4214 40.6826 24.0305 40.7261 23.5674C 40.769 23.1621 41.1294 22.8582 41.5327 22.8582Z"/>
<path id="path3_fill" d="M 1.57031 0C 0.705945 0 0 0.694857 0 1.57795C 0 2.46104 0.691494 3.1559 1.57031 3.1559C 2.44913 3.1559 3.14063 2.46104 3.14063 1.57795C 3.14063 0.694857 2.43468 0 1.57031 0Z"/>
<path id="path4_fill" d="M 8.37697 2.58766L 6.01441 0.228C 5.71188 -0.076 5.22203 -0.076 4.90519 0.228C 4.60266 0.532 4.60266 1.02424 4.90519 1.34262L 5.92798 2.37039C 3.72384 2.47176 2.11031 3.65886 1.07306 5.51176C 0.69855 6.17771 0.424789 6.87257 0.223148 7.58181C 0.107944 8.00158 0.0358232 8.33462 0.00705593 8.55176C -0.0506136 8.98605 0.251915 9.37691 0.669783 9.43486C 1.10197 9.49281 1.49093 9.18881 1.5486 8.76891C 1.56305 8.6241 1.62059 8.36353 1.72148 8.0161C 1.8799 7.4081 2.11044 6.82901 2.42742 6.29348C 3.2198 4.90376 4.34348 4.04971 5.92811 3.94834L 4.93409 4.94719C 4.63156 5.25119 4.63156 5.74343 4.93409 6.06181C 5.23662 6.36581 5.72647 6.36581 6.04331 6.06181L 8.37711 3.70215C 8.6795 3.39829 8.6795 2.90605 8.37697 2.58766Z"/>
<path id="path5_fill" d="M 3.90411 8.65156L 2.65077 8.65156C 3.14063 8.1159 3.51514 7.53694 3.77445 6.92894C 4.53793 5.16289 4.36506 3.32437 3.63034 1.57271C 3.38549 1.00813 3.15494 0.58837 2.98207 0.342184C 2.73721 -0.0197662 2.24736 -0.106623 1.88716 0.139562C 1.52696 0.385612 1.44052 0.877848 1.68552 1.2398C 1.71428 1.28323 1.7575 1.35556 1.82962 1.48585C 1.94483 1.70299 2.07448 1.93466 2.18982 2.20961C 2.78043 3.59933 2.91008 5.01795 2.34824 6.30642C 2.16092 6.72618 1.90161 7.14608 1.55586 7.53694L 1.55586 6.30642C 1.55586 5.87213 1.21011 5.52471 0.777931 5.52471C 0.345747 5.52471 0 5.87213 0 6.30642L 0 9.4478C 0 9.88208 0.345747 10.2295 0.777931 10.2295L 3.90411 10.2295C 4.33629 10.2295 4.68204 9.88208 4.68204 9.4478C 4.68204 8.98447 4.33629 8.65156 3.90411 8.65156Z"/>
<path id="path6_fill" d="M 10.0267 1.89634C 9.78181 1.53439 9.29195 1.44753 8.94621 1.69371C 8.90299 1.72262 8.831 1.76605 8.70135 1.83852C 8.48526 1.95429 8.25471 2.08457 7.98109 2.20047C 6.5981 2.79395 5.18634 2.92424 3.90411 2.35966C 3.48637 2.17143 3.06851 1.91086 2.67954 1.56343L 3.90411 1.56343C 4.33629 1.56343 4.68204 1.216 4.68204 0.781714C 4.68204 0.347429 4.33629 0 3.90411 0L 0.777931 0C 0.345747 0 0 0.347429 0 0.781714L 0 3.92309C 0 4.35738 0.345747 4.70481 0.777931 4.70481C 1.21011 4.70481 1.55586 4.35738 1.55586 3.92309L 1.55586 2.66366C 2.08893 3.1559 2.66509 3.53224 3.27015 3.79281C 5.02765 4.56 6.85727 4.38629 8.60046 3.648C 9.1623 3.40195 9.58003 3.17029 9.82503 2.99657C 10.1851 2.75039 10.2715 2.25815 10.0267 1.89634Z"/>
</defs>
</svg>
