<svg width="102" height="102" viewBox="0 0 102 102" version="1.1" xmlns="http://www.w3.org/2000/svg" xmlns:xlink="http://www.w3.org/1999/xlink">
<title>&#208;&#154;&#209;&#128;&#208;&#181;&#208;&#180;&#208;&#184;&#209;&#130;</title>
<desc>Created using Figma</desc>
<g id="Canvas" transform="translate(-7453 -2670)">
<g id="&#208;&#154;&#209;&#128;&#208;&#181;&#208;&#180;&#208;&#184;&#209;&#130;">
<g id="&#208;&#154;&#209;&#128;&#209;&#131;&#208;&#179;">
<use xlink:href="#path0_fill" transform="translate(7454 2671)" fill="#FFFFFF"/>
<use xlink:href="#path1_stroke" transform="translate(7454 2671)" fill="#FFD806"/>
</g>
<g id="credit">
<g id="Shape">
<use xlink:href="#path2_fill" transform="translate(7481 2700)"/>
</g>
<g id="Shape">
<use xlink:href="#path3_fill" transform="translate(7486.15 2724.37)"/>
</g>
<g id="Shape">
<use xlink:href="#path4_fill" transform="translate(7486.15 2706.65)"/>
</g>
<g id="Shape">
<use xlink:href="#path5_fill" transform="translate(7486.15 2718.46)"/>
</g>
<g id="Shape">
<use xlink:href="#path6_fill" transform="translate(7488.36 2718.46)"/>
</g>
<g id="Shape">
<use xlink:href="#path6_fill" transform="translate(7490.57 2718.46)"/>
</g>
<g id="Shape">
<use xlink:href="#path6_fill" transform="translate(7492.77 2718.46)"/>
</g>
<g id="Shape">
<use xlink:href="#path7_fill" transform="translate(7495.72 2718.46)"/>
</g>
<g id="Shape">
<use xlink:href="#path7_fill" transform="translate(7497.92 2718.46)"/>
</g>
<g id="Shape">
<use xlink:href="#path8_fill" transform="translate(7500.13 2718.46)"/>
</g>
<g id="Shape">
<use xlink:href="#path7_fill" transform="translate(7502.34 2718.46)"/>
</g>
<g id="Shape">
<use xlink:href="#path9_fill" transform="translate(7511.17 2706.65)"/>
</g>
<g id="Shape">
<use xlink:href="#path10_fill" transform="translate(7501.6 2718.46)"/>
</g>
<g id="Shape">
<use xlink:href="#path11_fill" transform="translate(7507.49 2724.37)"/>
</g>
<g id="Shape">
<use xlink:href="#path12_fill" transform="translate(7506.75 2722.89)"/>
</g>
<g id="Shape">
<use xlink:href="#path13_fill" transform="translate(7514.11 2730.28)"/>
</g>
</g>
</g>
</g>
<defs>
<path id="path0_fill" fill-rule="evenodd" d="M 50 100C 77.6142 100 100 77.6142 100 50C 100 22.3858 77.6142 0 50 0C 22.3858 0 0 22.3858 0 50C 0 77.6142 22.3858 100 50 100Z"/>
<path id="path1_stroke" d="M 50 100.5C 77.8904 100.5 100.5 77.8904 100.5 50L 99.5 50C 99.5 77.3381 77.3381 99.5 50 99.5L 50 100.5ZM 100.5 50C 100.5 22.1096 77.8904 -0.5 50 -0.5L 50 0.5C 77.3381 0.5 99.5 22.6619 99.5 50L 100.5 50ZM 50 -0.5C 22.1096 -0.5 -0.5 22.1096 -0.5 50L 0.5 50C 0.5 22.6619 22.6619 0.5 50 0.5L 50 -0.5ZM -0.5 50C -0.5 77.8904 22.1096 100.5 50 100.5L 50 99.5C 22.6619 99.5 0.5 77.3381 0.5 50L -0.5 50Z"/>
<path id="path2_fill" d="M 43.3669 0L 3.63307 0C 1.62982 0 0 1.63569 0 3.64615L 0 27.2769C 0 29.2874 1.62982 30.9231 3.63307 30.9231L 18.3493 30.9231C 18.7303 30.9231 19.0391 30.6131 19.0391 30.2308C 19.0391 29.8484 18.7303 29.5385 18.3493 29.5385L 3.63307 29.5385C 2.39056 29.5385 1.37965 28.5239 1.37965 27.2769L 1.37965 3.64615C 1.37965 2.39917 2.39056 1.38462 3.63307 1.38462L 43.3669 1.38462C 44.6094 1.38462 45.6204 2.39917 45.6204 3.64615L 45.6204 27.2769C 45.6204 27.6593 45.9292 27.9692 46.3102 27.9692C 46.6911 27.9692 47 27.6593 47 27.2769L 47 3.64615C 47 1.63569 45.3702 0 43.3669 0Z"/>
<path id="path3_fill" d="M 13.9344 0L 0.689824 0C 0.308857 0 0 0.309969 0 0.692308C 0 1.07465 0.308857 1.38462 0.689824 1.38462L 13.9344 1.38462C 14.3154 1.38462 14.6243 1.07465 14.6243 0.692308C 14.6243 0.309969 14.3154 0 13.9344 0Z"/>
<path id="path4_fill" fill-rule="evenodd" d="M 8.73779 5.12305L 8.73779 2.16919C 8.73779 0.973145 7.76807 0 6.57617 0L 2.16162 0C 0.969727 0 0 0.973145 0 2.16919L 0 5.12305C 0 6.31909 0.969727 7.29224 2.16162 7.29224L 6.57617 7.29224C 7.76807 7.29224 8.73779 6.31909 8.73779 5.12305ZM 1.37988 5.12305L 1.37988 4.33838L 2.16162 4.33838C 2.54248 4.33838 2.85156 4.02832 2.85156 3.646C 2.85156 3.26367 2.54248 2.95386 2.16162 2.95386L 1.37988 2.95386L 1.37988 2.16919C 1.37988 1.73657 1.73047 1.38452 2.16162 1.38452L 3.6792 1.38452L 3.6792 5.90771L 2.16162 5.90771C 1.73047 5.90771 1.37988 5.55566 1.37988 5.12305ZM 5.05859 5.90771L 6.57617 5.90771C 7.00732 5.90771 7.35791 5.55566 7.35791 5.12305L 7.35791 4.33838L 6.57617 4.33838C 6.19531 4.33838 5.88623 4.02832 5.88623 3.646C 5.88623 3.26367 6.19531 2.95386 6.57617 2.95386L 7.35791 2.95386L 7.35791 2.16919C 7.35791 1.73657 7.00732 1.38452 6.57617 1.38452L 5.05859 1.38452L 5.05859 5.90771Z"/>
<path id="path5_fill" d="M 0 2.16923C 0 2.55157 0.308857 2.86154 0.689824 2.86154C 1.07079 2.86154 1.37965 2.55157 1.37965 2.16923L 1.37965 0.692308C 1.37965 0.309969 1.07079 0 0.689824 0C 0.308857 0 0 0.309969 0 0.692308L 0 2.16923Z"/>
<path id="path6_fill" d="M 0 0.692308L 0 2.16923C 0 2.55157 0.308857 2.86154 0.689824 2.86154C 1.07079 2.86154 1.37965 2.55157 1.37965 2.16923L 1.37965 0.692308C 1.37965 0.309969 1.07079 0 0.689824 0C 0.308857 0 0 0.309969 0 0.692308Z"/>
<path id="path7_fill" d="M 1.37965 2.16923L 1.37965 0.692308C 1.37965 0.309969 1.07079 0 0.689824 0C 0.308857 0 0 0.309969 0 0.692308L 0 2.16923C 0 2.55157 0.308857 2.86154 0.689824 2.86154C 1.07079 2.86154 1.37965 2.55157 1.37965 2.16923Z"/>
<path id="path8_fill" d="M 0.689824 0C 0.308857 0 0 0.309969 0 0.692308L 0 2.16923C 0 2.55157 0.308857 2.86154 0.689824 2.86154C 1.07079 2.86154 1.37965 2.55157 1.37965 2.16923L 1.37965 0.692308C 1.37965 0.309969 1.07079 0 0.689824 0Z"/>
<path id="path9_fill" fill-rule="evenodd" d="M 11.6812 3.64624C 11.6812 5.65649 10.0513 7.29224 8.04785 7.29224L 3.6333 7.29224C 1.62988 7.29224 0 5.65649 0 3.64624C 0 1.63574 1.62988 0 3.6333 0L 8.04785 0C 10.0513 0 11.6812 1.63574 11.6812 3.64624ZM 3.6333 1.38452C 2.39062 1.38452 1.37988 2.39917 1.37988 3.646C 1.37988 4.89307 2.39062 5.90771 3.6333 5.90771L 8.04834 5.90771C 9.29053 5.90771 10.3018 4.89307 10.3018 3.646C 10.3018 2.39917 9.29053 1.38452 8.04834 1.38452L 3.6333 1.38452Z"/>
<path id="path10_fill" fill-rule="evenodd" d="M 0 11.7693C 0 5.27954 5.26074 0 11.7271 0C 18.1934 0 23.4541 5.27954 23.4541 11.7693C 23.4541 18.2588 18.1934 23.5386 11.7271 23.5386C 5.26074 23.5386 0 18.2588 0 11.7693ZM 1.37988 11.769C 1.37988 17.4954 6.02148 22.1538 11.7271 22.1538C 17.4326 22.1538 22.0747 17.4954 22.0747 11.769C 22.0747 6.04297 17.4326 1.38452 11.7271 1.38452C 6.02148 1.38452 1.37988 6.04297 1.37988 11.769Z"/>
<path id="path11_fill" d="M 11.4789 0.202777C 11.2095 -0.0675923 10.7727 -0.0675923 10.5034 0.202777L 0.202049 10.5412C -0.0673498 10.8116 -0.0673498 11.25 0.202049 11.5203C 0.336703 11.6554 0.513298 11.7231 0.689801 11.7231C 0.866304 11.7231 1.0429 11.6555 1.17755 11.5203L 11.4789 1.18179C 11.7483 0.911515 11.7483 0.473054 11.4789 0.202777Z"/>
<path id="path12_fill" fill-rule="evenodd" d="M 6.53027 3.27686C 6.53027 5.08374 5.06543 6.55396 3.26514 6.55396C 1.46484 6.55396 0 5.08374 0 3.27686C 0 1.46997 1.46484 0 3.26514 0C 5.06543 0 6.53027 1.46997 6.53027 3.27686ZM 5.15088 3.27686C 5.15088 2.2334 4.30518 1.38452 3.26562 1.38452C 2.22559 1.38452 1.37988 2.2334 1.37988 3.27686C 1.37988 4.32031 2.22559 5.16919 3.26562 5.16919C 4.30518 5.16919 5.15088 4.32031 5.15088 3.27686Z"/>
<path id="path13_fill" fill-rule="evenodd" d="M 0 3.27686C 0 1.46997 1.46484 0 3.26514 0C 5.06543 0 6.53027 1.46997 6.53027 3.27686C 6.53027 5.08374 5.06543 6.55396 3.26514 6.55396C 1.46484 6.55396 0 5.08374 0 3.27686ZM 1.37988 3.27686C 1.37988 4.32031 2.22559 5.16919 3.26562 5.16919C 4.30518 5.16919 5.15088 4.32031 5.15088 3.27686C 5.15088 2.2334 4.30518 1.38452 3.26562 1.38452C 2.22559 1.38452 1.37988 2.2334 1.37988 3.27686Z"/>
</defs>
</svg>
