<svg width="102" height="102" viewBox="0 0 102 102" version="1.1" xmlns="http://www.w3.org/2000/svg" xmlns:xlink="http://www.w3.org/1999/xlink">
<title>&#208;&#166;&#208;&#181;&#208;&#189;&#209;&#139; </title>
<desc>Created using Figma</desc>
<g id="Canvas" transform="translate(-7153 -2670)">
<g id="&#208;&#166;&#208;&#181;&#208;&#189;&#209;&#139; ">
<g id="&#208;&#154;&#209;&#128;&#209;&#131;&#208;&#179;">
<use xlink:href="#path0_fill" transform="translate(7154 2671)" fill="#FFFFFF"/>
<use xlink:href="#path1_stroke" transform="translate(7154 2671)" fill="#FFD806"/>
</g>
<g id="price">
<g id="Shape">
<use xlink:href="#path2_fill" transform="translate(7184.13 2707.38)"/>
</g>
<g id="Shape">
<use xlink:href="#path3_fill" transform="translate(7197.42 2711.29)"/>
</g>
<g id="Shape">
<use xlink:href="#path4_fill" transform="translate(7181 2698)"/>
</g>
<g id="Shape">
<use xlink:href="#path5_fill" transform="translate(7203.67 2728.49)"/>
</g>
<g id="Shape">
<use xlink:href="#path6_fill" transform="translate(7197.42 2732.4)"/>
</g>
<g id="Shape">
<use xlink:href="#path6_fill" transform="translate(7189.6 2732.4)"/>
</g>
<g id="Shape">
<use xlink:href="#path6_fill" transform="translate(7181 2732.4)"/>
</g>
</g>
</g>
</g>
<defs>
<path id="path0_fill" fill-rule="evenodd" d="M 50 100C 77.6142 100 100 77.6142 100 50C 100 22.3858 77.6142 0 50 0C 22.3858 0 0 22.3858 0 50C 0 77.6142 22.3858 100 50 100Z"/>
<path id="path1_stroke" d="M 50 100.5C 77.8904 100.5 100.5 77.8904 100.5 50L 99.5 50C 99.5 77.3381 77.3381 99.5 50 99.5L 50 100.5ZM 100.5 50C 100.5 22.1096 77.8904 -0.5 50 -0.5L 50 0.5C 77.3381 0.5 99.5 22.6619 99.5 50L 100.5 50ZM 50 -0.5C 22.1096 -0.5 -0.5 22.1096 -0.5 50L 0.5 50C 0.5 22.6619 22.6619 0.5 50 0.5L 50 -0.5ZM -0.5 50C -0.5 77.8904 22.1096 100.5 50 100.5L 50 99.5C 22.6619 99.5 0.5 77.3381 0.5 50L -0.5 50Z"/>
<path id="path2_fill" fill-rule="evenodd" d="M 30.4863 0.781738C 30.4863 2.5061 31.8887 3.90845 33.6133 3.90845C 34.0454 3.90845 34.395 4.25806 34.395 4.69019L 34.395 10.9438C 34.395 11.3762 34.0454 11.7256 33.6133 11.7256C 31.8887 11.7256 30.4863 13.1279 30.4863 14.8523C 30.4863 15.2847 30.1372 15.634 29.7046 15.634L 4.69043 15.634C 4.25781 15.634 3.90869 15.2847 3.90869 14.8523C 3.90869 13.1279 2.50635 11.7256 0.781738 11.7256C 0.349609 11.7256 0 11.3762 0 10.9438L 0 4.69019C 0 4.25806 0.349609 3.90845 0.781738 3.90845C 2.50635 3.90845 3.90869 2.5061 3.90869 0.781738C 3.90869 0.349365 4.25781 0 4.69043 0L 29.7046 0C 30.1372 0 30.4863 0.349365 30.4863 0.781738ZM 28.9878 14.0708C 29.3188 12.1094 30.8706 10.5579 32.8315 10.2271L 32.8315 5.40723C 30.8706 5.07642 29.3188 3.52466 28.9878 1.56348L 5.40723 1.56348C 5.07666 3.52466 3.5249 5.07642 1.56348 5.40723L 1.56348 10.2271C 3.5249 10.5579 5.07666 12.1094 5.40723 14.0708L 28.9878 14.0708Z"/>
<path id="path3_fill" fill-rule="evenodd" d="M 0 3.90845C 0 1.75342 1.75342 0 3.90869 0C 6.06348 0 7.81689 1.75342 7.81689 3.90845C 7.81689 6.06372 6.06348 7.81714 3.90869 7.81714C 1.75342 7.81714 0 6.06372 0 3.90845ZM 1.56348 3.90869C 1.56348 5.20142 2.61572 6.25366 3.90869 6.25366C 5.20166 6.25366 6.25391 5.20142 6.25391 3.90869C 6.25391 2.61572 5.20166 1.56348 3.90869 1.56348C 2.61572 1.56348 1.56348 2.61572 1.56348 3.90869Z"/>
<path id="path4_fill" fill-rule="evenodd" d="M 7.03516 0L 46.1206 0C 46.5527 0 46.9023 0.349365 46.9023 0.781738L 46.9023 21.106C 46.9023 21.5383 46.5527 21.8877 46.1206 21.8877L 43.7754 21.8877L 43.7754 24.2329C 43.7754 24.665 43.4263 25.0146 42.9937 25.0146L 40.6484 25.0146L 40.6484 27.3596C 40.6484 27.792 40.2993 28.1414 39.8672 28.1414L 0.781738 28.1414C 0.349609 28.1414 0 27.792 0 27.3596L 0 7.0354C 0 6.60303 0.349609 6.25366 0.781738 6.25366L 3.12695 6.25366L 3.12695 3.90845C 3.12695 3.47632 3.47607 3.12671 3.90869 3.12671L 6.25342 3.12671L 6.25342 0.781738C 6.25342 0.349365 6.60303 0 7.03516 0ZM 39.0854 26.5781L 39.0854 24.2329L 39.0854 7.81714L 3.90869 7.81714L 1.56348 7.81714L 1.56348 26.5781L 39.0854 26.5781ZM 42.2124 23.4512L 40.6489 23.4512L 40.6489 7.0354C 40.6489 6.60303 40.2993 6.25366 39.8672 6.25366L 4.69043 6.25366L 4.69043 4.69019L 42.2124 4.69019L 42.2124 23.4512ZM 43.7754 20.3245L 45.3389 20.3245L 45.3389 1.56348L 7.81689 1.56348L 7.81689 3.12695L 42.9937 3.12695C 43.4258 3.12695 43.7754 3.47632 43.7754 3.90869L 43.7754 20.3245Z"/>
<path id="path5_fill" fill-rule="evenodd" d="M 14.5396 0.156982L 23.9204 7.19312C 24.1118 7.33618 24.2266 7.55884 24.2329 7.7981C 24.2393 8.03735 24.1353 8.26562 23.9521 8.4187L 14.5718 16.2358C 14.4277 16.3545 14.2495 16.4163 14.0708 16.4163C 13.9575 16.4163 13.8447 16.3921 13.7393 16.342C 13.4648 16.2139 13.2891 15.938 13.2891 15.6348L 13.2891 11.7261L 0.781738 11.7261C 0.349609 11.7261 0 11.3767 0 10.9443L 0 4.69067C 0 4.25854 0.349609 3.90918 0.781738 3.90918L 13.2891 3.90918L 13.2891 0.782227C 13.2891 0.486084 13.4561 0.215576 13.7212 0.0827637C 13.9854 -0.0495605 14.3037 -0.0222168 14.5396 0.156982ZM 14.8525 10.9443L 14.8525 13.9658L 22.1919 7.84961L 14.8525 2.3457L 14.8525 4.69092C 14.8525 5.12305 14.5029 5.47241 14.0708 5.47241L 1.56348 5.47241L 1.56348 10.1628L 14.0708 10.1628C 14.5029 10.1628 14.8525 10.5122 14.8525 10.9443Z"/>
<path id="path6_fill" fill-rule="evenodd" d="M 0.781738 0L 3.90869 0C 4.34082 0 4.69043 0.349365 4.69043 0.781738L 4.69043 7.0354C 4.69043 7.46753 4.34082 7.81714 3.90869 7.81714L 0.781738 7.81714C 0.349609 7.81714 0 7.46753 0 7.0354L 0 0.781738C 0 0.349365 0.349609 0 0.781738 0ZM 1.56348 6.25366L 3.12695 6.25366L 3.12695 1.56348L 1.56348 1.56348L 1.56348 6.25366Z"/>
</defs>
</svg>
