<svg width="30" height="30" viewBox="0 0 30 30" version="1.1" xmlns="http://www.w3.org/2000/svg" xmlns:xlink="http://www.w3.org/1999/xlink">
<title>&#208;&#191;&#208;&#190;&#208;&#188;&#208;&#190;&#209;&#137;&#209;&#140;</title>
<desc>Created using Figma</desc>
<g id="Canvas" transform="translate(-7702 -463)">
<g id="&#208;&#191;&#208;&#190;&#208;&#188;&#208;&#190;&#209;&#137;&#209;&#140;">
<g id="Shape">
<use xlink:href="#path0_fill" transform="translate(7702.07 463)" fill="#549B55"/>
</g>
</g>
</g>
<defs>
<path id="path0_fill" fill-rule="evenodd" d="M 25.0737 3.58441L 8.50195 3.58441C 5.82861 3.58441 3.67188 5.74707 3.67188 8.41373L 3.67188 22.0821L 1.40625 24.0926L 1.40625 8.24503C 1.40625 4.45676 4.53467 1.40259 8.33301 1.40259L 21.4585 1.40259C 22.1968 1.40259 22.9014 1.62109 23.4971 2.06073C 23.8091 2.29114 24.2495 2.2186 24.4805 1.90729C 24.7114 1.59601 24.6455 1.16727 24.3335 0.936859C 23.4941 0.317139 22.5 0 21.4585 0L 8.33301 0C 3.75928 0 0 3.68338 0 8.24503L 0 25.6821C 0 25.9599 0.183594 26.2116 0.438477 26.3237C 0.693359 26.4358 1.00977 26.3874 1.21533 26.2L 3.67188 23.981L 3.67188 29.2876C 3.67188 29.5653 3.82715 29.817 4.08203 29.9292C 4.17334 29.9693 4.26514 29.9889 4.36133 29.9889C 4.5332 29.9889 4.70068 29.9258 4.83301 29.8056L 8.91846 26.0854C 9.02588 25.9877 9.11963 25.9005 9.20312 25.8226L 9.24854 25.7805C 9.44385 25.5985 9.62842 25.4266 9.68945 25.4027C 9.73682 25.3841 9.91016 25.3871 10.1133 25.3906L 10.2461 25.3927L 10.416 25.3968C 10.5127 25.3995 10.6187 25.4026 10.7358 25.4026L 25.0742 25.4026C 27.7476 25.4026 29.9219 23.2213 29.9219 20.5547L 29.9219 8.41373C 29.9219 5.74707 27.7476 3.58441 25.0737 3.58441ZM 23.687 15.8793L 22.7783 15.2228C 22.8091 14.9762 22.8242 14.7273 22.8242 14.4785C 22.8242 14.2334 22.8096 13.9883 22.7798 13.7458L 23.689 13.0891C 23.9209 12.9382 24.2378 12.5825 24.0859 11.7983C 24.0132 11.423 23.8394 10.9846 23.5962 10.5644C 22.9219 9.39941 22.105 8.88965 21.4526 9.22067L 20.4297 9.67651C 20.0312 9.37503 19.6006 9.12613 19.1416 8.93265L 19.0269 7.82834C 18.9922 7.09644 18.1411 6.64401 16.7881 6.64401C 15.439 6.64401 14.5879 7.09518 14.5493 7.82468L 14.4341 8.93274C 13.9751 9.12631 13.5444 9.37524 13.146 9.67667L 12.1255 9.22192C 11.8784 9.09683 11.4111 9.00107 10.8062 9.52417C 10.5166 9.7746 10.2231 10.1441 9.97998 10.5644C 9.30566 11.729 9.27148 12.6895 9.88477 13.0877L 10.7959 13.7462C 10.7666 13.989 10.7515 14.234 10.7515 14.4786C 10.7515 14.7273 10.7671 14.9761 10.7974 15.2226L 9.88574 15.8815C 9.27148 16.2793 9.30518 17.2402 9.97998 18.4053C 10.2231 18.8257 10.5166 19.1952 10.8062 19.4456C 11.4111 19.9688 11.8784 19.8729 12.1255 19.7478L 13.1567 19.2884C 13.5518 19.5861 13.9785 19.8322 14.4331 20.0239L 14.5493 21.1449C 14.5874 21.8747 15.439 22.3258 16.7881 22.3258C 18.1406 22.3258 18.9917 21.8734 19.0269 21.1414L 19.1431 20.0239C 19.5972 19.8322 20.0244 19.5861 20.4194 19.2885L 21.4526 19.749C 22.105 20.0803 22.9219 19.5702 23.5957 18.4054C 24.2725 17.2367 24.3052 16.2753 23.687 15.8793ZM 14.1128 14.478C 14.1128 13.0067 15.313 11.8097 16.7881 11.8097C 18.2632 11.8097 19.4634 13.0067 19.4634 14.478C 19.4634 15.9493 18.2632 17.1463 16.7881 17.1463C 15.313 17.1463 14.1128 15.9493 14.1128 14.478ZM 15.519 14.4779C 15.519 15.1758 16.0884 15.7436 16.7881 15.7436C 17.4878 15.7436 18.0571 15.1758 18.0571 14.4779C 18.0571 13.78 17.4878 13.2122 16.7881 13.2122C 16.0884 13.2122 15.519 13.78 15.519 14.4779ZM 21.4185 14.4785C 21.4185 14.1718 21.3882 13.8655 21.3286 13.5684C 21.2744 13.2994 21.3828 13.0238 21.605 12.8629L 22.7061 12.0671C 22.6743 11.9028 22.5801 11.6147 22.3779 11.2657C 22.1763 10.9165 21.9727 10.6914 21.8462 10.5815L 20.6074 11.1338C 20.3555 11.246 20.061 11.201 19.8545 11.0187C 19.3867 10.6057 18.8511 10.2965 18.2632 10.0997C 18.002 10.0122 17.8159 9.78064 17.7876 9.50729L 17.6479 8.16391C 17.4893 8.10959 17.1919 8.04663 16.7881 8.04663C 16.3838 8.04663 16.0864 8.10968 15.9277 8.16397L 15.7881 9.50729C 15.7598 9.78064 15.5737 10.0122 15.3125 10.0997C 14.7246 10.2967 14.189 10.606 13.7212 11.0188C 13.5151 11.2011 13.2207 11.2461 12.9688 11.1339L 11.7295 10.5817C 11.603 10.6915 11.3999 10.9167 11.1978 11.2657C 10.9956 11.615 10.9019 11.9032 10.8696 12.0674L 11.9707 12.8629C 12.1934 13.0237 12.3013 13.2992 12.2476 13.568C 12.188 13.8664 12.1577 14.1727 12.1577 14.4785C 12.1577 14.7878 12.189 15.0974 12.2495 15.3987C 12.3037 15.6679 12.1958 15.944 11.9727 16.1051L 10.8696 16.9023C 10.9019 17.0665 10.9956 17.3546 11.1978 17.7039C 11.3999 18.053 11.603 18.2781 11.7295 18.388L 12.978 17.8316C 13.2295 17.7196 13.5229 17.7642 13.7295 17.9456C 14.1953 18.3546 14.7275 18.6613 15.3115 18.8571C 15.5728 18.9447 15.7583 19.1763 15.7871 19.4496L 15.9282 20.8058C 16.0864 20.8601 16.3838 20.9232 16.7881 20.9232C 17.1924 20.9232 17.4893 20.8601 17.6479 20.8059L 17.7891 19.4495C 17.8174 19.1762 18.0034 18.9447 18.2642 18.8571C 18.8486 18.6613 19.3809 18.3546 19.8462 17.9457C 20.0527 17.7642 20.3467 17.7196 20.5977 17.8317L 21.8462 18.3882C 21.9727 18.2784 22.1763 18.0532 22.3784 17.7041C 22.5806 17.3549 22.6743 17.0667 22.7065 16.9026L 21.603 16.1054C 21.3804 15.9443 21.272 15.6681 21.3267 15.3988C 21.3872 15.0977 21.4185 14.788 21.4185 14.4785ZM 25.0737 24C 26.9717 24 28.5156 22.4479 28.5156 20.5547L 28.5156 8.4137C 28.5156 6.52042 26.9722 4.987 25.0737 4.987L 8.50195 4.987C 6.604 4.987 5.07812 6.52042 5.07812 8.4137L 5.07812 22.3922L 5.07812 27.698L 7.97852 25.051C 8.05029 24.9855 8.11279 24.9254 8.1709 24.8698L 8.28857 24.7579C 9.06201 24.0383 9.22852 23.9764 10.2646 23.9902L 10.4316 23.9943C 10.5234 23.997 10.6245 24 10.7354 24L 25.0737 24Z"/>
</defs>
</svg>
