<svg width="16" height="13" viewBox="0 0 16 13" version="1.1" xmlns="http://www.w3.org/2000/svg" xmlns:xlink="http://www.w3.org/1999/xlink">
<title>mai;</title>
<desc>Created using Figma</desc>
<g id="Canvas" transform="translate(-1212 -5129)">
<rect x="1212" y="5129" width="16" height="13" fill="#FFFFFF"/>
<clipPath id="clip-0" clip-rule="evenodd">
<path d="M -197 -148L 1723 -148L 1723 5462L -197 5462L -197 -148Z" fill="#FFFFFF"/>
</clipPath>
<g id="&#208;&#147;&#208;&#187;&#208;&#176;&#208;&#178;&#208;&#189;&#208;&#176;&#209;&#143;" clip-path="url(#clip-0)">
<path d="M -197 -148L 1723 -148L 1723 5462L -197 5462L -197 -148Z" fill="#FFFFFF"/>
<g id="&#208;&#164;&#209;&#131;&#209;&#130;&#208;&#181;&#209;&#128;">
<g id="&#208;&#164;&#209;&#131;&#209;&#130;&#208;&#181;&#209;&#128;">
<g id="&#208;&#164;&#209;&#131;&#209;&#130;&#208;&#181;&#209;&#128;">
<g id="&#208;&#162;&#208;&#181;&#208;&#187;&#208;&#190;">
<use xlink:href="#path0_fill" transform="translate(-197 4908)" fill="#444444"/>
</g>
<g id="&#208;&#154;&#208;&#190;&#208;&#189;&#209;&#130;&#208;&#176;&#208;&#186;&#209;&#130;&#209;&#139;">
<g id="&#208;&#154;&#208;&#190;&#208;&#189;&#209;&#129;&#209;&#131;&#208;&#187;&#209;&#140;&#209;&#130;&#208;&#176;&#209;&#134;&#208;&#184;&#209;&#143; Copy">
<g id="mai;">
<g id="Shape">
<use xlink:href="#path1_fill" transform="translate(1212.49 5136.68)" fill="#B3B3B3"/>
</g>
<g id="Shape">
<use xlink:href="#path2_fill" transform="translate(1212 5133.05)" fill="#B3B3B3"/>
</g>
<g id="Shape">
<use xlink:href="#path3_fill" transform="translate(1224 5133.05)" fill="#B3B3B3"/>
</g>
<g id="Shape">
<use xlink:href="#path4_fill" transform="translate(1212 5129)" fill="#B3B3B3"/>
</g>
</g>
</g>
</g>
</g>
</g>
</g>
</g>
</g>
<defs>
<path id="path0_fill" fill-rule="evenodd" d="M 0 0L 1920 0L 1920 366L 0 366L 0 0Z"/>
<path id="path1_fill" d="M 14.0738 4.88587C 14.4333 4.88587 14.7449 4.76716 15.0097 4.53276L 10.4783 0.0012196C 10.3696 0.0790708 10.2642 0.154773 10.1647 0.226759C 9.82557 0.476603 9.55034 0.671564 9.33901 0.811267C 9.1277 0.951289 8.84655 1.09401 8.49559 1.23972C 8.14441 1.38561 7.81723 1.45832 7.51373 1.45832L 7.50484 1.45832L 7.49596 1.45832C 7.19242 1.45832 6.86525 1.38564 6.51409 1.23972C 6.16293 1.09401 5.88179 0.951289 5.67068 0.811267C 5.45937 0.671564 5.18429 0.476632 4.84501 0.226759C 4.75046 0.157445 4.6456 0.0813938 4.53224 0L 0 4.53276C 0.264799 4.76716 0.576523 4.88587 0.936015 4.88587L 14.0738 4.88587Z"/>
<path id="path2_fill" d="M 0.901546 0.776595C 0.562468 0.550534 0.261779 0.29163 0 0L 0 6.89437L 3.99393 2.90044C 3.19492 2.34262 2.16543 1.63548 0.901546 0.776595Z"/>
<path id="path3_fill" d="M 3.09982 0.776595C 1.88414 1.59942 0.850904 2.30778 0 2.90204L 3.99233 6.89455L 3.99233 0C 3.73636 0.285764 3.4389 0.544494 3.09982 0.776595Z"/>
<path id="path4_fill" d="M 14.5657 0L 1.42795 0C 0.969612 0 0.617234 0.154773 0.370381 0.464C 0.123325 0.773372 0 1.16028 0 1.62428C 0 1.99907 0.163659 2.40517 0.490831 2.84269C 0.818004 3.28003 1.16614 3.62355 1.53507 3.87342C 1.73732 4.01632 2.34724 4.44033 3.36482 5.14532C 3.91413 5.52598 4.39184 5.85777 4.80235 6.14409C 5.15226 6.38789 5.45403 6.59903 5.70317 6.77424C 5.73177 6.79431 5.77675 6.82648 5.83646 6.86917C 5.90078 6.91537 5.98217 6.974 6.08258 7.0465C 6.27595 7.18635 6.43659 7.2994 6.56453 7.38576C 6.6923 7.47215 6.8471 7.56864 7.0287 7.67579C 7.21016 7.78279 7.38131 7.86326 7.54195 7.91678C 7.70262 7.97026 7.85135 7.9971 7.98818 7.9971L 7.99707 7.9971L 8.00595 7.9971C 8.14275 7.9971 8.29151 7.97026 8.45221 7.91678C 8.61282 7.86326 8.78383 7.78297 8.96543 7.67579C 9.14686 7.56864 9.30146 7.47194 9.42963 7.38576C 9.55758 7.2994 9.71821 7.18638 9.91161 7.0465C 10.0118 6.974 10.0932 6.91534 10.1575 6.86931C 10.2173 6.82645 10.2622 6.79448 10.291 6.77424C 10.4851 6.63919 10.7875 6.42892 11.1942 6.14656C 11.9341 5.63244 13.0239 4.87573 14.468 3.87342C 14.9023 3.57006 15.2652 3.20398 15.5568 2.7757C 15.8479 2.34741 15.9939 1.89816 15.9939 1.42809C 15.9939 1.03535 15.8524 0.699296 15.57 0.419397C 15.2873 0.139848 14.9525 0 14.5657 0Z"/>
</defs>
</svg>
